<?xml version="1.0" encoding="UTF-8" standalone="no"?>
<!DOCTYPE svg PUBLIC "-//W3C//DTD SVG 1.1//EN"
 "http://www.w3.org/Graphics/SVG/1.1/DTD/svg11.dtd">
<!-- Generated by graphviz version 2.38.0 (20140413.2041)
 -->
<!-- Title: %3 Pages: 1 -->
<svg width="338pt" height="466pt"
 viewBox="0.00 0.00 338.27 465.97" xmlns="http://www.w3.org/2000/svg" xmlns:xlink="http://www.w3.org/1999/xlink">
<g id="graph0" class="graph" transform="scale(1 1) rotate(0) translate(4 461.966)">
<title>%3</title>
<polygon fill="white" stroke="none" points="-4,4 -4,-461.966 334.268,-461.966 334.268,4 -4,4"/>
<!-- &#45;8263941221855491838 -->
<g id="node1" class="node"><title>&#45;8263941221855491838</title>
<polygon fill="none" stroke="black" points="105.134,-36 51.1341,-36 51.1341,-0 105.134,-0 105.134,-36"/>
<text text-anchor="middle" x="78.1341" y="-13.8" font-family="Times,serif" font-size="14.00">key&#45;1</text>
</g>
<!-- &#45;8305635193486683823 -->
<g id="node9" class="node"><title>&#45;8305635193486683823</title>
<ellipse fill="none" stroke="black" cx="78.1341" cy="-150.134" rx="78.2685" ry="78.2685"/>
<text text-anchor="middle" x="78.1341" y="-145.934" font-family="Times,serif" font-size="14.00">_dask_finalize_(...)</text>
</g>
<!-- &#45;8263941221855491838&#45;&gt;&#45;8305635193486683823 -->
<g id="edge8" class="edge"><title>&#45;8263941221855491838&#45;&gt;&#45;8305635193486683823</title>
<path fill="none" stroke="black" d="M78.1341,-36.0128C78.1341,-43.1203 78.1341,-51.9562 78.1341,-61.5355"/>
<polygon fill="black" stroke="black" points="74.6342,-61.7458 78.1341,-71.7459 81.6342,-61.7459 74.6342,-61.7458"/>
</g>
<!-- &#45;8263941221855491837 -->
<g id="node2" class="node"><title>&#45;8263941221855491837</title>
<polygon fill="none" stroke="black" points="279.134,-36 225.134,-36 225.134,-0 279.134,-0 279.134,-36"/>
<text text-anchor="middle" x="252.134" y="-13.8" font-family="Times,serif" font-size="14.00">key&#45;0</text>
</g>
<!-- &#45;1579883163620227064 -->
<g id="node8" class="node"><title>&#45;1579883163620227064</title>
<ellipse fill="none" stroke="black" cx="252.134" cy="-150.134" rx="78.2685" ry="78.2685"/>
<text text-anchor="middle" x="252.134" y="-145.934" font-family="Times,serif" font-size="14.00">_dask_finalize_(...)</text>
</g>
<!-- &#45;8263941221855491837&#45;&gt;&#45;1579883163620227064 -->
<g id="edge6" class="edge"><title>&#45;8263941221855491837&#45;&gt;&#45;1579883163620227064</title>
<path fill="none" stroke="black" d="M252.134,-36.0128C252.134,-43.1203 252.134,-51.9562 252.134,-61.5355"/>
<polygon fill="black" stroke="black" points="248.634,-61.7458 252.134,-71.7459 255.634,-61.7459 248.634,-61.7458"/>
</g>
<!-- 4409627270349781398 -->
<g id="node3" class="node"><title>4409627270349781398</title>
<polygon fill="none" stroke="black" points="199.134,-300.268 145.134,-300.268 145.134,-264.268 199.134,-264.268 199.134,-300.268"/>
<text text-anchor="middle" x="172.134" y="-278.068" font-family="Times,serif" font-size="14.00">int&#45;#0</text>
</g>
<!-- 7772250697538730221 -->
<g id="node5" class="node"><title>7772250697538730221</title>
<ellipse fill="none" stroke="black" cx="172.134" cy="-361.117" rx="24.6985" ry="24.6985"/>
<text text-anchor="middle" x="172.134" y="-356.917" font-family="Times,serif" font-size="14.00">sum</text>
</g>
<!-- 4409627270349781398&#45;&gt;7772250697538730221 -->
<g id="edge4" class="edge"><title>4409627270349781398&#45;&gt;7772250697538730221</title>
<path fill="none" stroke="black" d="M172.134,-300.324C172.134,-307.888 172.134,-317.072 172.134,-325.95"/>
<polygon fill="black" stroke="black" points="168.634,-326.114 172.134,-336.114 175.634,-326.115 168.634,-326.114"/>
</g>
<!-- &#45;1809608777582840602 -->
<g id="node4" class="node"><title>&#45;1809608777582840602</title>
<polygon fill="none" stroke="black" points="311.442,-457.966 32.8265,-457.966 32.8265,-421.966 311.442,-421.966 311.442,-457.966"/>
<text text-anchor="middle" x="172.134" y="-435.766" font-family="Times,serif" font-size="14.00">sum&#45;602529df&#45;a606&#45;4aa5&#45;b629&#45;d16eed321bac</text>
</g>
<!-- 7772250697538730221&#45;&gt;&#45;1809608777582840602 -->
<g id="edge1" class="edge"><title>7772250697538730221&#45;&gt;&#45;1809608777582840602</title>
<path fill="none" stroke="black" d="M172.134,-386.011C172.134,-394.19 172.134,-403.399 172.134,-411.816"/>
<polygon fill="black" stroke="black" points="168.634,-411.917 172.134,-421.917 175.634,-411.917 168.634,-411.917"/>
</g>
<!-- 7955111293607681058 -->
<g id="node6" class="node"><title>7955111293607681058</title>
<polygon fill="none" stroke="black" points="120.134,-300.268 66.1341,-300.268 66.1341,-264.268 120.134,-264.268 120.134,-300.268"/>
<text text-anchor="middle" x="93.1341" y="-278.068" font-family="Times,serif" font-size="14.00">#1</text>
</g>
<!-- 7955111293607681058&#45;&gt;7772250697538730221 -->
<g id="edge2" class="edge"><title>7955111293607681058&#45;&gt;7772250697538730221</title>
<path fill="none" stroke="black" d="M110.667,-300.324C121.406,-310.77 135.322,-324.307 147.196,-335.858"/>
<polygon fill="black" stroke="black" points="145.042,-338.646 154.65,-343.11 149.923,-333.628 145.042,-338.646"/>
</g>
<!-- &#45;6175270474423334589 -->
<g id="node7" class="node"><title>&#45;6175270474423334589</title>
<polygon fill="none" stroke="black" points="275.134,-300.268 221.134,-300.268 221.134,-264.268 275.134,-264.268 275.134,-300.268"/>
<text text-anchor="middle" x="248.134" y="-278.068" font-family="Times,serif" font-size="14.00">#2</text>
</g>
<!-- &#45;6175270474423334589&#45;&gt;7772250697538730221 -->
<g id="edge3" class="edge"><title>&#45;6175270474423334589&#45;&gt;7772250697538730221</title>
<path fill="none" stroke="black" d="M231.267,-300.324C221.008,-310.698 207.734,-324.119 196.363,-335.617"/>
<polygon fill="black" stroke="black" points="193.76,-333.272 189.217,-342.844 198.737,-338.195 193.76,-333.272"/>
</g>
<!-- &#45;1579883163620227064&#45;&gt;&#45;6175270474423334589 -->
<g id="edge5" class="edge"><title>&#45;1579883163620227064&#45;&gt;&#45;6175270474423334589</title>
<path fill="none" stroke="black" d="M249.761,-228.338C249.482,-237.414 249.213,-246.165 248.977,-253.847"/>
<polygon fill="black" stroke="black" points="245.476,-253.817 248.667,-263.92 252.473,-254.033 245.476,-253.817"/>
</g>
<!-- &#45;8305635193486683823&#45;&gt;7955111293607681058 -->
<g id="edge7" class="edge"><title>&#45;8305635193486683823&#45;&gt;7955111293607681058</title>
<path fill="none" stroke="black" d="M86.9898,-227.962C88.0713,-237.345 89.1138,-246.39 90.0235,-254.281"/>
<polygon fill="black" stroke="black" points="86.5505,-254.718 91.1727,-264.251 93.5045,-253.916 86.5505,-254.718"/>
</g>
</g>
</svg>
