<svg width="1920" height="1080" viewBox="0 0 1920 1080" fill="none" xmlns="http://www.w3.org/2000/svg">
<rect x="1049.47" y="887.806" width="178.935" height="136.308" rx="8" transform="rotate(-180 1049.47 887.806)" fill="#FFF7E6" stroke="#FE6939" stroke-width="4"/>
<rect x="1049.47" y="514.621" width="178.935" height="136.308" rx="8" transform="rotate(-180 1049.47 514.621)" fill="#FFF7E6" stroke="#FE6939" stroke-width="4"/>
<rect x="1049.47" y="728.879" width="178.935" height="191.639" rx="8" transform="rotate(-180 1049.47 728.879)" fill="#FDD3A6" stroke="#FE6939" stroke-width="4"/>
<rect x="1049.47" y="355.694" width="178.935" height="163.499" rx="8" transform="rotate(-180 1049.47 355.694)" fill="#FFF7E6" stroke="#FE6939" stroke-width="4"/>
<path d="M568.465 613.637V626.845H562.289V591.299H575.887C579.859 591.299 583.008 592.332 585.336 594.399C587.679 596.466 588.851 599.201 588.851 602.602C588.851 606.085 587.704 608.795 585.409 610.732C583.13 612.669 579.932 613.637 575.814 613.637H568.465ZM568.465 608.681H575.887C578.085 608.681 579.761 608.169 580.917 607.143C582.072 606.102 582.65 604.604 582.65 602.651C582.65 600.731 582.064 599.201 580.892 598.061C579.72 596.906 578.109 596.312 576.058 596.279H568.465V608.681ZM609.188 626.845C608.928 626.341 608.7 625.519 608.505 624.38C606.616 626.349 604.305 627.334 601.571 627.334C598.918 627.334 596.753 626.577 595.077 625.063C593.4 623.55 592.562 621.678 592.562 619.448C592.562 616.632 593.604 614.476 595.687 612.978C597.787 611.465 600.782 610.708 604.671 610.708H608.309V608.974C608.309 607.607 607.927 606.517 607.162 605.703C606.397 604.873 605.233 604.458 603.671 604.458C602.32 604.458 601.213 604.8 600.35 605.483C599.488 606.15 599.056 607.005 599.056 608.047H593.124C593.124 606.598 593.604 605.247 594.564 603.994C595.524 602.724 596.826 601.732 598.47 601.015C600.13 600.299 601.978 599.941 604.012 599.941C607.105 599.941 609.571 600.722 611.41 602.285C613.249 603.831 614.193 606.012 614.242 608.828V620.742C614.242 623.118 614.575 625.014 615.243 626.43V626.845H609.188ZM602.67 622.573C603.841 622.573 604.94 622.288 605.965 621.719C607.007 621.149 607.788 620.384 608.309 619.424V614.443H605.111C602.914 614.443 601.262 614.826 600.155 615.591C599.048 616.356 598.495 617.438 598.495 618.838C598.495 619.977 598.869 620.888 599.618 621.572C600.383 622.239 601.4 622.573 602.67 622.573ZM625.961 600.429L626.131 603.481C628.085 601.121 630.648 599.941 633.822 599.941C639.323 599.941 642.123 603.091 642.22 609.389V626.845H636.288V609.731C636.288 608.055 635.921 606.818 635.189 606.02C634.473 605.206 633.293 604.8 631.649 604.8C629.256 604.8 627.474 605.882 626.302 608.047V626.845H620.37V600.429H625.961ZM647.176 613.442C647.176 609.373 648.12 606.11 650.008 603.652C651.896 601.178 654.427 599.941 657.601 599.941C660.401 599.941 662.663 600.918 664.388 602.871V589.345H670.321V626.845H664.95L664.657 624.111C662.883 626.26 660.515 627.334 657.552 627.334C654.46 627.334 651.953 626.089 650.033 623.598C648.129 621.108 647.176 617.723 647.176 613.442ZM653.109 613.955C653.109 616.64 653.622 618.74 654.647 620.254C655.689 621.751 657.162 622.5 659.066 622.5C661.491 622.5 663.265 621.417 664.388 619.253V607.973C663.298 605.858 661.54 604.8 659.115 604.8C657.194 604.8 655.713 605.565 654.671 607.094C653.63 608.608 653.109 610.895 653.109 613.955ZM692.294 626.845C692.033 626.341 691.805 625.519 691.61 624.38C689.722 626.349 687.411 627.334 684.676 627.334C682.023 627.334 679.859 626.577 678.182 625.063C676.506 623.55 675.668 621.678 675.668 619.448C675.668 616.632 676.709 614.476 678.793 612.978C680.892 611.465 683.887 610.708 687.777 610.708H691.415V608.974C691.415 607.607 691.032 606.517 690.267 605.703C689.502 604.873 688.338 604.458 686.776 604.458C685.425 604.458 684.318 604.8 683.456 605.483C682.593 606.15 682.162 607.005 682.162 608.047H676.229C676.229 606.598 676.709 605.247 677.67 603.994C678.63 602.724 679.932 601.732 681.576 601.015C683.236 600.299 685.083 599.941 687.118 599.941C690.21 599.941 692.676 600.722 694.515 602.285C696.354 603.831 697.298 606.012 697.347 608.828V620.742C697.347 623.118 697.681 625.014 698.348 626.43V626.845H692.294ZM685.775 622.573C686.947 622.573 688.046 622.288 689.071 621.719C690.113 621.149 690.894 620.384 691.415 619.424V614.443H688.216C686.019 614.443 684.367 614.826 683.26 615.591C682.154 616.356 681.6 617.438 681.6 618.838C681.6 619.977 681.975 620.888 682.723 621.572C683.488 622.239 684.505 622.573 685.775 622.573ZM718.368 619.668C718.368 618.61 717.928 617.804 717.049 617.251C716.187 616.697 714.746 616.209 712.728 615.786C710.71 615.363 709.025 614.826 707.674 614.175C704.712 612.742 703.231 610.667 703.231 607.949C703.231 605.67 704.191 603.766 706.112 602.236C708.032 600.706 710.474 599.941 713.436 599.941C716.594 599.941 719.141 600.722 721.078 602.285C723.031 603.847 724.007 605.874 724.007 608.364H718.075C718.075 607.225 717.652 606.281 716.805 605.532C715.959 604.767 714.836 604.385 713.436 604.385C712.134 604.385 711.068 604.686 710.238 605.288C709.424 605.89 709.017 606.696 709.017 607.705C709.017 608.616 709.4 609.324 710.165 609.829C710.93 610.333 712.476 610.846 714.803 611.367C717.131 611.872 718.954 612.482 720.272 613.198C721.607 613.898 722.591 614.744 723.226 615.737C723.877 616.73 724.203 617.934 724.203 619.35C724.203 621.727 723.218 623.655 721.249 625.136C719.279 626.601 716.699 627.334 713.509 627.334C711.345 627.334 709.416 626.943 707.723 626.162C706.031 625.381 704.712 624.306 703.768 622.939C702.824 621.572 702.352 620.099 702.352 618.52H708.114C708.195 619.92 708.724 621.002 709.701 621.767C710.677 622.516 711.971 622.89 713.583 622.89C715.145 622.89 716.333 622.597 717.147 622.011C717.961 621.409 718.368 620.628 718.368 619.668ZM523.861 685.845V650.299H534.359C537.5 650.299 540.283 650.998 542.709 652.398C545.15 653.798 547.038 655.784 548.373 658.355C549.707 660.927 550.375 663.873 550.375 667.193V668.975C550.375 672.344 549.699 675.307 548.348 677.862C547.014 680.417 545.101 682.387 542.611 683.77C540.137 685.154 537.297 685.845 534.09 685.845H523.861ZM530.038 655.279V680.914H534.066C537.305 680.914 539.787 679.905 541.512 677.886C543.254 675.852 544.141 672.939 544.173 669.146V667.169C544.173 663.311 543.335 660.365 541.659 658.331C539.982 656.296 537.549 655.279 534.359 655.279H530.038ZM571.737 685.845C571.477 685.341 571.249 684.519 571.053 683.38C569.165 685.349 566.854 686.334 564.12 686.334C561.467 686.334 559.302 685.577 557.626 684.063C555.949 682.55 555.111 680.678 555.111 678.448C555.111 675.632 556.153 673.476 558.236 671.978C560.336 670.465 563.33 669.708 567.22 669.708H570.858V667.974C570.858 666.607 570.476 665.517 569.711 664.703C568.946 663.873 567.782 663.458 566.219 663.458C564.868 663.458 563.762 663.8 562.899 664.483C562.036 665.15 561.605 666.005 561.605 667.047H555.672C555.672 665.598 556.153 664.247 557.113 662.994C558.073 661.724 559.375 660.732 561.019 660.015C562.679 659.299 564.527 658.941 566.561 658.941C569.654 658.941 572.119 659.722 573.959 661.285C575.798 662.831 576.742 665.012 576.791 667.828V679.742C576.791 682.118 577.124 684.014 577.792 685.43V685.845H571.737ZM565.218 681.573C566.39 681.573 567.489 681.288 568.514 680.719C569.556 680.149 570.337 679.384 570.858 678.424V673.443H567.66C565.463 673.443 563.81 673.826 562.704 674.591C561.597 675.356 561.044 676.438 561.044 677.838C561.044 678.977 561.418 679.888 562.167 680.572C562.932 681.239 563.949 681.573 565.218 681.573ZM590.438 653.009V659.429H595.101V663.824H590.438V678.57C590.438 679.579 590.633 680.312 591.024 680.767C591.431 681.207 592.147 681.427 593.172 681.427C593.856 681.427 594.548 681.345 595.248 681.182V685.772C593.897 686.147 592.595 686.334 591.341 686.334C586.784 686.334 584.505 683.819 584.505 678.79V663.824H580.16V659.429H584.505V653.009H590.438ZM615.438 685.845C615.178 685.341 614.95 684.519 614.755 683.38C612.866 685.349 610.555 686.334 607.821 686.334C605.168 686.334 603.003 685.577 601.327 684.063C599.65 682.55 598.812 680.678 598.812 678.448C598.812 675.632 599.854 673.476 601.937 671.978C604.037 670.465 607.032 669.708 610.921 669.708H614.559V667.974C614.559 666.607 614.177 665.517 613.412 664.703C612.647 663.873 611.483 663.458 609.921 663.458C608.57 663.458 607.463 663.8 606.6 664.483C605.738 665.15 605.306 666.005 605.306 667.047H599.374C599.374 665.598 599.854 664.247 600.814 662.994C601.774 661.724 603.076 660.732 604.72 660.015C606.38 659.299 608.228 658.941 610.262 658.941C613.355 658.941 615.821 659.722 617.66 661.285C619.499 662.831 620.443 665.012 620.492 667.828V679.742C620.492 682.118 620.825 684.014 621.493 685.43V685.845H615.438ZM608.92 681.573C610.091 681.573 611.19 681.288 612.215 680.719C613.257 680.149 614.038 679.384 614.559 678.424V673.443H611.361C609.164 673.443 607.512 673.826 606.405 674.591C605.298 675.356 604.745 676.438 604.745 677.838C604.745 678.977 605.119 679.888 605.868 680.572C606.633 681.239 607.65 681.573 608.92 681.573ZM647.762 670.782H633.456V685.845H627.279V650.299H649.862V655.279H633.456V665.85H647.762V670.782ZM667.391 664.849C666.61 664.719 665.804 664.654 664.974 664.654C662.256 664.654 660.425 665.696 659.481 667.779V685.845H653.548V659.429H659.213L659.359 662.384C660.791 660.089 662.777 658.941 665.316 658.941C666.162 658.941 666.862 659.055 667.416 659.283L667.391 664.849ZM686.19 685.845C685.93 685.341 685.702 684.519 685.506 683.38C683.618 685.349 681.307 686.334 678.573 686.334C675.92 686.334 673.755 685.577 672.079 684.063C670.402 682.55 669.564 680.678 669.564 678.448C669.564 675.632 670.606 673.476 672.689 671.978C674.789 670.465 677.783 669.708 681.673 669.708H685.311V667.974C685.311 666.607 684.929 665.517 684.164 664.703C683.399 663.873 682.235 663.458 680.672 663.458C679.322 663.458 678.215 663.8 677.352 664.483C676.49 665.15 676.058 666.005 676.058 667.047H670.126C670.126 665.598 670.606 664.247 671.566 662.994C672.526 661.724 673.828 660.732 675.472 660.015C677.132 659.299 678.98 658.941 681.014 658.941C684.107 658.941 686.573 659.722 688.412 661.285C690.251 662.831 691.195 665.012 691.244 667.828V679.742C691.244 682.118 691.577 684.014 692.245 685.43V685.845H686.19ZM679.671 681.573C680.843 681.573 681.942 681.288 682.967 680.719C684.009 680.149 684.79 679.384 685.311 678.424V673.443H682.113C679.916 673.443 678.264 673.826 677.157 674.591C676.05 675.356 675.497 676.438 675.497 677.838C675.497 678.977 675.871 679.888 676.62 680.572C677.385 681.239 678.402 681.573 679.671 681.573ZM703.036 659.429L703.207 662.188C705.062 660.024 707.601 658.941 710.824 658.941C714.356 658.941 716.773 660.292 718.075 662.994C719.995 660.292 722.697 658.941 726.18 658.941C729.094 658.941 731.258 659.747 732.674 661.358C734.107 662.969 734.839 665.346 734.872 668.487V685.845H728.939V668.658C728.939 666.982 728.573 665.753 727.84 664.971C727.108 664.19 725.895 663.8 724.203 663.8C722.852 663.8 721.745 664.166 720.882 664.898C720.036 665.614 719.442 666.558 719.1 667.73L719.125 685.845H713.192V668.463C713.111 665.354 711.524 663.8 708.431 663.8C706.055 663.8 704.37 664.768 703.378 666.705V685.845H697.445V659.429H703.036ZM752.596 686.334C748.837 686.334 745.785 685.154 743.441 682.794C741.114 680.417 739.95 677.26 739.95 673.321V672.589C739.95 669.952 740.454 667.6 741.463 665.533C742.489 663.45 743.921 661.83 745.76 660.675C747.6 659.519 749.65 658.941 751.913 658.941C755.51 658.941 758.285 660.089 760.238 662.384C762.207 664.678 763.192 667.926 763.192 672.125V674.517H745.931C746.11 676.698 746.835 678.424 748.104 679.693C749.39 680.963 751.001 681.597 752.938 681.597C755.656 681.597 757.87 680.499 759.579 678.302L762.777 681.353C761.719 682.932 760.303 684.161 758.529 685.04C756.771 685.902 754.794 686.334 752.596 686.334ZM751.888 663.702C750.261 663.702 748.942 664.272 747.933 665.411C746.94 666.55 746.306 668.137 746.029 670.172H757.333V669.732C757.202 667.747 756.673 666.249 755.746 665.24C754.818 664.215 753.532 663.702 751.888 663.702Z" fill="#1D1D1D"/>
<path d="M1225.27 520.846V485.299H1235.76C1238.9 485.299 1241.69 485.999 1244.11 487.398C1246.55 488.798 1248.44 490.784 1249.78 493.355C1251.11 495.927 1251.78 498.873 1251.78 502.193V503.975C1251.78 507.345 1251.1 510.307 1249.75 512.862C1248.42 515.417 1246.51 517.387 1244.02 518.77C1241.54 520.154 1238.7 520.846 1235.49 520.846H1225.27ZM1231.44 490.279V515.914H1235.47C1238.71 515.914 1241.19 514.905 1242.92 512.887C1244.66 510.852 1245.54 507.939 1245.58 504.146V502.169C1245.58 498.311 1244.74 495.365 1243.06 493.331C1241.39 491.296 1238.95 490.279 1235.76 490.279H1231.44ZM1273.14 520.846C1272.88 520.341 1272.65 519.519 1272.46 518.38C1270.57 520.349 1268.26 521.334 1265.52 521.334C1262.87 521.334 1260.71 520.577 1259.03 519.063C1257.35 517.55 1256.52 515.678 1256.52 513.448C1256.52 510.632 1257.56 508.476 1259.64 506.978C1261.74 505.465 1264.73 504.708 1268.62 504.708H1272.26V502.974C1272.26 501.607 1271.88 500.517 1271.11 499.703C1270.35 498.873 1269.19 498.458 1267.62 498.458C1266.27 498.458 1265.17 498.8 1264.3 499.483C1263.44 500.151 1263.01 501.005 1263.01 502.047H1257.08C1257.08 500.598 1257.56 499.247 1258.52 497.994C1259.48 496.724 1260.78 495.732 1262.42 495.015C1264.08 494.299 1265.93 493.941 1267.97 493.941C1271.06 493.941 1273.52 494.723 1275.36 496.285C1277.2 497.831 1278.15 500.012 1278.19 502.828V514.742C1278.19 517.118 1278.53 519.014 1279.2 520.431V520.846H1273.14ZM1266.62 516.573C1267.79 516.573 1268.89 516.288 1269.92 515.719C1270.96 515.149 1271.74 514.384 1272.26 513.424V508.443H1269.06C1266.87 508.443 1265.21 508.826 1264.11 509.591C1263 510.356 1262.45 511.438 1262.45 512.838C1262.45 513.977 1262.82 514.889 1263.57 515.572C1264.34 516.239 1265.35 516.573 1266.62 516.573ZM1299.22 513.668C1299.22 512.61 1298.78 511.804 1297.9 511.251C1297.03 510.697 1295.59 510.209 1293.58 509.786C1291.56 509.363 1289.87 508.826 1288.52 508.175C1285.56 506.742 1284.08 504.667 1284.08 501.949C1284.08 499.67 1285.04 497.766 1286.96 496.236C1288.88 494.706 1291.32 493.941 1294.28 493.941C1297.44 493.941 1299.99 494.723 1301.93 496.285C1303.88 497.848 1304.85 499.874 1304.85 502.364H1298.92C1298.92 501.225 1298.5 500.281 1297.65 499.532C1296.81 498.767 1295.68 498.385 1294.28 498.385C1292.98 498.385 1291.92 498.686 1291.09 499.288C1290.27 499.89 1289.86 500.696 1289.86 501.705C1289.86 502.616 1290.25 503.324 1291.01 503.829C1291.78 504.334 1293.32 504.846 1295.65 505.367C1297.98 505.872 1299.8 506.482 1301.12 507.198C1302.45 507.898 1303.44 508.744 1304.07 509.737C1304.72 510.73 1305.05 511.934 1305.05 513.35C1305.05 515.727 1304.07 517.655 1302.1 519.137C1300.13 520.601 1297.55 521.334 1294.36 521.334C1292.19 521.334 1290.26 520.943 1288.57 520.162C1286.88 519.381 1285.56 518.306 1284.62 516.939C1283.67 515.572 1283.2 514.099 1283.2 512.52H1288.96C1289.04 513.92 1289.57 515.002 1290.55 515.767C1291.52 516.516 1292.82 516.89 1294.43 516.89C1295.99 516.89 1297.18 516.598 1297.99 516.012C1298.81 515.409 1299.22 514.628 1299.22 513.668ZM1318.82 509.517L1316.18 512.227V520.846H1310.25V483.346H1316.18V504.976L1318.04 502.657L1325.34 494.43H1332.47L1322.65 505.44L1333.52 520.846H1326.66L1318.82 509.517ZM1158.83 579.846V544.299H1169.33C1172.47 544.299 1175.26 544.999 1177.68 546.398C1180.12 547.798 1182.01 549.784 1183.35 552.355C1184.68 554.927 1185.35 557.873 1185.35 561.193V562.975C1185.35 566.345 1184.67 569.307 1183.32 571.862C1181.99 574.417 1180.07 576.387 1177.58 577.77C1175.11 579.154 1172.27 579.846 1169.06 579.846H1158.83ZM1165.01 549.279V574.914H1169.04C1172.28 574.914 1174.76 573.905 1176.49 571.887C1178.23 569.852 1179.11 566.939 1179.15 563.146V561.169C1179.15 557.311 1178.31 554.365 1176.63 552.331C1174.96 550.296 1172.52 549.279 1169.33 549.279H1165.01ZM1206.71 579.846C1206.45 579.341 1206.22 578.519 1206.03 577.38C1204.14 579.349 1201.83 580.334 1199.09 580.334C1196.44 580.334 1194.28 579.577 1192.6 578.063C1190.92 576.55 1190.08 574.678 1190.08 572.448C1190.08 569.632 1191.13 567.476 1193.21 565.978C1195.31 564.465 1198.3 563.708 1202.19 563.708H1205.83V561.974C1205.83 560.607 1205.45 559.517 1204.68 558.703C1203.92 557.873 1202.76 557.458 1201.19 557.458C1199.84 557.458 1198.74 557.8 1197.87 558.483C1197.01 559.151 1196.58 560.005 1196.58 561.047H1190.65C1190.65 559.598 1191.13 558.247 1192.09 556.994C1193.05 555.724 1194.35 554.732 1195.99 554.015C1197.65 553.299 1199.5 552.941 1201.53 552.941C1204.63 552.941 1207.09 553.723 1208.93 555.285C1210.77 556.831 1211.72 559.012 1211.76 561.828V573.742C1211.76 576.118 1212.1 578.014 1212.77 579.431V579.846H1206.71ZM1200.19 575.573C1201.36 575.573 1202.46 575.288 1203.49 574.719C1204.53 574.149 1205.31 573.384 1205.83 572.424V567.443H1202.63C1200.44 567.443 1198.78 567.826 1197.68 568.591C1196.57 569.356 1196.02 570.438 1196.02 571.838C1196.02 572.977 1196.39 573.889 1197.14 574.572C1197.91 575.239 1198.92 575.573 1200.19 575.573ZM1225.41 547.009V553.43H1230.07V557.824H1225.41V572.57C1225.41 573.579 1225.61 574.312 1226 574.767C1226.4 575.207 1227.12 575.427 1228.15 575.427C1228.83 575.427 1229.52 575.345 1230.22 575.182V579.772C1228.87 580.147 1227.57 580.334 1226.31 580.334C1221.76 580.334 1219.48 577.819 1219.48 572.79V557.824H1215.13V553.43H1219.48V547.009H1225.41ZM1250.41 579.846C1250.15 579.341 1249.92 578.519 1249.73 577.38C1247.84 579.349 1245.53 580.334 1242.79 580.334C1240.14 580.334 1237.98 579.577 1236.3 578.063C1234.62 576.55 1233.79 574.678 1233.79 572.448C1233.79 569.632 1234.83 567.476 1236.91 565.978C1239.01 564.465 1242 563.708 1245.89 563.708H1249.53V561.974C1249.53 560.607 1249.15 559.517 1248.39 558.703C1247.62 557.873 1246.46 557.458 1244.89 557.458C1243.54 557.458 1242.44 557.8 1241.57 558.483C1240.71 559.151 1240.28 560.005 1240.28 561.047H1234.35C1234.35 559.598 1234.83 558.247 1235.79 556.994C1236.75 555.724 1238.05 554.732 1239.69 554.015C1241.35 553.299 1243.2 552.941 1245.24 552.941C1248.33 552.941 1250.79 553.723 1252.63 555.285C1254.47 556.831 1255.42 559.012 1255.47 561.828V573.742C1255.47 576.118 1255.8 578.014 1256.47 579.431V579.846H1250.41ZM1243.89 575.573C1245.06 575.573 1246.16 575.288 1247.19 574.719C1248.23 574.149 1249.01 573.384 1249.53 572.424V567.443H1246.33C1244.14 567.443 1242.49 567.826 1241.38 568.591C1240.27 569.356 1239.72 570.438 1239.72 571.838C1239.72 572.977 1240.09 573.889 1240.84 574.572C1241.61 575.239 1242.62 575.573 1243.89 575.573ZM1282.74 564.782H1268.43V579.846H1262.25V544.299H1284.84V549.279H1268.43V559.85H1282.74V564.782ZM1302.36 558.849C1301.58 558.719 1300.78 558.654 1299.95 558.654C1297.23 558.654 1295.4 559.696 1294.45 561.779V579.846H1288.52V553.43H1294.19L1294.33 556.384C1295.76 554.089 1297.75 552.941 1300.29 552.941C1301.14 552.941 1301.84 553.055 1302.39 553.283L1302.36 558.849ZM1321.16 579.846C1320.9 579.341 1320.68 578.519 1320.48 577.38C1318.59 579.349 1316.28 580.334 1313.55 580.334C1310.89 580.334 1308.73 579.577 1307.05 578.063C1305.38 576.55 1304.54 574.678 1304.54 572.448C1304.54 569.632 1305.58 567.476 1307.66 565.978C1309.76 564.465 1312.76 563.708 1316.65 563.708H1320.28V561.974C1320.28 560.607 1319.9 559.517 1319.14 558.703C1318.37 557.873 1317.21 557.458 1315.65 557.458C1314.29 557.458 1313.19 557.8 1312.33 558.483C1311.46 559.151 1311.03 560.005 1311.03 561.047H1305.1C1305.1 559.598 1305.58 558.247 1306.54 556.994C1307.5 555.724 1308.8 554.732 1310.45 554.015C1312.11 553.299 1313.95 552.941 1315.99 552.941C1319.08 552.941 1321.55 553.723 1323.39 555.285C1325.22 556.831 1326.17 559.012 1326.22 561.828V573.742C1326.22 576.118 1326.55 578.014 1327.22 579.431V579.846H1321.16ZM1314.64 575.573C1315.82 575.573 1316.92 575.288 1317.94 574.719C1318.98 574.149 1319.76 573.384 1320.28 572.424V567.443H1317.09C1314.89 567.443 1313.24 567.826 1312.13 568.591C1311.02 569.356 1310.47 570.438 1310.47 571.838C1310.47 572.977 1310.84 573.889 1311.59 574.572C1312.36 575.239 1313.38 575.573 1314.64 575.573ZM1338.01 553.43L1338.18 556.188C1340.04 554.024 1342.57 552.941 1345.8 552.941C1349.33 552.941 1351.75 554.292 1353.05 556.994C1354.97 554.292 1357.67 552.941 1361.15 552.941C1364.07 552.941 1366.23 553.747 1367.65 555.358C1369.08 556.97 1369.81 559.346 1369.85 562.487V579.846H1363.91V562.658C1363.91 560.982 1363.55 559.753 1362.81 558.972C1362.08 558.19 1360.87 557.8 1359.18 557.8C1357.83 557.8 1356.72 558.166 1355.86 558.898C1355.01 559.614 1354.42 560.558 1354.07 561.73L1354.1 579.846H1348.17V562.463C1348.08 559.354 1346.5 557.8 1343.4 557.8C1341.03 557.8 1339.34 558.768 1338.35 560.705V579.846H1332.42V553.43H1338.01ZM1387.57 580.334C1383.81 580.334 1380.76 579.154 1378.41 576.794C1376.09 574.417 1374.92 571.26 1374.92 567.321V566.589C1374.92 563.952 1375.43 561.6 1376.44 559.533C1377.46 557.45 1378.89 555.83 1380.73 554.675C1382.57 553.519 1384.62 552.941 1386.89 552.941C1390.48 552.941 1393.26 554.089 1395.21 556.384C1397.18 558.679 1398.17 561.926 1398.17 566.125V568.517H1380.9C1381.08 570.698 1381.81 572.424 1383.08 573.693C1384.36 574.963 1385.97 575.598 1387.91 575.598C1390.63 575.598 1392.84 574.499 1394.55 572.302L1397.75 575.353C1396.69 576.932 1395.28 578.161 1393.5 579.04C1391.74 579.903 1389.77 580.334 1387.57 580.334ZM1386.86 557.702C1385.23 557.702 1383.92 558.272 1382.91 559.411C1381.91 560.55 1381.28 562.137 1381 564.172H1392.31V563.732C1392.18 561.747 1391.65 560.249 1390.72 559.24C1389.79 558.215 1388.51 557.702 1386.86 557.702Z" fill="#1D1D1D"/>
<path d="M1082.83 201.667H1099.94C1103.8 201.667 1106.94 204.801 1106.94 208.667V871.333C1106.94 875.199 1103.8 878.333 1099.94 878.333H1082.83" stroke="#D2D0CC" stroke-width="4"/>
<line x1="1106.94" y1="538" x2="1127.83" y2="538" stroke="#D2D0CC" stroke-width="4"/>
<path d="M834 727.733L816.899 727.733C813.033 727.733 809.899 724.599 809.899 720.733L809.899 545.267C809.899 541.401 813.033 538.267 816.899 538.267L834 538.267" stroke="#D2D0CC" stroke-width="4"/>
<line x1="809.899" y1="635" x2="789" y2="635" stroke="#D2D0CC" stroke-width="4"/>
</svg>
