<svg id="Layer_1" data-name="Layer 1" xmlns="http://www.w3.org/2000/svg" xmlns:xlink="http://www.w3.org/1999/xlink" viewBox="0 0 550 550"><defs><linearGradient id="linear-gradient" x1="376.88" y1="323.87" x2="522.6" y2="323.87" gradientTransform="translate(-81.31 -164.49) rotate(7.91)" gradientUnits="userSpaceOnUse"><stop offset="0.01" stop-color="#c7422f"/><stop offset="0.37" stop-color="#d46e43"/><stop offset="1" stop-color="#eeb575"/></linearGradient><linearGradient id="linear-gradient-2" x1="422.15" y1="320.13" x2="487.79" y2="320.13" gradientTransform="translate(-81.31 -164.49) rotate(7.91)" gradientUnits="userSpaceOnUse"><stop offset="0.21" stop-color="#cf603b"/><stop offset="1" stop-color="#eeb575"/></linearGradient><linearGradient id="linear-gradient-3" x1="298.3" y1="327.53" x2="459.54" y2="327.53" xlink:href="#linear-gradient-2"/></defs><title>dask</title><path d="M106.85,396.44h41.84c28.67,0.32,35.11,24.76,35.11,46.33,0,45.83-23.58,45.37-35.11,45.37H106.85v-91.7Zm40.27,74.79c15,0,18.08-13.51,18.08-28.46,0-21-7.31-29.42-18.08-29.42H125.44v57.87h21.68Z" style="fill:#fff"/><path d="M219.71,396.76h21.4l31.5,91.38H252.89l-7.49-20.72h-32l-8,20.72H185.72Zm21.07,54.87-10.53-31.14-11.54,31.14h22.07Z" style="fill:#fff"/><path d="M281.15,420.52c0-13.54,5.44-24.24,23.81-24.24,8.34,0,32.35,1.31,44.33,3.49V413.4s-24.91-.92-41.52-0.92c-6.32,0-8,4-8,8.33v6.82c0,7,3.09,7.17,8,7.17h23.89c16.25,0,22,10.34,22,23.21v9c0,18.48-11.07,22.76-22,22.76-7.63,0-40.76-.93-47-3.75V472.69s27.21,0.71,43,.71c5.68,0,7.29-6.75,7.29-6.75v-8.08c0-4.6-1.81-6.85-7.29-6.85H304.39c-16.81,0-23.25-7.58-23.25-23v-8.22Z" style="fill:#fff"/><path d="M367.08,396.76h18v38.48h10l26.37-38.48h21.64l-31.7,46.49,31.7,45H421.51l-26.69-36.71h-9.7V488.3h-18V396.76Z" style="fill:#fff"/><path d="M396.44,193.29q0.28-3,.48-6.07A198.39,198.39,0,0,0,376.6,86.14L365.28,63.41,360,88.25A180.9,180.9,0,0,1,253.49,217.33l-7.79,3.29,2.95,7.93a179.06,179.06,0,0,1,10.47,80.15,181.61,181.61,0,0,1-9.49,43l-6,16.94,17.06-5.61A198.65,198.65,0,0,0,396.44,193.29ZM280.72,335.57l-9.09,4.63,2-10a199.71,199.71,0,0,0,2.91-19.83A197.25,197.25,0,0,0,269,234.21l-1.21-4,3.73-1.86a199.53,199.53,0,0,0,93.33-98.19l5.82-13.28L374.2,131A181,181,0,0,1,280.72,335.57Z" style="fill:url(#linear-gradient)"/><path d="M354.11,203.05c6.86-15.13,14-52.72,13.52-55.53a209.15,209.15,0,0,1-25.07,37.16c-1.4,3.72-2.89,7.42-4.55,11.07h0a180.66,180.66,0,0,1-52.48,67.16q1.4,10.18,1.78,20.51A198.14,198.14,0,0,0,354.11,203.05Z" style="fill:url(#linear-gradient-2)"/><path d="M249.86,284.92a180.9,180.9,0,0,1-51.22,15.21l-10.09,1.42,5.11-8.81a200.36,200.36,0,0,0,9.19-17.82,197.12,197.12,0,0,0,17.63-74.46l0.15-4.17,4.13-.55a199.43,199.43,0,0,0,89.65-35.62,170.57,170.57,0,0,0,30.83-55.38,181,181,0,0,1-134.14,74.64l-8.43.58,0.22,8.46a179.08,179.08,0,0,1-16.13,79.21,181.59,181.59,0,0,1-23,37.63l-11.14,14.08,18,0.24a197.88,197.88,0,0,0,78.85-15.37A172.93,172.93,0,0,0,249.86,284.92Z" style="fill:url(#linear-gradient-3)"/></svg>