<?xml version="1.0" encoding="UTF-8" standalone="no"?>
<svg
   width="874.30902"
   height="699.61096"
   viewBox="0 0 874.30902 699.61096"
   fill="none"
   version="1.1"
   id="svg2581"
   sodipodi:docname="dask-dataframe.svg"
   inkscape:version="1.1.1 (c3084ef, 2021-09-22)"
   xmlns:inkscape="http://www.inkscape.org/namespaces/inkscape"
   xmlns:sodipodi="http://sodipodi.sourceforge.net/DTD/sodipodi-0.dtd"
   xmlns="http://www.w3.org/2000/svg"
   xmlns:svg="http://www.w3.org/2000/svg">
  <defs
     id="defs2585" />
  <sodipodi:namedview
     id="namedview2583"
     pagecolor="#ffffff"
     bordercolor="#666666"
     borderopacity="1.0"
     inkscape:pageshadow="2"
     inkscape:pageopacity="0.0"
     inkscape:pagecheckerboard="0"
     showgrid="false"
     fit-margin-top="0"
     fit-margin-left="0"
     fit-margin-right="0"
     fit-margin-bottom="0"
     inkscape:zoom="0.5787037"
     inkscape:cx="436.32"
     inkscape:cy="349.056"
     inkscape:window-width="2560"
     inkscape:window-height="1440"
     inkscape:window-x="0"
     inkscape:window-y="0"
     inkscape:window-maximized="0"
     inkscape:current-layer="svg2581" />
  <rect
     x="-525.60901"
     y="-697.61096"
     width="178.935"
     height="136.308"
     rx="8"
     transform="scale(-1)"
     fill="#fff7e7"
     stroke="#fe6939"
     stroke-width="4"
     id="rect2561" />
  <rect
     x="-525.60901"
     y="-324.42603"
     width="178.935"
     height="136.308"
     rx="8"
     transform="scale(-1)"
     fill="#fff7e7"
     stroke="#fe6939"
     stroke-width="4"
     id="rect2563" />
  <rect
     x="-525.60901"
     y="-538.68396"
     width="178.935"
     height="191.63901"
     rx="8"
     transform="scale(-1)"
     fill="#fdd3a6"
     stroke="#fe6939"
     stroke-width="4"
     id="rect2565" />
  <rect
     x="-525.60901"
     y="-165.49899"
     width="178.935"
     height="163.49899"
     rx="8"
     transform="scale(-1)"
     fill="#fff7e7"
     stroke="#fe6939"
     stroke-width="4"
     id="rect2567" />
  <path
     d="m 44.604,423.44199 v 13.208 h -6.176 v -35.546 h 13.598 c 3.972,0 7.121,1.033 9.449,3.1 2.343,2.067 3.515,4.802 3.515,8.203 0,3.483 -1.147,6.193 -3.442,8.13 -2.279,1.937 -5.477,2.905 -9.595,2.905 z m 0,-4.956 h 7.422 c 2.198,0 3.874,-0.512 5.03,-1.538 1.155,-1.041 1.733,-2.539 1.733,-4.492 0,-1.92 -0.586,-3.45 -1.758,-4.59 -1.172,-1.155 -2.783,-1.749 -4.834,-1.782 h -7.593 z m 40.723,18.164 c -0.26,-0.504 -0.488,-1.326 -0.683,-2.465 -1.889,1.969 -4.2,2.954 -6.934,2.954 -2.653,0 -4.818,-0.757 -6.494,-2.271 -1.677,-1.513 -2.515,-3.385 -2.515,-5.615 0,-2.816 1.042,-4.972 3.125,-6.47 2.1,-1.513 5.095,-2.27 8.984,-2.27 h 3.638 v -1.734 c 0,-1.367 -0.382,-2.457 -1.147,-3.271 -0.765,-0.83 -1.929,-1.245 -3.491,-1.245 -1.351,0 -2.458,0.342 -3.321,1.025 -0.862,0.667 -1.294,1.522 -1.294,2.564 h -5.932 c 0,-1.449 0.48,-2.8 1.44,-4.053 0.96,-1.27 2.262,-2.262 3.906,-2.979 1.66,-0.716 3.508,-1.074 5.542,-1.074 3.093,0 5.559,0.781 7.398,2.344 1.839,1.546 2.783,3.727 2.832,6.543 v 11.914 c 0,2.376 0.333,4.272 1.001,5.688 v 0.415 z m -6.518,-4.272 c 1.171,0 2.27,-0.285 3.295,-0.854 1.042,-0.57 1.823,-1.335 2.344,-2.295 v -4.981 H 81.25 c -2.197,0 -3.849,0.383 -4.956,1.148 -1.107,0.765 -1.66,1.847 -1.66,3.247 0,1.139 0.374,2.05 1.123,2.734 0.765,0.667 1.782,1.001 3.052,1.001 z m 23.291,-22.144 0.17,3.052 c 1.954,-2.36 4.517,-3.54 7.691,-3.54 5.501,0 8.301,3.15 8.398,9.448 v 17.456 h -5.932 v -17.114 c 0,-1.676 -0.367,-2.913 -1.099,-3.711 -0.716,-0.814 -1.896,-1.22 -3.54,-1.22 -2.393,0 -4.175,1.082 -5.347,3.247 v 18.798 h -5.932 v -26.416 z m 21.215,13.013 c 0,-4.069 0.944,-7.332 2.832,-9.79 1.888,-2.474 4.419,-3.711 7.593,-3.711 2.8,0 5.062,0.977 6.787,2.93 v -13.526 h 5.933 v 37.5 h -5.371 l -0.293,-2.734 c -1.774,2.149 -4.142,3.223 -7.105,3.223 -3.092,0 -5.599,-1.245 -7.519,-3.736 -1.904,-2.49 -2.857,-5.875 -2.857,-10.156 z m 5.933,0.513 c 0,2.685 0.513,4.785 1.538,6.299 1.042,1.497 2.515,2.246 4.419,2.246 2.425,0 4.199,-1.083 5.322,-3.247 v -11.28 c -1.09,-2.115 -2.848,-3.173 -5.273,-3.173 -1.921,0 -3.402,0.765 -4.444,2.294 -1.041,1.514 -1.562,3.801 -1.562,6.861 z m 39.185,12.89 c -0.261,-0.504 -0.489,-1.326 -0.684,-2.465 -1.888,1.969 -4.199,2.954 -6.934,2.954 -2.653,0 -4.817,-0.757 -6.494,-2.271 -1.676,-1.513 -2.514,-3.385 -2.514,-5.615 0,-2.816 1.041,-4.972 3.125,-6.47 2.099,-1.513 5.094,-2.27 8.984,-2.27 h 3.638 v -1.734 c 0,-1.367 -0.383,-2.457 -1.148,-3.271 -0.765,-0.83 -1.929,-1.245 -3.491,-1.245 -1.351,0 -2.458,0.342 -3.32,1.025 -0.863,0.667 -1.294,1.522 -1.294,2.564 h -5.933 c 0,-1.449 0.48,-2.8 1.441,-4.053 0.96,-1.27 2.262,-2.262 3.906,-2.979 1.66,-0.716 3.507,-1.074 5.542,-1.074 3.092,0 5.558,0.781 7.397,2.344 1.839,1.546 2.783,3.727 2.832,6.543 v 11.914 c 0,2.376 0.334,4.272 1.001,5.688 v 0.415 z m -6.519,-4.272 c 1.172,0 2.271,-0.285 3.296,-0.854 1.042,-0.57 1.823,-1.335 2.344,-2.295 v -4.981 h -3.199 c -2.197,0 -3.849,0.383 -4.956,1.148 -1.106,0.765 -1.66,1.847 -1.66,3.247 0,1.139 0.375,2.05 1.123,2.734 0.765,0.667 1.782,1.001 3.052,1.001 z m 32.593,-2.905 c 0,-1.058 -0.44,-1.864 -1.319,-2.417 -0.862,-0.554 -2.303,-1.042 -4.321,-1.465 -2.018,-0.423 -3.703,-0.96 -5.054,-1.611 -2.962,-1.433 -4.443,-3.508 -4.443,-6.226 0,-2.279 0.96,-4.183 2.881,-5.713 1.92,-1.53 4.362,-2.295 7.324,-2.295 3.158,0 5.705,0.781 7.642,2.344 1.953,1.562 2.929,3.589 2.929,6.079 h -5.932 c 0,-1.139 -0.423,-2.083 -1.27,-2.832 -0.846,-0.765 -1.969,-1.147 -3.369,-1.147 -1.302,0 -2.368,0.301 -3.198,0.903 -0.814,0.602 -1.221,1.408 -1.221,2.417 0,0.911 0.383,1.619 1.148,2.124 0.765,0.504 2.311,1.017 4.638,1.538 2.328,0.505 4.151,1.115 5.469,1.831 1.335,0.7 2.319,1.546 2.954,2.539 0.651,0.993 0.977,2.197 0.977,3.613 0,2.377 -0.985,4.305 -2.954,5.786 -1.97,1.465 -4.55,2.198 -7.74,2.198 -2.164,0 -4.093,-0.391 -5.786,-1.172 -1.692,-0.781 -3.011,-1.856 -3.955,-3.223 -0.944,-1.367 -1.416,-2.84 -1.416,-4.419 h 5.762 c 0.081,1.4 0.61,2.482 1.587,3.247 0.976,0.749 2.27,1.123 3.882,1.123 1.562,0 2.75,-0.293 3.564,-0.879 0.814,-0.602 1.221,-1.383 1.221,-2.343 z M 0,495.64999 v -35.546 h 10.498 c 3.141,0 5.924,0.699 8.35,2.099 2.441,1.4 4.329,3.386 5.664,5.957 1.334,2.572 2.002,5.518 2.002,8.838 v 1.782 c 0,3.369 -0.676,6.332 -2.027,8.887 -1.334,2.555 -3.247,4.525 -5.737,5.908 -2.474,1.384 -5.314,2.075 -8.521,2.075 z m 6.177,-30.566 v 25.635 h 4.028 c 3.239,0 5.721,-1.009 7.446,-3.028 1.742,-2.034 2.629,-4.947 2.661,-8.74 v -1.977 c 0,-3.858 -0.838,-6.804 -2.514,-8.838 -1.677,-2.035 -4.11,-3.052 -7.3,-3.052 z m 41.699,30.566 c -0.26,-0.504 -0.488,-1.326 -0.684,-2.465 -1.888,1.969 -4.199,2.954 -6.933,2.954 -2.653,0 -4.818,-0.757 -6.494,-2.271 -1.677,-1.513 -2.515,-3.385 -2.515,-5.615 0,-2.816 1.042,-4.972 3.125,-6.47 2.1,-1.513 5.094,-2.27 8.984,-2.27 h 3.638 v -1.734 c 0,-1.367 -0.382,-2.457 -1.147,-3.271 -0.765,-0.83 -1.929,-1.245 -3.492,-1.245 -1.351,0 -2.457,0.342 -3.32,1.025 -0.863,0.667 -1.294,1.522 -1.294,2.564 h -5.933 c 0,-1.449 0.481,-2.8 1.441,-4.053 0.96,-1.27 2.262,-2.262 3.906,-2.979 1.66,-0.716 3.508,-1.074 5.542,-1.074 3.093,0 5.558,0.781 7.398,2.344 1.839,1.546 2.783,3.727 2.832,6.543 v 11.914 c 0,2.376 0.333,4.272 1.001,5.688 v 0.415 z m -6.519,-4.272 c 1.172,0 2.271,-0.285 3.296,-0.854 1.042,-0.57 1.823,-1.335 2.344,-2.295 v -4.981 h -3.198 c -2.197,0 -3.85,0.383 -4.956,1.148 -1.107,0.765 -1.66,1.847 -1.66,3.247 0,1.139 0.374,2.05 1.123,2.734 0.765,0.667 1.782,1.001 3.051,1.001 z m 25.22,-28.564 v 6.42 h 4.663 v 4.395 h -4.663 v 14.746 c 0,1.009 0.195,1.742 0.586,2.197 0.407,0.44 1.123,0.66 2.148,0.66 0.684,0 1.376,-0.082 2.076,-0.245 v 4.59 c -1.351,0.375 -2.653,0.562 -3.907,0.562 -4.557,0 -6.836,-2.515 -6.836,-7.544 v -14.966 h -4.345 v -4.395 h 4.345 v -6.42 z m 25,32.836 c -0.26,-0.504 -0.488,-1.326 -0.683,-2.465 -1.889,1.969 -4.2,2.954 -6.934,2.954 -2.653,0 -4.818,-0.757 -6.494,-2.271 -1.677,-1.513 -2.515,-3.385 -2.515,-5.615 0,-2.816 1.042,-4.972 3.125,-6.47 2.1,-1.513 5.095,-2.27 8.984,-2.27 h 3.638 v -1.734 c 0,-1.367 -0.382,-2.457 -1.147,-3.271 -0.765,-0.83 -1.929,-1.245 -3.491,-1.245 -1.351,0 -2.458,0.342 -3.321,1.025 -0.862,0.667 -1.294,1.522 -1.294,2.564 h -5.932 c 0,-1.449 0.48,-2.8 1.44,-4.053 0.96,-1.27 2.262,-2.262 3.906,-2.979 1.66,-0.716 3.508,-1.074 5.542,-1.074 3.093,0 5.559,0.781 7.398,2.344 1.839,1.546 2.783,3.727 2.832,6.543 v 11.914 c 0,2.376 0.333,4.272 1.001,5.688 v 0.415 z m -6.518,-4.272 c 1.171,0 2.27,-0.285 3.295,-0.854 1.042,-0.57 1.823,-1.335 2.344,-2.295 v -4.981 H 87.5 c -2.197,0 -3.849,0.383 -4.956,1.148 -1.107,0.765 -1.66,1.847 -1.66,3.247 0,1.139 0.374,2.05 1.123,2.734 0.765,0.667 1.782,1.001 3.052,1.001 z m 38.842,-10.791 h -14.306 v 15.063 h -6.177 v -35.546 h 22.583 v 4.98 h -16.406 v 10.571 h 14.306 z m 19.629,-5.933 c -0.781,-0.13 -1.587,-0.195 -2.417,-0.195 -2.718,0 -4.549,1.042 -5.493,3.125 v 18.066 h -5.933 v -26.416 h 5.665 l 0.146,2.955 c 1.432,-2.295 3.418,-3.443 5.957,-3.443 0.846,0 1.546,0.114 2.1,0.342 z m 18.799,20.996 c -0.26,-0.504 -0.488,-1.326 -0.684,-2.465 -1.888,1.969 -4.199,2.954 -6.933,2.954 -2.653,0 -4.818,-0.757 -6.494,-2.271 -1.677,-1.513 -2.515,-3.385 -2.515,-5.615 0,-2.816 1.042,-4.972 3.125,-6.47 2.1,-1.513 5.094,-2.27 8.984,-2.27 h 3.638 v -1.734 c 0,-1.367 -0.382,-2.457 -1.147,-3.271 -0.765,-0.83 -1.929,-1.245 -3.492,-1.245 -1.35,0 -2.457,0.342 -3.32,1.025 -0.862,0.667 -1.294,1.522 -1.294,2.564 h -5.932 c 0,-1.449 0.48,-2.8 1.44,-4.053 0.96,-1.27 2.262,-2.262 3.906,-2.979 1.66,-0.716 3.508,-1.074 5.542,-1.074 3.093,0 5.559,0.781 7.398,2.344 1.839,1.546 2.783,3.727 2.832,6.543 v 11.914 c 0,2.376 0.333,4.272 1.001,5.688 v 0.415 z m -6.519,-4.272 c 1.172,0 2.271,-0.285 3.296,-0.854 1.042,-0.57 1.823,-1.335 2.344,-2.295 v -4.981 h -3.198 c -2.197,0 -3.849,0.383 -4.956,1.148 -1.107,0.765 -1.66,1.847 -1.66,3.247 0,1.139 0.374,2.05 1.123,2.734 0.765,0.667 1.782,1.001 3.051,1.001 z m 23.365,-22.144 0.171,2.759 c 1.855,-2.164 4.394,-3.247 7.617,-3.247 3.532,0 5.949,1.351 7.251,4.053 1.92,-2.702 4.622,-4.053 8.105,-4.053 2.914,0 5.078,0.806 6.494,2.417 1.433,1.611 2.165,3.988 2.198,7.129 v 17.358 h -5.933 v -17.187 c 0,-1.676 -0.366,-2.905 -1.099,-3.687 -0.732,-0.781 -1.945,-1.171 -3.637,-1.171 -1.351,0 -2.458,0.366 -3.321,1.098 -0.846,0.716 -1.44,1.66 -1.782,2.832 l 0.025,18.115 h -5.933 v -17.382 c -0.081,-3.109 -1.668,-4.663 -4.761,-4.663 -2.376,0 -4.061,0.968 -5.053,2.905 v 19.14 h -5.933 v -26.416 z m 49.56,26.905 c -3.759,0 -6.811,-1.18 -9.155,-3.54 -2.327,-2.377 -3.491,-5.534 -3.491,-9.473 v -0.732 c 0,-2.637 0.504,-4.989 1.513,-7.056 1.026,-2.083 2.458,-3.703 4.297,-4.858 1.84,-1.156 3.89,-1.734 6.153,-1.734 3.597,0 6.372,1.148 8.325,3.443 1.969,2.294 2.954,5.542 2.954,9.741 v 2.392 H 222.07 c 0.179,2.181 0.904,3.907 2.173,5.176 1.286,1.27 2.897,1.904 4.834,1.904 2.718,0 4.932,-1.098 6.641,-3.295 l 3.198,3.051 c -1.058,1.579 -2.474,2.808 -4.248,3.687 -1.758,0.862 -3.735,1.294 -5.933,1.294 z m -0.708,-22.632 c -1.627,0 -2.946,0.57 -3.955,1.709 -0.993,1.139 -1.627,2.726 -1.904,4.761 h 11.304 v -0.44 c -0.131,-1.985 -0.66,-3.483 -1.587,-4.492 -0.928,-1.025 -2.214,-1.538 -3.858,-1.538 z"
     fill="#1d1d1d"
     id="path2569" />
  <path
     d="m 701.409,330.65099 v -35.547 h 10.49 c 3.14,0 5.93,0.7 8.35,2.099 2.44,1.4 4.33,3.386 5.67,5.957 1.33,2.572 2,5.518 2,8.838 v 1.782 c 0,3.37 -0.68,6.332 -2.03,8.887 -1.33,2.555 -3.24,4.525 -5.73,5.908 -2.48,1.384 -5.32,2.076 -8.53,2.076 z m 6.17,-30.567 v 25.635 h 4.03 c 3.24,0 5.72,-1.009 7.45,-3.027 1.74,-2.035 2.62,-4.948 2.66,-8.741 v -1.977 c 0,-3.858 -0.84,-6.804 -2.52,-8.838 -1.67,-2.035 -4.11,-3.052 -7.3,-3.052 z m 41.7,30.567 c -0.26,-0.505 -0.49,-1.327 -0.68,-2.466 -1.89,1.969 -4.2,2.954 -6.94,2.954 -2.65,0 -4.81,-0.757 -6.49,-2.271 -1.68,-1.513 -2.51,-3.385 -2.51,-5.615 0,-2.816 1.04,-4.972 3.12,-6.47 2.1,-1.513 5.09,-2.27 8.98,-2.27 h 3.64 v -1.734 c 0,-1.367 -0.38,-2.457 -1.15,-3.271 -0.76,-0.83 -1.92,-1.245 -3.49,-1.245 -1.35,0 -2.45,0.342 -3.32,1.025 -0.86,0.668 -1.29,1.522 -1.29,2.564 h -5.93 c 0,-1.449 0.48,-2.8 1.44,-4.053 0.96,-1.27 2.26,-2.262 3.9,-2.979 1.66,-0.716 3.51,-1.074 5.55,-1.074 3.09,0 5.55,0.782 7.39,2.344 1.84,1.546 2.79,3.727 2.83,6.543 v 11.914 c 0,2.376 0.34,4.272 1.01,5.689 v 0.415 z m -6.52,-4.273 c 1.17,0 2.27,-0.285 3.3,-0.854 1.04,-0.57 1.82,-1.335 2.34,-2.295 v -4.981 h -3.2 c -2.19,0 -3.85,0.383 -4.95,1.148 -1.11,0.765 -1.66,1.847 -1.66,3.247 0,1.139 0.37,2.051 1.12,2.734 0.77,0.667 1.78,1.001 3.05,1.001 z m 32.6,-2.905 c 0,-1.058 -0.44,-1.864 -1.32,-2.417 -0.87,-0.554 -2.31,-1.042 -4.32,-1.465 -2.02,-0.423 -3.71,-0.96 -5.06,-1.611 -2.96,-1.433 -4.44,-3.508 -4.44,-6.226 0,-2.279 0.96,-4.183 2.88,-5.713 1.92,-1.53 4.36,-2.295 7.32,-2.295 3.16,0 5.71,0.782 7.65,2.344 1.95,1.563 2.92,3.589 2.92,6.079 h -5.93 c 0,-1.139 -0.42,-2.083 -1.27,-2.832 -0.84,-0.765 -1.97,-1.147 -3.37,-1.147 -1.3,0 -2.36,0.301 -3.19,0.903 -0.82,0.602 -1.23,1.408 -1.23,2.417 0,0.911 0.39,1.619 1.15,2.124 0.77,0.505 2.31,1.017 4.64,1.538 2.33,0.505 4.15,1.115 5.47,1.831 1.33,0.7 2.32,1.546 2.95,2.539 0.65,0.993 0.98,2.197 0.98,3.613 0,2.377 -0.98,4.305 -2.95,5.787 -1.97,1.464 -4.55,2.197 -7.74,2.197 -2.17,0 -4.1,-0.391 -5.79,-1.172 -1.69,-0.781 -3.01,-1.856 -3.95,-3.223 -0.95,-1.367 -1.42,-2.84 -1.42,-4.419 h 5.76 c 0.08,1.4 0.61,2.482 1.59,3.247 0.97,0.749 2.27,1.123 3.88,1.123 1.56,0 2.75,-0.292 3.56,-0.878 0.82,-0.603 1.23,-1.384 1.23,-2.344 z m 19.6,-4.151 -2.64,2.71 v 8.619 h -5.93 v -37.5 h 5.93 v 21.63 l 1.86,-2.319 7.3,-8.227 h 7.13 l -9.82,11.01 10.87,15.406 h -6.86 z m -159.99,70.329 v -35.547 h 10.5 c 3.14,0 5.93,0.7 8.35,2.099 2.44,1.4 4.33,3.386 5.67,5.957 1.33,2.572 2,5.518 2,8.838 v 1.782 c 0,3.37 -0.68,6.332 -2.03,8.887 -1.33,2.555 -3.25,4.525 -5.74,5.908 -2.47,1.384 -5.31,2.076 -8.52,2.076 z m 6.18,-30.567 v 25.635 h 4.03 c 3.24,0 5.72,-1.009 7.45,-3.027 1.74,-2.035 2.62,-4.948 2.66,-8.741 v -1.977 c 0,-3.858 -0.84,-6.804 -2.52,-8.838 -1.67,-2.035 -4.11,-3.052 -7.3,-3.052 z m 41.7,30.567 c -0.26,-0.505 -0.49,-1.327 -0.68,-2.466 -1.89,1.969 -4.2,2.954 -6.94,2.954 -2.65,0 -4.81,-0.757 -6.49,-2.271 -1.68,-1.513 -2.52,-3.385 -2.52,-5.615 0,-2.816 1.05,-4.972 3.13,-6.47 2.1,-1.513 5.09,-2.27 8.98,-2.27 h 3.64 v -1.734 c 0,-1.367 -0.38,-2.457 -1.15,-3.271 -0.76,-0.83 -1.92,-1.245 -3.49,-1.245 -1.35,0 -2.45,0.342 -3.32,1.025 -0.86,0.668 -1.29,1.522 -1.29,2.564 h -5.93 c 0,-1.449 0.48,-2.8 1.44,-4.053 0.96,-1.27 2.26,-2.262 3.9,-2.979 1.66,-0.716 3.51,-1.074 5.54,-1.074 3.1,0 5.56,0.782 7.4,2.344 1.84,1.546 2.79,3.727 2.83,6.543 v 11.914 c 0,2.376 0.34,4.272 1.01,5.689 v 0.415 z m -6.52,-4.273 c 1.17,0 2.27,-0.285 3.3,-0.854 1.04,-0.57 1.82,-1.335 2.34,-2.295 v -4.981 h -3.2 c -2.19,0 -3.85,0.383 -4.95,1.148 -1.11,0.765 -1.66,1.847 -1.66,3.247 0,1.139 0.37,2.051 1.12,2.734 0.77,0.667 1.78,1.001 3.05,1.001 z m 25.22,-28.564 v 6.421 h 4.66 v 4.394 h -4.66 v 14.746 c 0,1.009 0.2,1.742 0.59,2.197 0.4,0.44 1.12,0.66 2.15,0.66 0.68,0 1.37,-0.082 2.07,-0.245 v 4.59 c -1.35,0.375 -2.65,0.562 -3.91,0.562 -4.55,0 -6.83,-2.515 -6.83,-7.544 v -14.966 h -4.35 v -4.394 h 4.35 v -6.421 z m 25,32.837 c -0.26,-0.505 -0.49,-1.327 -0.68,-2.466 -1.89,1.969 -4.2,2.954 -6.94,2.954 -2.65,0 -4.81,-0.757 -6.49,-2.271 -1.68,-1.513 -2.51,-3.385 -2.51,-5.615 0,-2.816 1.04,-4.972 3.12,-6.47 2.1,-1.513 5.09,-2.27 8.98,-2.27 h 3.64 v -1.734 c 0,-1.367 -0.38,-2.457 -1.14,-3.271 -0.77,-0.83 -1.93,-1.245 -3.5,-1.245 -1.35,0 -2.45,0.342 -3.32,1.025 -0.86,0.668 -1.29,1.522 -1.29,2.564 h -5.93 c 0,-1.449 0.48,-2.8 1.44,-4.053 0.96,-1.27 2.26,-2.262 3.9,-2.979 1.66,-0.716 3.51,-1.074 5.55,-1.074 3.09,0 5.55,0.782 7.39,2.344 1.84,1.546 2.79,3.727 2.84,6.543 v 11.914 c 0,2.376 0.33,4.272 1,5.689 v 0.415 z m -6.52,-4.273 c 1.17,0 2.27,-0.285 3.3,-0.854 1.04,-0.57 1.82,-1.335 2.34,-2.295 v -4.981 h -3.2 c -2.19,0 -3.84,0.383 -4.95,1.148 -1.11,0.765 -1.66,1.847 -1.66,3.247 0,1.139 0.37,2.051 1.12,2.734 0.77,0.667 1.78,1.001 3.05,1.001 z m 38.85,-10.791 h -14.31 v 15.064 h -6.18 v -35.547 h 22.59 v 4.98 h -16.41 v 10.571 h 14.31 z m 19.62,-5.933 c -0.78,-0.13 -1.58,-0.195 -2.41,-0.195 -2.72,0 -4.55,1.042 -5.5,3.125 v 18.067 h -5.93 v -26.416 h 5.67 l 0.14,2.954 c 1.43,-2.295 3.42,-3.443 5.96,-3.443 0.85,0 1.55,0.114 2.1,0.342 z m 18.8,20.997 c -0.26,-0.505 -0.48,-1.327 -0.68,-2.466 -1.89,1.969 -4.2,2.954 -6.93,2.954 -2.66,0 -4.82,-0.757 -6.5,-2.271 -1.67,-1.513 -2.51,-3.385 -2.51,-5.615 0,-2.816 1.04,-4.972 3.12,-6.47 2.1,-1.513 5.1,-2.27 8.99,-2.27 h 3.63 v -1.734 c 0,-1.367 -0.38,-2.457 -1.14,-3.271 -0.77,-0.83 -1.93,-1.245 -3.49,-1.245 -1.36,0 -2.46,0.342 -3.32,1.025 -0.87,0.668 -1.3,1.522 -1.3,2.564 h -5.93 c 0,-1.449 0.48,-2.8 1.44,-4.053 0.96,-1.27 2.26,-2.262 3.91,-2.979 1.66,-0.716 3.5,-1.074 5.54,-1.074 3.09,0 5.56,0.782 7.4,2.344 1.83,1.546 2.78,3.727 2.83,6.543 v 11.914 c 0,2.376 0.33,4.272 1,5.689 v 0.415 z m -6.52,-4.273 c 1.18,0 2.28,-0.285 3.3,-0.854 1.04,-0.57 1.82,-1.335 2.34,-2.295 v -4.981 h -3.19 c -2.2,0 -3.85,0.383 -4.96,1.148 -1.11,0.765 -1.66,1.847 -1.66,3.247 0,1.139 0.37,2.051 1.12,2.734 0.77,0.667 1.79,1.001 3.05,1.001 z m 23.37,-22.143 0.17,2.758 c 1.86,-2.164 4.39,-3.247 7.62,-3.247 3.53,0 5.95,1.351 7.25,4.053 1.92,-2.702 4.62,-4.053 8.1,-4.053 2.92,0 5.08,0.806 6.5,2.417 1.43,1.612 2.16,3.988 2.2,7.129 v 17.359 h -5.94 v -17.188 c 0,-1.676 -0.36,-2.905 -1.1,-3.686 -0.73,-0.782 -1.94,-1.172 -3.63,-1.172 -1.35,0 -2.46,0.366 -3.32,1.098 -0.85,0.716 -1.44,1.66 -1.79,2.832 l 0.03,18.116 h -5.93 v -17.383 c -0.09,-3.109 -1.67,-4.663 -4.77,-4.663 -2.37,0 -4.06,0.968 -5.05,2.905 v 19.141 h -5.93 v -26.416 z m 49.56,26.904 c -3.76,0 -6.81,-1.18 -9.16,-3.54 -2.32,-2.377 -3.49,-5.534 -3.49,-9.473 v -0.732 c 0,-2.637 0.51,-4.989 1.52,-7.056 1.02,-2.083 2.45,-3.703 4.29,-4.858 1.84,-1.156 3.89,-1.734 6.16,-1.734 3.59,0 6.37,1.148 8.32,3.443 1.97,2.295 2.96,5.542 2.96,9.741 v 2.392 h -17.27 c 0.18,2.181 0.91,3.907 2.18,5.176 1.28,1.27 2.89,1.905 4.83,1.905 2.72,0 4.93,-1.099 6.64,-3.296 l 3.2,3.051 c -1.06,1.579 -2.47,2.808 -4.25,3.687 -1.76,0.863 -3.73,1.294 -5.93,1.294 z m -0.71,-22.632 c -1.63,0 -2.94,0.57 -3.95,1.709 -1,1.139 -1.63,2.726 -1.91,4.761 h 11.31 v -0.44 c -0.13,-1.985 -0.66,-3.483 -1.59,-4.492 -0.93,-1.025 -2.21,-1.538 -3.86,-1.538 z"
     fill="#1d1d1d"
     id="path2571" />
  <path
     d="m 558.969,11.471993 h 17.11 c 3.86,0 7,3.134 7,7 V 681.13799 c 0,3.866 -3.14,7 -7,7 h -17.11"
     stroke="#62636c"
     stroke-width="4"
     id="path2573" />
  <line
     x1="583.07892"
     y1="347.80499"
     x2="603.96893"
     y2="347.80499"
     stroke="#62636c"
     stroke-width="4"
     id="line2575" />
  <path
     d="m 310.139,537.53799 h -17.101 c -3.866,0 -7,-3.134 -7,-7 v -175.466 c 0,-3.866 3.134,-7 7,-7 h 17.101"
     stroke="#62636c"
     stroke-width="4"
     id="path2577" />
  <line
     x1="286.03799"
     y1="444.80499"
     x2="265.13901"
     y2="444.80499"
     stroke="#62636c"
     stroke-width="4"
     id="line2579" />
</svg>
