<svg id="Layer_1" 
     data-name="Layer 1" 
     xmlns="http://www.w3.org/2000/svg" 
     xmlns:xlink="http://www.w3.org/1999/xlink" 
     viewBox="40 30 470 190">
  <defs>
    <linearGradient id="linear-gradient" x1="195.29" y1="168.44" x2="283.1" y2="168.44" gradientTransform="translate(-67.64 -74.49) rotate(7.91)" gradientUnits="userSpaceOnUse">
      <stop offset="0.01" stop-color="#c7422f" />
      <stop offset="0.37" stop-color="#d46e43" />
      <stop offset="1" stop-color="#eeb575" />
    </linearGradient>
    <linearGradient id="linear-gradient-2" x1="222.57" y1="166.19" x2="262.12" y2="166.19" gradientTransform="translate(-67.64 -74.49) rotate(7.91)" gradientUnits="userSpaceOnUse">
      <stop offset="0.21" stop-color="#cf603b" />
      <stop offset="1" stop-color="#eeb575" />
    </linearGradient>
    <linearGradient id="linear-gradient-3" x1="147.94" y1="170.64" x2="245.1" y2="170.64" xlink:href="#linear-gradient-2" />
  </defs>

  <title>Dask</title>

  <path d="M214.33,85.8h36.1c24.73,0.28,30.29,21.36,30.29,40,0,39.54-20.35,39.14-30.29,39.14h-36.1V85.8Zm34.74,64.52c12.94,0,15.6-11.66,15.6-24.55,0-18.13-6.31-25.38-15.6-25.38h-18.7v49.93h18.7Z" style="fill:#fff" />
  <path d="M311.7,86.08h18.46l27.18,78.84h-17L333.87,147H306.31l-6.92,17.88h-17Zm18.18,47.34-9.09-26.87-10,26.87h19Z" style="fill:#fff" />
  <path d="M364.71,106.58c0-11.68,4.7-20.91,20.54-20.91,7.19,0,27.91,1.13,38.24,3v11.76s-21.49-.8-35.82-0.8c-5.45,0-6.91,3.45-6.91,7.19v5.89c0,6.07,2.67,6.19,6.91,6.19h20.61c14,0,18.95,8.92,18.95,20v7.75c0,15.95-9.55,19.64-18.95,19.64-6.58,0-35.16-.8-40.53-3.24V151.58s23.47,0.61,37.14.61c4.9,0,6.29-5.82,6.29-5.82v-7c0-4-1.56-5.91-6.29-5.91H384.76c-14.5,0-20.05-6.54-20.05-19.81v-7.1Z" style="fill:#fff" />
  <path d="M438.85,86.08h15.56v33.19h8.64l22.75-33.19h18.67l-27.35,40.11,27.35,38.87H485.81l-23-31.67h-8.37v31.67H438.85v-79Z" style="fill:#fff" />
  <path d="M192.41,110.26q0.17-1.83.29-3.66a119.55,119.55,0,0,0-12.24-60.92L173.64,32l-3.16,15a109,109,0,0,1-64.2,77.79l-4.69,2,1.78,4.78a107.9,107.9,0,0,1,6.31,48.3A109.44,109.44,0,0,1,104,205.75L100.36,216l10.28-3.38A119.71,119.71,0,0,0,192.41,110.26ZM122.68,196l-5.48,2.79,1.2-6a120.35,120.35,0,0,0,1.75-12,118.87,118.87,0,0,0-4.52-45.89l-0.73-2.41,2.25-1.12A120.24,120.24,0,0,0,173.4,72.22l3.51-8L179,72.7a107.63,107.63,0,0,1,2.69,36.54A108.48,108.48,0,0,1,122.68,196Z" style="fill:url(#linear-gradient)" />
  <path d="M166.91,116.14c4.13-9.12,8.42-31.77,8.15-33.46A126,126,0,0,1,160,105.07c-0.85,2.24-1.74,4.47-2.74,6.67h0a108.87,108.87,0,0,1-31.62,40.47q0.85,6.14,1.07,12.36A119.4,119.4,0,0,0,166.91,116.14Z" style="fill:url(#linear-gradient-2)" />
  <path d="M104.08,165.48a109,109,0,0,1-30.87,9.17l-6.08.86,3.08-5.31a120.74,120.74,0,0,0,5.54-10.74,118.79,118.79,0,0,0,10.62-44.87l0.09-2.51,2.49-.33a120.18,120.18,0,0,0,54-21.47A102.79,102.79,0,0,0,161.57,56.9a109,109,0,0,1-80.84,45l-5.08.35,0.13,5.1a107.92,107.92,0,0,1-9.72,47.73,109.43,109.43,0,0,1-13.83,22.67l-6.71,8.49,10.82,0.14a119.25,119.25,0,0,0,47.52-9.26A104.21,104.21,0,0,0,104.08,165.48Z" style="fill:url(#linear-gradient-3)" />
</svg>
