<?xml version="1.0" encoding="utf-8"?>
<!-- Generator: Adobe Illustrator 26.0.3, SVG Export Plug-In . SVG Version: 6.00 Build 0)  -->
<svg version="1.1" id="Layer_1" xmlns="http://www.w3.org/2000/svg" xmlns:xlink="http://www.w3.org/1999/xlink" x="0px" y="0px"
	 viewBox="0 0 1055.69 386.2" style="enable-background:new 0 0 1055.69 386.2;" xml:space="preserve">
<style type="text/css">
	.st0{fill:#FFC11E;}
	.st1{fill:#04255C;}
	.st2{fill:#FC6E6B;}
	.st3{fill:#FFFFFF;}
	.st4{fill:#EF1161;}
</style>
<g>
	<path class="st0" d="M80.26,127.85l83.89-48.41c0.83-0.48,1.34-1.36,1.34-2.32l0.01-29.03c0-4.3-1.77-8.55-5.19-11.15
		c-4.44-3.36-10.13-3.68-14.81-0.98L28.14,103.68c-4.13,2.38-6.67,6.78-6.67,11.55l-0.04,152.93c0,4.29,1.76,8.55,5.18,11.15
		c4.43,3.36,10.14,3.7,14.82,0.99l24.85-14.34c0.83-0.48,1.34-1.36,1.34-2.32l0.03-113.97C67.66,140.66,72.46,132.35,80.26,127.85z"
		/>
	<path class="st4" d="M281.36,105.91c-2.09-1.21-4.38-1.81-6.67-1.81c-2.29,0-4.58,0.6-6.67,1.81l-117.36,67.71
		c-4.11,2.37-6.67,6.8-6.67,11.55l-0.04,153.51c0,4.82,2.49,9.14,6.67,11.55c4.18,2.41,9.16,2.41,13.34,0l117.36-67.72
		c4.11-2.37,6.67-6.8,6.67-11.55l0.05-153.51C288.03,112.64,285.54,108.32,281.36,105.91z"/>
	<path class="st2" d="M144.75,163.35l77.44-44.68c0.83-0.48,1.34-1.36,1.34-2.32l0.01-33.81c0-4.3-1.77-8.56-5.19-11.15
		c-4.44-3.36-10.13-3.68-14.81-0.98l-32.12,18.53l-85.23,49.18c-4.13,2.38-6.67,6.78-6.67,11.55l-0.03,115.52l-0.01,37.41
		c0,4.29,1.76,8.55,5.18,11.15c4.43,3.37,10.14,3.69,14.82,0.99l31.3-18.06c0.83-0.48,1.34-1.36,1.34-2.32l0.03-109.19
		C132.15,176.16,136.95,167.85,144.75,163.35z"/>
	<g>
		<path class="st3" d="M375.2,224.47v-46.46c0-39.87,23.54-67.18,59.02-67.18c25.43,0,42.38,13.18,49.28,25.43V52.12
			c0-2.2,1.26-4.08,4.08-4.08h30.77c2.51,0,4.08,1.89,4.08,4.08v231.06c0,2.51-1.57,4.08-4.39,4.08h-29.2
			c-2.51,0-4.08-1.57-4.08-4.08V265.6c-7.22,12.24-24.49,25.12-48.98,25.12C398.43,290.72,375.2,264.35,375.2,224.47z
			 M483.51,218.82v-35.16c0-24.49-16.01-38.61-35.79-38.61c-21.98,0-33.59,14.44-33.59,38.61v35.16c0,24.49,11.62,37.67,33.59,37.67
			C467.5,256.5,483.51,243.31,483.51,218.82z"/>
		<path class="st3" d="M692.59,167.65v115.22c0,2.83-1.57,4.4-4.4,4.4h-27.63c-2.82,0-4.39-1.57-4.39-4.4v-20.41
			c-10.67,17.27-28.26,28.26-49.6,28.26c-32.65,0-53.37-21.35-53.37-52.43c0-31.39,20.72-49.6,65.93-52.74
			c12.24-0.94,23.86-0.94,35.48-0.31v-16.01c0-19.46-10.67-27.31-28.57-27.31c-17.9,0-24.49,6.59-28.88,18.84
			c-1.26,3.45-2.51,4.08-5.97,3.14l-27.31-6.91c-2.83-0.94-3.77-2.51-2.83-5.02c5.03-24.49,27.31-41.44,66.56-41.44
			C668.1,110.51,692.59,129.67,692.59,167.65z M654.6,231.38v-21.35c-10.99-0.31-21.66-0.31-32.34,0.63
			c-20.41,2.2-32.03,9.1-32.03,25.43c0,14.13,9.73,23.23,26.37,23.23C634.19,259.32,647.69,248.96,654.6,231.38z"/>
		<path class="st3" d="M856.45,151.33c0.94,2.82,0,5.02-3.14,5.96l-22.92,8.16c-3.45,0.94-5.02,0-5.96-3.14
			c-5.03-14.13-16.33-21.03-33.28-21.03c-17.58,0-27.94,7.22-27.94,18.52c0,10.67,7.22,15.07,40.5,24.49
			c39.24,10.99,54.94,26.37,54.94,53.69c0,32.02-26.37,53.06-66.87,53.06c-36.42,0-62.79-15.07-70.95-40.81
			c-1.26-3.45,0-5.34,3.77-6.91L745,233.27c3.77-1.26,5.65-0.63,6.91,3.77c4.71,14.44,19.46,23.23,38.61,23.23
			c19.46,0,30.77-7.54,30.77-19.78c0-11.3-9.42-17.27-42.07-26.37c-37.67-10.67-53.37-25.43-53.37-51.8
			c0-31.08,25.43-51.8,64.04-51.8C823.81,110.51,848.29,125.58,856.45,151.33z"/>
		<path class="st3" d="M1030.37,287.26h-32.97c-3.14,0-4.39-1.26-5.65-3.77l-39.24-72.21l-23.55,27.63v43.95
			c0,2.83-1.57,4.4-4.39,4.4h-30.14c-2.82,0-4.39-1.57-4.39-4.4V52.12c0-2.51,1.57-4.4,4.39-4.4h30.14c2.82,0,4.39,1.89,4.39,4.4
			V191.2l59.02-72.84c2.83-3.14,5.03-4.4,8.79-4.4h31.71c3.77,0,4.71,3.77,2.83,5.97l-52.75,61.22l54.94,100.15
			C1035.39,284.44,1033.51,287.26,1030.37,287.26z"/>
	</g>
</g>
</svg>
