<svg id="Layer_1" 
     data-name="Layer 1"  
     xmlns="http://www.w3.org/2000/svg"
     xmlns:xlink="http://www.w3.org/1999/xlink" 
     viewBox="80 55 300 380">
  <defs>
    <linearGradient id="linear-gradient" 
                    x1="244.57" y1="186.17" x2="415.51" y2="186.17" 
                    gradientTransform="translate(-18.34 16.11) rotate(7.91)" 
                    gradientUnits="userSpaceOnUse">
      <stop offset="0.01" stop-color="#c7422f"/>
      <stop offset="0.37" stop-color="#d46e43"/>
      <stop offset="1.00" stop-color="#eeb575"/>
    </linearGradient>
    <linearGradient id="linear-gradient-2" 
                    x1="297.68" y1="181.79" x2="374.68" y2="181.79"
                    gradientTransform="translate(-18.34 16.11) rotate(7.91)"
                    gradientUnits="userSpaceOnUse">
      <stop offset="0.21" stop-color="#cf603b"/>
      <stop offset="1" stop-color="#eeb575"/>
    </linearGradient>
    <linearGradient id="linear-gradient-3" 
                    x1="152.4" y1="190.46" x2="341.55" y2="190.46"
                    xlink:href="#linear-gradient-2"/>
  </defs>

  <title>Dask</title>

  <path d="M373.09,216.74q0.33-3.56.56-7.12A232.73,232.73,0,0,0,349.81,91L336.54,64.38l-6.15,29.14a212.21,212.21,0,0,1-125,151.43l-9.13,3.86,3.46,9.3a210,210,0,0,1,12.29,94,213,213,0,0,1-11.13,50.49l-7,19.87,20-6.58A233,233,0,0,0,373.09,216.74ZM237.35,383.64l-10.66,5.43L229,377.34a234.27,234.27,0,0,0,3.41-23.27,231.39,231.39,0,0,0-8.81-89.33l-1.41-4.69,4.37-2.18A234.07,234.07,0,0,0,336.06,142.69l6.83-15.58,4.12,16.5a209.52,209.52,0,0,1,5.23,71.12A211.17,211.17,0,0,1,237.35,383.64Z"
        style="fill:url(#linear-gradient)"/>
  <path d="M323.44,228.19c8-17.75,16.39-61.85,15.86-65.14a245.35,245.35,0,0,1-29.41,43.59c-1.65,4.37-3.39,8.7-5.33,13h0A211.92,211.92,0,0,1,243,298.41q1.65,11.94,2.09,24.05A232.43,232.43,0,0,0,323.44,228.19Z"
        style="fill:url(#linear-gradient-2)"/>
  <path d="M201.14,324.23a212.21,212.21,0,0,1-60.09,17.84l-11.83,1.67,6-10.33A235,235,0,0,0,146,312.5a231.24,231.24,0,0,0,20.68-87.35l0.18-4.89,4.85-.65a234,234,0,0,0,105.16-41.79,200.09,200.09,0,0,0,36.17-65,212.27,212.27,0,0,1-157.36,87.56l-9.89.69L146,211a210.08,210.08,0,0,1-18.92,92.92,213,213,0,0,1-26.92,44.14L87.13,364.6l21.07,0.28a232.13,232.13,0,0,0,92.5-18A202.86,202.86,0,0,0,201.14,324.23Z"
        style="fill:url(#linear-gradient-3)"/>
</svg>
