<svg id="Layer_1" data-name="Layer 1" xmlns="http://www.w3.org/2000/svg" xmlns:xlink="http://www.w3.org/1999/xlink" viewBox="0 0 550 550"><defs><linearGradient id="linear-gradient" x1="296.2" y1="319.82" x2="441.92" y2="319.82" gradientTransform="translate(1.21 -158.79) rotate(7.91)" gradientUnits="userSpaceOnUse"><stop offset="0.01" stop-color="#c7422f"/><stop offset="0.37" stop-color="#d46e43"/><stop offset="1" stop-color="#eeb575"/></linearGradient><linearGradient id="linear-gradient-2" x1="341.47" y1="316.08" x2="407.11" y2="316.08" gradientTransform="translate(1.21 -158.79) rotate(7.91)" gradientUnits="userSpaceOnUse"><stop offset="0.21" stop-color="#cf603b"/><stop offset="1" stop-color="#eeb575"/></linearGradient><linearGradient id="linear-gradient-3" x1="217.62" y1="323.48" x2="378.87" y2="323.48" xlink:href="#linear-gradient-2"/></defs><title>dask</title><path d="M110,387h41.84c28.67,0.32,35.11,24.76,35.11,46.33,0,45.83-23.58,45.37-35.11,45.37H110V387Zm40.27,74.79c15,0,18.08-13.51,18.08-28.46,0-21-7.31-29.42-18.08-29.42H128.61v57.87h21.68Z" style="fill:#101011"/><path d="M222.87,387.35h21.4l31.5,91.38H256.06L248.57,458h-32l-8,20.72H188.89Zm21.07,54.87-10.53-31.14-11.54,31.14h22.07Z" style="fill:#101011"/><path d="M284.31,411.11c0-13.54,5.44-24.24,23.81-24.24,8.34,0,32.35,1.31,44.33,3.49V404s-24.91-.92-41.52-0.92c-6.32,0-8,4-8,8.33v6.82c0,7,3.09,7.17,8,7.17h23.89c16.25,0,22,10.34,22,23.21v9c0,18.48-11.07,22.76-22,22.76-7.63,0-40.76-.93-47-3.75V463.28s27.21,0.71,43,.71c5.68,0,7.29-6.75,7.29-6.75v-8.08c0-4.6-1.81-6.85-7.29-6.85H307.56c-16.81,0-23.25-7.58-23.25-23v-8.22Z" style="fill:#101011"/><path d="M370.25,387.35h18v38.48h10l26.37-38.48h21.64l-31.7,46.49,31.7,45H424.68L398,442.18h-9.7V478.9h-18V387.35Z" style="fill:#101011"/><path d="M399.6,183.88q0.28-3,.48-6.07A198.39,198.39,0,0,0,379.76,76.73L368.44,54,363.2,78.84A180.9,180.9,0,0,1,256.66,207.93l-7.79,3.29,2.95,7.93a179.06,179.06,0,0,1,10.47,80.15,181.61,181.61,0,0,1-9.49,43l-6,16.94,17.06-5.61A198.65,198.65,0,0,0,399.6,183.88ZM283.89,326.16l-9.09,4.63,2-10A199.71,199.71,0,0,0,279.7,301a197.25,197.25,0,0,0-7.51-76.15l-1.21-4,3.73-1.86A199.53,199.53,0,0,0,368,120.76l5.82-13.28,3.51,14.07A181,181,0,0,1,283.89,326.16Z" style="fill:url(#linear-gradient)"/><path d="M357.28,193.64c6.86-15.13,14-52.72,13.52-55.53a209.15,209.15,0,0,1-25.07,37.16c-1.4,3.72-2.89,7.42-4.55,11.07h0a180.66,180.66,0,0,1-52.48,67.16q1.4,10.18,1.78,20.51A198.14,198.14,0,0,0,357.28,193.64Z" style="fill:url(#linear-gradient-2)"/><path d="M253,275.51a180.9,180.9,0,0,1-51.22,15.21l-10.09,1.42,5.11-8.81A200.36,200.36,0,0,0,206,265.52a197.12,197.12,0,0,0,17.63-74.46l0.15-4.17,4.13-.55a199.43,199.43,0,0,0,89.65-35.62,170.57,170.57,0,0,0,30.83-55.38A181,181,0,0,1,214.28,170l-8.43.58,0.22,8.46a179.08,179.08,0,0,1-16.13,79.21,181.59,181.59,0,0,1-23,37.63l-11.14,14.08,18,0.24a197.88,197.88,0,0,0,78.85-15.37A172.93,172.93,0,0,0,253,275.51Z" style="fill:url(#linear-gradient-3)"/></svg>
