<svg id="Layer_1" data-name="Layer 1" xmlns="http://www.w3.org/2000/svg" viewBox="0 0 1055.69 386.2">
  <g>
    <path d="M80.51,127.89l83.85-48.38a2.69,2.69,0,0,0,1.34-2.32v-29A13.89,13.89,0,0,0,160.52,37a13.21,13.21,0,0,0-14.8-1L28.43,103.73a13.32,13.32,0,0,0-6.67,11.54l0,152.84a13.91,13.91,0,0,0,5.17,11.14,13.23,13.23,0,0,0,14.82,1l24.84-14.33a2.68,2.68,0,0,0,1.34-2.32l0-113.9A25.16,25.16,0,0,1,80.51,127.89Z" fill="#ffc11e"/>
    <path d="M281.51,106a13.21,13.21,0,0,0-13.33,0L150.89,173.63a13.36,13.36,0,0,0-6.67,11.54l-.05,153.42a13.34,13.34,0,0,0,20,11.55l117.28-67.68a13.34,13.34,0,0,0,6.67-11.54l.05-153.42A13.19,13.19,0,0,0,281.51,106Z" fill="#ef1161"/>
    <path d="M145,163.36l77.4-44.65a2.7,2.7,0,0,0,1.33-2.32V82.6a13.86,13.86,0,0,0-5.19-11.15,13.25,13.25,0,0,0-14.8-1L171.62,89,86.43,138.15a13.33,13.33,0,0,0-6.66,11.54l0,115.45,0,37.39a13.89,13.89,0,0,0,5.18,11.14,13.25,13.25,0,0,0,14.81,1L131,296.61a2.68,2.68,0,0,0,1.34-2.32l0-109.12A25.17,25.17,0,0,1,145,163.36Z" fill="#fc6e6b"/>
    <g>
      <path d="M375.29,224.46V178c0-39.85,23.53-67.14,59-67.14,25.41,0,42.36,13.17,49.25,25.41V52.2a3.79,3.79,0,0,1,4.09-4.08h30.75a4,4,0,0,1,4.07,4.08V283.13c0,2.51-1.57,4.08-4.39,4.08H488.87a3.79,3.79,0,0,1-4.08-4.08V265.56c-7.21,12.24-24.47,25.1-48.94,25.1C398.51,290.66,375.29,264.31,375.29,224.46Zm108.24-5.65V183.67c0-24.47-16-38.59-35.76-38.59-22,0-33.57,14.43-33.57,38.59v35.14c0,24.47,11.61,37.65,33.57,37.65C467.54,256.46,483.53,243.28,483.53,218.81Z" fill="#04255c"/>
      <path d="M692.49,167.67V282.82c0,2.82-1.57,4.39-4.39,4.39H660.48c-2.82,0-4.39-1.57-4.39-4.39v-20.4c-10.66,17.26-28.24,28.24-49.57,28.24-32.63,0-53.34-21.33-53.34-52.4,0-31.37,20.71-49.57,65.89-52.71a268.17,268.17,0,0,1,35.46-.31v-16c0-19.46-10.67-27.3-28.56-27.3s-24.47,6.59-28.86,18.82c-1.26,3.45-2.51,4.08-6,3.14L563.85,157c-2.83-.94-3.77-2.51-2.83-5,5-24.48,27.3-41.42,66.52-41.42C668,110.56,692.49,129.7,692.49,167.67Zm-38,63.69V210a275.38,275.38,0,0,0-32.32.62c-20.4,2.2-32,9.1-32,25.42,0,14.12,9.73,23.21,26.36,23.21C634.13,259.28,647.62,248.93,654.53,231.36Z" fill="#04255c"/>
      <path d="M856.27,151.35c.94,2.82,0,5-3.14,6l-22.91,8.16c-3.45.94-5,0-6-3.14-5-14.12-16.31-21-33.25-21-17.58,0-27.93,7.22-27.93,18.51,0,10.67,7.21,15.06,40.47,24.47,39.23,11,54.91,26.36,54.91,53.66,0,32-26.35,53-66.83,53-36.4,0-62.75-15.06-70.91-40.79-1.26-3.45,0-5.34,3.77-6.91l20.39-10c3.76-1.25,5.65-.62,6.9,3.77,4.71,14.43,19.46,23.22,38.59,23.22,19.46,0,30.76-7.53,30.76-19.77,0-11.3-9.42-17.26-42-26.36-37.65-10.67-53.34-25.41-53.34-51.77,0-31.06,25.42-51.77,64-51.77C823.64,110.56,848.11,125.62,856.27,151.35Z" fill="#04255c"/>
      <path d="M1030.09,287.21H997.14c-3.14,0-4.39-1.25-5.65-3.76l-39.22-72.17-23.54,27.61v43.93c0,2.82-1.56,4.39-4.39,4.39H894.22c-2.82,0-4.39-1.57-4.39-4.39V52.2a4.11,4.11,0,0,1,4.39-4.39h30.12a4.11,4.11,0,0,1,4.39,4.39v139l59-72.8c2.83-3.13,5-4.39,8.79-4.39h31.69a3.53,3.53,0,0,1,2.83,6l-52.72,61.19,54.91,100.09C1035.1,284.39,1033.22,287.21,1030.09,287.21Z" fill="#04255c"/>
    </g>
  </g>
</svg>
