<?xml version="1.0" encoding="utf-8"?>
<!-- Generator: Adobe Illustrator 26.0.3, SVG Export Plug-In . SVG Version: 6.00 Build 0)  -->
<svg version="1.1" id="Layer_1" xmlns="http://www.w3.org/2000/svg" xmlns:xlink="http://www.w3.org/1999/xlink" x="0px" y="0px"
	 viewBox="0 0 512 512" style="enable-background:new 0 0 512 512;" xml:space="preserve">
<style type="text/css">
	.st0{fill:#FFC11E;}
	.st1{fill:#04255C;}
	.st2{fill:#FC6E6B;}
	.st3{fill:#FFFFFF;}
	.st4{fill:#EF1161;}
</style>
<g>
	<path class="st3" d="M143.6,157.73l126.42-73.12c1.25-0.72,2.02-2.06,2.02-3.5l-0.03-43.77c0-6.48-2.68-12.9-7.85-16.8
		c-6.69-5.05-15.28-5.54-22.33-1.46L64.99,121.37c-6.22,3.6-10.05,10.24-10.04,17.42l0.18,230.59c0,6.47,2.67,12.89,7.83,16.8
		c6.69,5.07,15.29,5.56,22.35,1.47l37.45-21.66c1.25-0.72,2.02-2.06,2.02-3.5l-0.13-171.85
		C124.63,177.07,131.86,164.53,143.6,157.73z"/>
	<path class="st3" d="M446.81,124.33c-3.15-1.82-6.61-2.72-10.06-2.72c-3.45,0-6.9,0.92-10.05,2.74L249.85,226.63
		c-6.2,3.58-10.05,10.26-10.04,17.42l0.18,231.47c0.01,7.27,3.77,13.78,10.07,17.41c6.3,3.63,13.82,3.63,20.11-0.02l176.85-102.29
		c6.2-3.59,10.05-10.26,10.04-17.42l-0.17-231.47C456.87,134.47,453.11,127.96,446.81,124.33z"/>
	<path class="st3" d="M240.9,211.16l116.7-67.5c1.25-0.72,2.02-2.06,2.02-3.5l-0.04-50.98c0-6.48-2.68-12.9-7.85-16.8
		c-6.69-5.05-15.28-5.54-22.33-1.45l-48.41,28l-128.44,74.29c-6.22,3.6-10.05,10.24-10.04,17.42l0.13,174.18l0.04,56.41
		c0,6.48,2.67,12.89,7.83,16.8c6.69,5.07,15.29,5.55,22.35,1.47l47.17-27.29c1.25-0.72,2.02-2.06,2.02-3.5l-0.13-164.64
		C221.92,230.5,229.15,217.95,240.9,211.16z"/>
</g>
</svg>
