<svg width="1920" height="1080" viewBox="0 0 1920 1080" fill="none" xmlns="http://www.w3.org/2000/svg">
<rect x="249.547" y="192.194" width="314.95" height="136.308" rx="8" fill="#FFF7E6" stroke="#FE6939" stroke-width="4"/>
<rect x="588.445" y="192.194" width="100.601" height="136.308" rx="8" fill="#FFF7E6" stroke="#FE6939" stroke-width="4"/>
<rect x="712.995" y="192.194" width="124.878" height="136.308" rx="8" fill="#FFF7E6" stroke="#FE6939" stroke-width="4"/>
<rect x="861.823" y="192.194" width="178.935" height="136.308" rx="8" fill="#FFF7E6" stroke="#FE6939" stroke-width="4"/>
<rect x="1064.71" y="192.194" width="157.184" height="136.308" rx="8" fill="#FFF7E6" stroke="#FE6939" stroke-width="4"/>
<rect x="249.547" y="565.379" width="314.95" height="136.308" rx="8" fill="#FFF7E6" stroke="#FE6939" stroke-width="4"/>
<rect x="588.445" y="565.379" width="100.601" height="136.308" rx="8" fill="#FFF7E6" stroke="#FE6939" stroke-width="4"/>
<rect x="712.995" y="565.379" width="124.878" height="136.308" rx="8" fill="#FFF7E6" stroke="#FE6939" stroke-width="4"/>
<rect x="861.823" y="565.379" width="178.935" height="136.308" rx="8" fill="#FFF7E6" stroke="#FE6939" stroke-width="4"/>
<rect x="1064.71" y="565.379" width="157.184" height="136.308" rx="8" fill="#FFF7E6" stroke="#FE6939" stroke-width="4"/>
<rect x="249.547" y="351.121" width="314.95" height="191.639" rx="8" fill="#FFF7E6" stroke="#FE6939" stroke-width="4"/>
<rect x="588.445" y="351.121" width="100.601" height="191.639" rx="8" fill="#FFF7E6" stroke="#FE6939" stroke-width="4"/>
<rect x="712.995" y="351.121" width="124.878" height="191.639" rx="8" fill="#FFF7E6" stroke="#FE6939" stroke-width="4"/>
<rect x="861.823" y="351.121" width="178.935" height="191.639" rx="8" fill="#FFF7E6" stroke="#FE6939" stroke-width="4"/>
<rect x="1064.71" y="351.121" width="157.184" height="191.639" rx="8" fill="#FDD3A6" stroke="#FE6939" stroke-width="4"/>
<rect x="249.547" y="724.306" width="314.95" height="163.499" rx="8" fill="#FFF7E6" stroke="#FE6939" stroke-width="4"/>
<rect x="588.445" y="724.306" width="100.601" height="163.499" rx="8" fill="#FFF7E6" stroke="#FE6939" stroke-width="4"/>
<rect x="712.995" y="724.306" width="124.878" height="163.499" rx="8" fill="#FFF7E6" stroke="#FE6939" stroke-width="4"/>
<rect x="861.823" y="724.306" width="178.935" height="163.499" rx="8" fill="#FFF7E6" stroke="#FE6939" stroke-width="4"/>
<rect x="1064.71" y="724.306" width="157.184" height="163.499" rx="8" fill="#FFF7E6" stroke="#FE6939" stroke-width="4"/>
<line x1="1089.63" y1="351.866" x2="1089.63" y2="544.76" stroke="#FE6939" stroke-width="4"/>
<line x1="1116.36" y1="351.866" x2="1116.36" y2="544.76" stroke="#FE6939" stroke-width="4"/>
<line x1="1143.08" y1="351.866" x2="1143.08" y2="544.76" stroke="#FE6939" stroke-width="4"/>
<line x1="1169.81" y1="351.866" x2="1169.81" y2="544.76" stroke="#FE6939" stroke-width="4"/>
<line x1="1196.54" y1="351.866" x2="1196.54" y2="544.76" stroke="#FE6939" stroke-width="4"/>
<line x1="1223.89" y1="389.101" x2="1062.71" y2="389.101" stroke="#FE6939" stroke-width="4"/>
<line x1="1223.89" y1="427.545" x2="1062.71" y2="427.545" stroke="#FE6939" stroke-width="4"/>
<line x1="1223.89" y1="465.988" x2="1062.71" y2="465.988" stroke="#FE6939" stroke-width="4"/>
<line x1="1223.89" y1="504.431" x2="1062.71" y2="504.431" stroke="#FE6939" stroke-width="4"/>
<path d="M1353.74 433.431H1347.56L1331.72 408.212V433.431H1325.54V397.884H1331.72L1347.61 423.202V397.884H1353.74V433.431ZM1376.47 430.843C1374.73 432.894 1372.26 433.92 1369.05 433.92C1366.18 433.92 1364.01 433.081 1362.53 431.405C1361.07 429.728 1360.33 427.303 1360.33 424.13V407.015H1366.27V424.056C1366.27 427.409 1367.66 429.086 1370.44 429.086C1373.32 429.086 1375.27 428.052 1376.28 425.985V407.015H1382.21V433.431H1376.62L1376.47 430.843ZM1393.83 407.015L1394 409.774C1395.86 407.609 1398.39 406.527 1401.62 406.527C1405.15 406.527 1407.57 407.878 1408.87 410.58C1410.79 407.878 1413.49 406.527 1416.97 406.527C1419.89 406.527 1422.05 407.333 1423.47 408.944C1424.9 410.555 1425.63 412.932 1425.67 416.073V433.431H1419.73V416.244C1419.73 414.567 1419.37 413.339 1418.63 412.557C1417.9 411.776 1416.69 411.385 1415 411.385C1413.65 411.385 1412.54 411.752 1411.68 412.484C1410.83 413.2 1410.24 414.144 1409.89 415.316L1409.92 433.431H1403.99V416.048C1403.9 412.94 1402.32 411.385 1399.22 411.385C1396.85 411.385 1395.16 412.354 1394.17 414.291V433.431H1388.24V407.015H1393.83ZM1438.51 420.223V433.431H1432.33V397.884H1445.93C1449.9 397.884 1453.05 398.918 1455.38 400.985C1457.72 403.052 1458.89 405.786 1458.89 409.188C1458.89 412.671 1457.75 415.381 1455.45 417.318C1453.17 419.255 1449.97 420.223 1445.86 420.223H1438.51ZM1438.51 415.267H1445.93C1448.13 415.267 1449.8 414.755 1450.96 413.729C1452.11 412.687 1452.69 411.19 1452.69 409.237C1452.69 407.316 1452.11 405.786 1450.93 404.647C1449.76 403.491 1448.15 402.897 1446.1 402.865H1438.51V415.267ZM1473.37 424.935L1478.74 407.015H1485.06L1474.57 437.435C1472.96 441.879 1470.22 444.1 1466.36 444.1C1465.5 444.1 1464.55 443.954 1463.51 443.661V439.071L1464.63 439.144C1466.13 439.144 1467.25 438.867 1468 438.314C1468.76 437.777 1469.37 436.866 1469.81 435.58L1470.66 433.309L1461.38 407.015H1467.78L1473.37 424.935ZM1367.83 484.155H1354.06L1351.18 492.431H1344.76L1358.18 456.884H1363.73L1377.18 492.431H1370.73L1367.83 484.155ZM1355.79 479.174H1366.09L1360.94 464.428L1355.79 479.174ZM1394.49 471.435C1393.71 471.305 1392.9 471.24 1392.07 471.24C1389.35 471.24 1387.52 472.282 1386.58 474.365V492.431H1380.65V466.015H1386.31L1386.46 468.969C1387.89 466.674 1389.87 465.527 1392.41 465.527C1393.26 465.527 1393.96 465.641 1394.51 465.869L1394.49 471.435ZM1412.07 471.435C1411.29 471.305 1410.48 471.24 1409.65 471.24C1406.93 471.24 1405.1 472.282 1404.16 474.365V492.431H1398.22V466.015H1403.89L1404.03 468.969C1405.47 466.674 1407.45 465.527 1409.99 465.527C1410.84 465.527 1411.54 465.641 1412.09 465.869L1412.07 471.435ZM1430.87 492.431C1430.6 491.927 1430.38 491.105 1430.18 489.965C1428.29 491.935 1425.98 492.92 1423.25 492.92C1420.6 492.92 1418.43 492.163 1416.75 490.649C1415.08 489.135 1414.24 487.264 1414.24 485.034C1414.24 482.218 1415.28 480.061 1417.36 478.564C1419.46 477.05 1422.46 476.294 1426.35 476.294H1429.99V474.56C1429.99 473.193 1429.6 472.102 1428.84 471.289C1428.07 470.459 1426.91 470.044 1425.35 470.044C1424 470.044 1422.89 470.385 1422.03 471.069C1421.16 471.736 1420.73 472.591 1420.73 473.632H1414.8C1414.8 472.184 1415.28 470.833 1416.24 469.58C1417.2 468.31 1418.5 467.317 1420.15 466.601C1421.81 465.885 1423.66 465.527 1425.69 465.527C1428.78 465.527 1431.25 466.308 1433.09 467.871C1434.93 469.417 1435.87 471.598 1435.92 474.414V486.328C1435.92 488.704 1436.25 490.6 1436.92 492.016V492.431H1430.87ZM1424.35 488.159C1425.52 488.159 1426.62 487.874 1427.64 487.304C1428.68 486.735 1429.47 485.97 1429.99 485.009V480.029H1426.79C1424.59 480.029 1422.94 480.411 1421.83 481.176C1420.73 481.941 1420.17 483.024 1420.17 484.423C1420.17 485.563 1420.55 486.474 1421.3 487.158C1422.06 487.825 1423.08 488.159 1424.35 488.159ZM1450.98 483.935L1456.35 466.015H1462.68L1452.18 496.435C1450.57 500.879 1447.83 503.1 1443.98 503.1C1443.11 503.1 1442.16 502.954 1441.12 502.661V498.071L1442.24 498.144C1443.74 498.144 1444.86 497.867 1445.61 497.314C1446.38 496.777 1446.98 495.866 1447.42 494.58L1448.27 492.309L1439 466.015H1445.39L1450.98 483.935Z" fill="#1D1D1D"/>
<path d="M1607.19 568.26V532.713H1617.69C1620.83 532.713 1623.61 533.413 1626.04 534.813C1628.48 536.212 1630.37 538.198 1631.7 540.77C1633.04 543.341 1633.7 546.287 1633.7 549.608V551.39C1633.7 554.759 1633.03 557.721 1631.68 560.277C1630.34 562.832 1628.43 564.801 1625.94 566.185C1623.47 567.568 1620.63 568.26 1617.42 568.26H1607.19ZM1613.37 537.694V563.328H1617.4C1620.64 563.328 1623.12 562.319 1624.84 560.301C1626.58 558.267 1627.47 555.353 1627.5 551.561V549.583C1627.5 545.726 1626.67 542.78 1624.99 540.745C1623.31 538.711 1620.88 537.694 1617.69 537.694H1613.37ZM1655.07 568.26C1654.81 567.755 1654.58 566.934 1654.38 565.794C1652.5 567.764 1650.18 568.748 1647.45 568.748C1644.8 568.748 1642.63 567.991 1640.96 566.478C1639.28 564.964 1638.44 563.092 1638.44 560.863C1638.44 558.047 1639.48 555.89 1641.57 554.393C1643.67 552.879 1646.66 552.122 1650.55 552.122H1654.19V550.389C1654.19 549.022 1653.81 547.931 1653.04 547.117C1652.28 546.287 1651.11 545.872 1649.55 545.872C1648.2 545.872 1647.09 546.214 1646.23 546.898C1645.37 547.565 1644.94 548.42 1644.94 549.461H1639C1639 548.013 1639.48 546.662 1640.44 545.408C1641.4 544.139 1642.71 543.146 1644.35 542.43C1646.01 541.714 1647.86 541.356 1649.89 541.356C1652.98 541.356 1655.45 542.137 1657.29 543.699C1659.13 545.246 1660.07 547.427 1660.12 550.242V562.156C1660.12 564.533 1660.45 566.429 1661.12 567.845V568.26H1655.07ZM1648.55 563.988C1649.72 563.988 1650.82 563.703 1651.84 563.133C1652.89 562.563 1653.67 561.798 1654.19 560.838V555.858H1650.99C1648.79 555.858 1647.14 556.24 1646.03 557.005C1644.93 557.77 1644.37 558.852 1644.37 560.252C1644.37 561.392 1644.75 562.303 1645.5 562.987C1646.26 563.654 1647.28 563.988 1648.55 563.988ZM1681.14 561.082C1681.14 560.024 1680.7 559.219 1679.82 558.665C1678.96 558.112 1677.52 557.624 1675.5 557.2C1673.48 556.777 1671.8 556.24 1670.45 555.589C1667.49 554.157 1666 552.082 1666 549.364C1666 547.085 1666.96 545.181 1668.89 543.651C1670.81 542.121 1673.25 541.356 1676.21 541.356C1679.37 541.356 1681.91 542.137 1683.85 543.699C1685.8 545.262 1686.78 547.288 1686.78 549.779H1680.85C1680.85 548.639 1680.43 547.695 1679.58 546.947C1678.73 546.182 1677.61 545.799 1676.21 545.799C1674.91 545.799 1673.84 546.1 1673.01 546.702C1672.2 547.305 1671.79 548.11 1671.79 549.119C1671.79 550.031 1672.17 550.739 1672.94 551.243C1673.7 551.748 1675.25 552.261 1677.58 552.781C1679.9 553.286 1681.73 553.896 1683.05 554.613C1684.38 555.312 1685.36 556.159 1686 557.152C1686.65 558.144 1686.98 559.349 1686.98 560.765C1686.98 563.141 1685.99 565.07 1684.02 566.551C1682.05 568.016 1679.47 568.748 1676.28 568.748C1674.12 568.748 1672.19 568.358 1670.5 567.576C1668.8 566.795 1667.49 565.721 1666.54 564.354C1665.6 562.987 1665.13 561.514 1665.13 559.935H1670.89C1670.97 561.335 1671.5 562.417 1672.47 563.182C1673.45 563.931 1674.74 564.305 1676.36 564.305C1677.92 564.305 1679.11 564.012 1679.92 563.426C1680.73 562.824 1681.14 562.043 1681.14 561.082ZM1700.75 556.932L1698.11 559.642V568.26H1692.18V530.76H1698.11V552.391L1699.96 550.072L1707.26 541.844H1714.39L1704.58 552.855L1715.44 568.26H1708.58L1700.75 556.932ZM1623.55 618.984H1609.78L1606.9 627.26H1600.48L1613.9 591.713H1619.45L1632.9 627.26H1626.45L1623.55 618.984ZM1611.51 614.003H1621.82L1616.66 599.257L1611.51 614.003ZM1650.21 606.264C1649.43 606.134 1648.62 606.069 1647.79 606.069C1645.07 606.069 1643.24 607.11 1642.3 609.194V627.26H1636.37V600.844H1642.03L1642.18 603.798C1643.61 601.503 1645.59 600.356 1648.13 600.356C1648.98 600.356 1649.68 600.47 1650.23 600.698L1650.21 606.264ZM1667.79 606.264C1667.01 606.134 1666.2 606.069 1665.37 606.069C1662.65 606.069 1660.82 607.11 1659.88 609.194V627.26H1653.94V600.844H1659.61L1659.75 603.798C1661.19 601.503 1663.17 600.356 1665.71 600.356C1666.56 600.356 1667.26 600.47 1667.81 600.698L1667.79 606.264ZM1686.59 627.26C1686.33 626.755 1686.1 625.934 1685.9 624.794C1684.01 626.764 1681.7 627.748 1678.97 627.748C1676.32 627.748 1674.15 626.991 1672.47 625.478C1670.8 623.964 1669.96 622.092 1669.96 619.863C1669.96 617.047 1671 614.89 1673.08 613.393C1675.18 611.879 1678.18 611.122 1682.07 611.122H1685.71V609.389C1685.71 608.022 1685.32 606.931 1684.56 606.117C1683.79 605.287 1682.63 604.872 1681.07 604.872C1679.72 604.872 1678.61 605.214 1677.75 605.898C1676.89 606.565 1676.45 607.42 1676.45 608.461H1670.52C1670.52 607.013 1671 605.662 1671.96 604.408C1672.92 603.139 1674.22 602.146 1675.87 601.43C1677.53 600.714 1679.38 600.356 1681.41 600.356C1684.5 600.356 1686.97 601.137 1688.81 602.699C1690.65 604.246 1691.59 606.427 1691.64 609.242V621.156C1691.64 623.533 1691.97 625.429 1692.64 626.845V627.26H1686.59ZM1680.07 622.988C1681.24 622.988 1682.34 622.703 1683.36 622.133C1684.4 621.563 1685.19 620.798 1685.71 619.838V614.858H1682.51C1680.31 614.858 1678.66 615.24 1677.55 616.005C1676.45 616.77 1675.89 617.852 1675.89 619.252C1675.89 620.392 1676.27 621.303 1677.02 621.987C1677.78 622.654 1678.8 622.988 1680.07 622.988ZM1706.7 618.764L1712.07 600.844H1718.4L1707.9 631.264C1706.29 635.707 1703.55 637.929 1699.7 637.929C1698.83 637.929 1697.88 637.782 1696.84 637.49V632.9L1697.96 632.973C1699.46 632.973 1700.58 632.696 1701.33 632.143C1702.1 631.606 1702.7 630.694 1703.14 629.408L1703.99 627.138L1694.72 600.844H1701.11L1706.7 618.764Z" fill="#1D1D1D"/>
<path d="M1530.34 201.473H1547.45C1551.31 201.473 1554.45 204.607 1554.45 208.473V871.139C1554.45 875.005 1551.31 878.139 1547.45 878.139H1530.34" stroke="#D2D0CC" stroke-width="4"/>
<line x1="1554.45" y1="537.806" x2="1575.34" y2="537.806" stroke="#D2D0CC" stroke-width="4"/>
<path d="M1258 355.132H1275.1C1278.97 355.132 1282.1 358.266 1282.1 362.132V537.599C1282.1 541.465 1278.97 544.599 1275.1 544.599H1258" stroke="#D2D0CC" stroke-width="4"/>
<line x1="1282.1" y1="447.866" x2="1303" y2="447.866" stroke="#D2D0CC" stroke-width="4"/>
</svg>
