<?xml version="1.0" encoding="utf-8"?>
<!-- Generator: Adobe Illustrator 26.0.3, SVG Export Plug-In . SVG Version: 6.00 Build 0)  -->
<svg version="1.1" id="Layer_1" xmlns="http://www.w3.org/2000/svg" xmlns:xlink="http://www.w3.org/1999/xlink" x="0px" y="0px"
	 viewBox="0 0 1055.69 386.2" style="enable-background:new 0 0 1055.69 386.2;" xml:space="preserve">
<style type="text/css">
	.st0{fill:#FFC11E;}
	.st1{fill:#04255C;}
	.st2{fill:#FC6E6B;}
	.st3{fill:#FFFFFF;}
	.st4{fill:#EF1161;}
</style>
<g>
	<path d="M80.51,127.89l83.85-48.38c0.83-0.48,1.34-1.36,1.34-2.32l0.01-29.01c0-4.29-1.76-8.55-5.19-11.14
		c-4.43-3.35-10.12-3.68-14.8-0.98L28.43,103.73c-4.12,2.38-6.67,6.78-6.67,11.54l-0.04,152.84c0,4.29,1.76,8.54,5.18,11.14
		c4.43,3.36,10.13,3.69,14.81,0.99l24.84-14.33c0.83-0.48,1.34-1.36,1.34-2.32l0.03-113.91C67.92,140.69,72.72,132.38,80.51,127.89z
		"/>
	<path d="M281.51,105.96c-2.09-1.21-4.38-1.81-6.67-1.81c-2.29,0-4.58,0.6-6.66,1.81l-117.29,67.68c-4.11,2.37-6.67,6.79-6.67,11.54
		l-0.04,153.42c0,4.82,2.49,9.14,6.66,11.55c4.17,2.41,9.16,2.41,13.33,0l117.29-67.68c4.11-2.37,6.67-6.79,6.67-11.54l0.05-153.42
		C288.17,112.68,285.68,108.37,281.51,105.96z"/>
	<path d="M144.97,163.36l77.4-44.66c0.83-0.48,1.34-1.36,1.34-2.32l0.01-33.79c0-4.3-1.77-8.55-5.19-11.14
		c-4.43-3.35-10.12-3.68-14.8-0.98L171.62,89l-85.19,49.15c-4.12,2.38-6.67,6.78-6.67,11.54l-0.03,115.45l-0.01,37.39
		c0,4.29,1.76,8.55,5.18,11.14c4.43,3.36,10.13,3.69,14.81,0.99L131,296.61c0.83-0.48,1.34-1.36,1.34-2.32l0.03-109.12
		C132.37,176.17,137.17,167.86,144.97,163.36z"/>
	<path d="M375.29,224.46v-46.44c0-39.85,23.53-67.14,58.99-67.14c25.41,0,42.36,13.18,49.26,25.41V52.2c0-2.2,1.26-4.08,4.08-4.08
		h30.75c2.51,0,4.08,1.88,4.08,4.08v230.93c0,2.51-1.57,4.08-4.39,4.08h-29.18c-2.51,0-4.08-1.57-4.08-4.08v-17.57
		c-7.22,12.24-24.48,25.1-48.95,25.1C398.51,290.66,375.29,264.3,375.29,224.46z M483.53,218.81v-35.14
		c0-24.47-16-38.59-35.77-38.59c-21.96,0-33.57,14.43-33.57,38.59v35.14c0,24.47,11.61,37.65,33.57,37.65
		C467.54,256.46,483.53,243.28,483.53,218.81z"/>
	<path d="M692.49,167.67v115.15c0,2.83-1.57,4.39-4.4,4.39h-27.61c-2.82,0-4.39-1.57-4.39-4.39v-20.39
		c-10.67,17.26-28.24,28.24-49.58,28.24c-32.63,0-53.34-21.34-53.34-52.4c0-31.38,20.71-49.58,65.89-52.71
		c12.24-0.94,23.85-0.94,35.46-0.31v-16c0-19.45-10.67-27.3-28.55-27.3c-17.89,0-24.48,6.59-28.87,18.83
		c-1.25,3.45-2.51,4.08-5.96,3.14l-27.29-6.9c-2.83-0.94-3.77-2.51-2.83-5.02c5.02-24.47,27.3-41.42,66.52-41.42
		C668.02,110.56,692.49,129.7,692.49,167.67z M654.53,231.36v-21.34c-10.98-0.31-21.65-0.31-32.32,0.63
		c-20.39,2.2-32.01,9.1-32.01,25.41c0,14.12,9.73,23.22,26.36,23.22C634.13,259.28,647.62,248.93,654.53,231.36z"/>
	<path d="M856.27,151.35c0.94,2.82,0,5.02-3.14,5.96l-22.91,8.16c-3.45,0.94-5.02,0-5.96-3.14c-5.02-14.12-16.32-21.02-33.26-21.02
		c-17.57,0-27.93,7.22-27.93,18.51c0,10.67,7.21,15.06,40.48,24.47c39.22,10.98,54.91,26.36,54.91,53.65
		c0,32.01-26.35,53.03-66.83,53.03c-36.4,0-62.76-15.06-70.91-40.79c-1.26-3.45,0-5.33,3.76-6.9l20.39-10.04
		c3.76-1.25,5.65-0.63,6.9,3.77c4.7,14.43,19.45,23.22,38.59,23.22c19.45,0,30.75-7.53,30.75-19.77c0-11.3-9.41-17.26-42.05-26.36
		c-37.65-10.67-53.34-25.41-53.34-51.77c0-31.06,25.42-51.77,64.01-51.77C823.64,110.56,848.11,125.62,856.27,151.35z"/>
	<path d="M1030.09,287.21h-32.95c-3.14,0-4.39-1.25-5.64-3.77l-39.22-72.17l-23.54,27.61v43.93c0,2.83-1.57,4.39-4.39,4.39h-30.12
		c-2.82,0-4.39-1.57-4.39-4.39V52.2c0-2.51,1.57-4.39,4.39-4.39h30.12c2.82,0,4.39,1.88,4.39,4.39v139l58.99-72.79
		c2.83-3.14,5.02-4.39,8.79-4.39h31.69c3.77,0,4.71,3.77,2.83,5.96l-52.72,61.18l54.91,100.09
		C1035.1,284.39,1033.22,287.21,1030.09,287.21z"/>
</g>
</svg>
