<?xml version="1.0" encoding="UTF-8" standalone="no"?>
<!DOCTYPE svg PUBLIC "-//W3C//DTD SVG 1.1//EN"
 "http://www.w3.org/Graphics/SVG/1.1/DTD/svg11.dtd">
<!-- Generated by graphviz version 2.38.0 (20140413.2041)
 -->
<!-- Title: %3 Pages: 1 -->
<svg width="813pt" height="464pt"
 viewBox="0.00 0.00 813.00 463.69" xmlns="http://www.w3.org/2000/svg" xmlns:xlink="http://www.w3.org/1999/xlink">
<g id="graph0" class="graph" transform="scale(1 1) rotate(0) translate(4 459.685)">
<title>%3</title>
<polygon fill="white" stroke="none" points="-4,4 -4,-459.685 809,-459.685 809,4 -4,4"/>
<!-- 1458014055779299329 -->
<g id="node1" class="node"><title>1458014055779299329</title>
<polygon fill="none" stroke="black" points="805,-140.894 734,-140.894 734,-104.894 805,-104.894 805,-140.894"/>
<text text-anchor="middle" x="769.5" y="-119.194" font-family="Times,serif" font-size="14.00">double&#45;#0</text>
</g>
<!-- 2049265477069956274 -->
<g id="node4" class="node"><title>2049265477069956274</title>
<ellipse fill="none" stroke="black" cx="688.5" cy="-200.292" rx="23.2963" ry="23.2963"/>
<text text-anchor="middle" x="688.5" y="-196.592" font-family="Times,serif" font-size="14.00">add</text>
</g>
<!-- 1458014055779299329&#45;&gt;2049265477069956274 -->
<g id="edge3" class="edge"><title>1458014055779299329&#45;&gt;2049265477069956274</title>
<path fill="none" stroke="black" d="M751.12,-141.003C739.678,-151.653 724.839,-165.466 712.478,-176.972"/>
<polygon fill="black" stroke="black" points="710.089,-174.414 705.154,-183.789 714.859,-179.538 710.089,-174.414"/>
</g>
<!-- 6701054586395645232 -->
<g id="node2" class="node"><title>6701054586395645232</title>
<ellipse fill="none" stroke="black" cx="769.5" cy="-34.4469" rx="34.394" ry="34.394"/>
<text text-anchor="middle" x="769.5" y="-30.7469" font-family="Times,serif" font-size="14.00">double</text>
</g>
<!-- 6701054586395645232&#45;&gt;1458014055779299329 -->
<g id="edge1" class="edge"><title>6701054586395645232&#45;&gt;1458014055779299329</title>
<path fill="none" stroke="black" d="M769.5,-69.1171C769.5,-77.5557 769.5,-86.5057 769.5,-94.5916"/>
<polygon fill="black" stroke="black" points="766,-94.6078 769.5,-104.608 773,-94.6079 766,-94.6078"/>
</g>
<!-- &#45;2663340490572826749 -->
<g id="node3" class="node"><title>&#45;2663340490572826749</title>
<polygon fill="none" stroke="black" points="660.5,-295.69 606.5,-295.69 606.5,-259.69 660.5,-259.69 660.5,-295.69"/>
<text text-anchor="middle" x="633.5" y="-273.99" font-family="Times,serif" font-size="14.00">add&#45;#1</text>
</g>
<!-- 5459913405674845445 -->
<g id="node28" class="node"><title>5459913405674845445</title>
<ellipse fill="none" stroke="black" cx="396.5" cy="-357.687" rx="25.9954" ry="25.9954"/>
<text text-anchor="middle" x="396.5" y="-353.987" font-family="Times,serif" font-size="14.00">sum</text>
</g>
<!-- &#45;2663340490572826749&#45;&gt;5459913405674845445 -->
<g id="edge23" class="edge"><title>&#45;2663340490572826749&#45;&gt;5459913405674845445</title>
<path fill="none" stroke="black" d="M606.313,-287.637C562.951,-301.908 478.2,-329.8 430.756,-345.413"/>
<polygon fill="black" stroke="black" points="429.632,-342.099 421.227,-348.55 431.82,-348.748 429.632,-342.099"/>
</g>
<!-- 2049265477069956274&#45;&gt;&#45;2663340490572826749 -->
<g id="edge2" class="edge"><title>2049265477069956274&#45;&gt;&#45;2663340490572826749</title>
<path fill="none" stroke="black" d="M675.186,-219.544C668.232,-229.077 659.61,-240.896 652.016,-251.307"/>
<polygon fill="black" stroke="black" points="649.003,-249.498 645.937,-259.64 654.658,-253.623 649.003,-249.498"/>
</g>
<!-- &#45;4985944494202966629 -->
<g id="node5" class="node"><title>&#45;4985944494202966629</title>
<polygon fill="none" stroke="black" points="715.5,-140.894 661.5,-140.894 661.5,-104.894 715.5,-104.894 715.5,-140.894"/>
<text text-anchor="middle" x="688.5" y="-119.194" font-family="Times,serif" font-size="14.00">inc&#45;#2</text>
</g>
<!-- &#45;4985944494202966629&#45;&gt;2049265477069956274 -->
<g id="edge4" class="edge"><title>&#45;4985944494202966629&#45;&gt;2049265477069956274</title>
<path fill="none" stroke="black" d="M688.5,-141.003C688.5,-148.623 688.5,-157.861 688.5,-166.716"/>
<polygon fill="black" stroke="black" points="685,-166.813 688.5,-176.814 692,-166.814 685,-166.813"/>
</g>
<!-- 4444290810974576327 -->
<g id="node6" class="node"><title>4444290810974576327</title>
<polygon fill="none" stroke="black" points="188.5,-295.69 134.5,-295.69 134.5,-259.69 188.5,-259.69 188.5,-295.69"/>
<text text-anchor="middle" x="161.5" y="-273.99" font-family="Times,serif" font-size="14.00">add&#45;#3</text>
</g>
<!-- 4444290810974576327&#45;&gt;5459913405674845445 -->
<g id="edge26" class="edge"><title>4444290810974576327&#45;&gt;5459913405674845445</title>
<path fill="none" stroke="black" d="M188.917,-287.79C232.006,-302.091 315.488,-329.799 362.39,-345.366"/>
<polygon fill="black" stroke="black" points="361.5,-348.758 372.093,-348.587 363.705,-342.115 361.5,-348.758"/>
</g>
<!-- &#45;7395553549245320242 -->
<g id="node7" class="node"><title>&#45;7395553549245320242</title>
<ellipse fill="none" stroke="black" cx="116.5" cy="-200.292" rx="23.2963" ry="23.2963"/>
<text text-anchor="middle" x="116.5" y="-196.592" font-family="Times,serif" font-size="14.00">add</text>
</g>
<!-- &#45;7395553549245320242&#45;&gt;4444290810974576327 -->
<g id="edge5" class="edge"><title>&#45;7395553549245320242&#45;&gt;4444290810974576327</title>
<path fill="none" stroke="black" d="M128.089,-220.709C133.591,-229.929 140.243,-241.074 146.158,-250.985"/>
<polygon fill="black" stroke="black" points="143.199,-252.855 151.329,-259.648 149.21,-249.268 143.199,-252.855"/>
</g>
<!-- 8285413665155640955 -->
<g id="node8" class="node"><title>8285413665155640955</title>
<polygon fill="none" stroke="black" points="71,-140.894 0,-140.894 0,-104.894 71,-104.894 71,-140.894"/>
<text text-anchor="middle" x="35.5" y="-119.194" font-family="Times,serif" font-size="14.00">double&#45;#4</text>
</g>
<!-- 8285413665155640955&#45;&gt;&#45;7395553549245320242 -->
<g id="edge6" class="edge"><title>8285413665155640955&#45;&gt;&#45;7395553549245320242</title>
<path fill="none" stroke="black" d="M53.8802,-141.003C65.3217,-151.653 80.1609,-165.466 92.5219,-176.972"/>
<polygon fill="black" stroke="black" points="90.1412,-179.538 99.8456,-183.789 94.9106,-174.414 90.1412,-179.538"/>
</g>
<!-- &#45;5052693257052651058 -->
<g id="node9" class="node"><title>&#45;5052693257052651058</title>
<polygon fill="none" stroke="black" points="143.5,-140.894 89.5,-140.894 89.5,-104.894 143.5,-104.894 143.5,-140.894"/>
<text text-anchor="middle" x="116.5" y="-119.194" font-family="Times,serif" font-size="14.00">inc&#45;#5</text>
</g>
<!-- &#45;5052693257052651058&#45;&gt;&#45;7395553549245320242 -->
<g id="edge7" class="edge"><title>&#45;5052693257052651058&#45;&gt;&#45;7395553549245320242</title>
<path fill="none" stroke="black" d="M116.5,-141.003C116.5,-148.623 116.5,-157.861 116.5,-166.716"/>
<polygon fill="black" stroke="black" points="113,-166.813 116.5,-176.814 120,-166.814 113,-166.813"/>
</g>
<!-- 3948720209280600008 -->
<g id="node10" class="node"><title>3948720209280600008</title>
<polygon fill="none" stroke="black" points="567,-140.894 496,-140.894 496,-104.894 567,-104.894 567,-140.894"/>
<text text-anchor="middle" x="531.5" y="-119.194" font-family="Times,serif" font-size="14.00">double&#45;#6</text>
</g>
<!-- &#45;498744703366429471 -->
<g id="node31" class="node"><title>&#45;498744703366429471</title>
<ellipse fill="none" stroke="black" cx="531.5" cy="-200.292" rx="23.2963" ry="23.2963"/>
<text text-anchor="middle" x="531.5" y="-196.592" font-family="Times,serif" font-size="14.00">add</text>
</g>
<!-- 3948720209280600008&#45;&gt;&#45;498744703366429471 -->
<g id="edge29" class="edge"><title>3948720209280600008&#45;&gt;&#45;498744703366429471</title>
<path fill="none" stroke="black" d="M531.5,-141.003C531.5,-148.623 531.5,-157.861 531.5,-166.716"/>
<polygon fill="black" stroke="black" points="528,-166.813 531.5,-176.814 535,-166.814 528,-166.813"/>
</g>
<!-- &#45;8005224606849766411 -->
<g id="node11" class="node"><title>&#45;8005224606849766411</title>
<ellipse fill="none" stroke="black" cx="531.5" cy="-34.4469" rx="34.394" ry="34.394"/>
<text text-anchor="middle" x="531.5" y="-30.7469" font-family="Times,serif" font-size="14.00">double</text>
</g>
<!-- &#45;8005224606849766411&#45;&gt;3948720209280600008 -->
<g id="edge8" class="edge"><title>&#45;8005224606849766411&#45;&gt;3948720209280600008</title>
<path fill="none" stroke="black" d="M531.5,-69.1171C531.5,-77.5557 531.5,-86.5057 531.5,-94.5916"/>
<polygon fill="black" stroke="black" points="528,-94.6078 531.5,-104.608 535,-94.6079 528,-94.6078"/>
</g>
<!-- 542416636597761034 -->
<g id="node12" class="node"><title>542416636597761034</title>
<polygon fill="none" stroke="black" points="326.5,-295.69 272.5,-295.69 272.5,-259.69 326.5,-259.69 326.5,-295.69"/>
<text text-anchor="middle" x="299.5" y="-273.99" font-family="Times,serif" font-size="14.00">add&#45;#7</text>
</g>
<!-- 542416636597761034&#45;&gt;5459913405674845445 -->
<g id="edge22" class="edge"><title>542416636597761034&#45;&gt;5459913405674845445</title>
<path fill="none" stroke="black" d="M321.027,-296C335.061,-307.285 353.513,-322.122 368.659,-334.3"/>
<polygon fill="black" stroke="black" points="366.698,-337.215 376.684,-340.754 371.084,-331.759 366.698,-337.215"/>
</g>
<!-- 957714430942449007 -->
<g id="node13" class="node"><title>957714430942449007</title>
<ellipse fill="none" stroke="black" cx="278.5" cy="-200.292" rx="23.2963" ry="23.2963"/>
<text text-anchor="middle" x="278.5" y="-196.592" font-family="Times,serif" font-size="14.00">add</text>
</g>
<!-- 957714430942449007&#45;&gt;542416636597761034 -->
<g id="edge9" class="edge"><title>957714430942449007&#45;&gt;542416636597761034</title>
<path fill="none" stroke="black" d="M284.574,-223.1C286.873,-231.353 289.517,-240.849 291.936,-249.533"/>
<polygon fill="black" stroke="black" points="288.583,-250.538 294.638,-259.232 295.326,-248.66 288.583,-250.538"/>
</g>
<!-- 6610071032423609008 -->
<g id="node14" class="node"><title>6610071032423609008</title>
<polygon fill="none" stroke="black" points="233,-140.894 162,-140.894 162,-104.894 233,-104.894 233,-140.894"/>
<text text-anchor="middle" x="197.5" y="-119.194" font-family="Times,serif" font-size="14.00">double&#45;#8</text>
</g>
<!-- 6610071032423609008&#45;&gt;957714430942449007 -->
<g id="edge10" class="edge"><title>6610071032423609008&#45;&gt;957714430942449007</title>
<path fill="none" stroke="black" d="M215.88,-141.003C227.322,-151.653 242.161,-165.466 254.522,-176.972"/>
<polygon fill="black" stroke="black" points="252.141,-179.538 261.846,-183.789 256.911,-174.414 252.141,-179.538"/>
</g>
<!-- &#45;396791374205749251 -->
<g id="node15" class="node"><title>&#45;396791374205749251</title>
<polygon fill="none" stroke="black" points="305.5,-140.894 251.5,-140.894 251.5,-104.894 305.5,-104.894 305.5,-140.894"/>
<text text-anchor="middle" x="278.5" y="-119.194" font-family="Times,serif" font-size="14.00">inc&#45;#9</text>
</g>
<!-- &#45;396791374205749251&#45;&gt;957714430942449007 -->
<g id="edge11" class="edge"><title>&#45;396791374205749251&#45;&gt;957714430942449007</title>
<path fill="none" stroke="black" d="M278.5,-141.003C278.5,-148.623 278.5,-157.861 278.5,-166.716"/>
<polygon fill="black" stroke="black" points="275,-166.813 278.5,-176.814 282,-166.814 275,-166.813"/>
</g>
<!-- &#45;4262554210423640405 -->
<g id="node16" class="node"><title>&#45;4262554210423640405</title>
<ellipse fill="none" stroke="black" cx="116.5" cy="-34.4469" rx="21.3963" ry="21.3963"/>
<text text-anchor="middle" x="116.5" y="-30.7469" font-family="Times,serif" font-size="14.00">inc</text>
</g>
<!-- &#45;4262554210423640405&#45;&gt;&#45;5052693257052651058 -->
<g id="edge12" class="edge"><title>&#45;4262554210423640405&#45;&gt;&#45;5052693257052651058</title>
<path fill="none" stroke="black" d="M116.5,-55.9337C116.5,-67.4415 116.5,-81.9552 116.5,-94.4365"/>
<polygon fill="black" stroke="black" points="113,-94.755 116.5,-104.755 120,-94.7551 113,-94.755"/>
</g>
<!-- 8517388458569052054 -->
<g id="node17" class="node"><title>8517388458569052054</title>
<polygon fill="none" stroke="black" points="381.5,-140.894 323.5,-140.894 323.5,-104.894 381.5,-104.894 381.5,-140.894"/>
<text text-anchor="middle" x="352.5" y="-119.194" font-family="Times,serif" font-size="14.00">inc&#45;#10</text>
</g>
<!-- 7791591925678556540 -->
<g id="node26" class="node"><title>7791591925678556540</title>
<ellipse fill="none" stroke="black" cx="396.5" cy="-200.292" rx="23.2963" ry="23.2963"/>
<text text-anchor="middle" x="396.5" y="-196.592" font-family="Times,serif" font-size="14.00">add</text>
</g>
<!-- 8517388458569052054&#45;&gt;7791591925678556540 -->
<g id="edge20" class="edge"><title>8517388458569052054&#45;&gt;7791591925678556540</title>
<path fill="none" stroke="black" d="M362.484,-141.003C367.609,-149.785 373.989,-160.717 379.834,-170.733"/>
<polygon fill="black" stroke="black" points="376.937,-172.714 385.001,-179.587 382.983,-169.186 376.937,-172.714"/>
</g>
<!-- 2929596393616219699 -->
<g id="node18" class="node"><title>2929596393616219699</title>
<ellipse fill="none" stroke="black" cx="352.5" cy="-34.4469" rx="21.3963" ry="21.3963"/>
<text text-anchor="middle" x="352.5" y="-30.7469" font-family="Times,serif" font-size="14.00">inc</text>
</g>
<!-- 2929596393616219699&#45;&gt;8517388458569052054 -->
<g id="edge13" class="edge"><title>2929596393616219699&#45;&gt;8517388458569052054</title>
<path fill="none" stroke="black" d="M352.5,-55.9337C352.5,-67.4415 352.5,-81.9552 352.5,-94.4365"/>
<polygon fill="black" stroke="black" points="349,-94.755 352.5,-104.755 356,-94.7551 349,-94.755"/>
</g>
<!-- 6414158183690305625 -->
<g id="node19" class="node"><title>6414158183690305625</title>
<polygon fill="none" stroke="black" points="477.5,-140.894 399.5,-140.894 399.5,-104.894 477.5,-104.894 477.5,-140.894"/>
<text text-anchor="middle" x="438.5" y="-119.194" font-family="Times,serif" font-size="14.00">double&#45;#11</text>
</g>
<!-- 6414158183690305625&#45;&gt;7791591925678556540 -->
<g id="edge19" class="edge"><title>6414158183690305625&#45;&gt;7791591925678556540</title>
<path fill="none" stroke="black" d="M428.97,-141.003C424.078,-149.785 417.988,-160.717 412.408,-170.733"/>
<polygon fill="black" stroke="black" points="409.286,-169.147 407.477,-179.587 415.401,-172.554 409.286,-169.147"/>
</g>
<!-- &#45;4928746311088754872 -->
<g id="node20" class="node"><title>&#45;4928746311088754872</title>
<ellipse fill="none" stroke="black" cx="438.5" cy="-34.4469" rx="34.394" ry="34.394"/>
<text text-anchor="middle" x="438.5" y="-30.7469" font-family="Times,serif" font-size="14.00">double</text>
</g>
<!-- &#45;4928746311088754872&#45;&gt;6414158183690305625 -->
<g id="edge14" class="edge"><title>&#45;4928746311088754872&#45;&gt;6414158183690305625</title>
<path fill="none" stroke="black" d="M438.5,-69.1171C438.5,-77.5557 438.5,-86.5057 438.5,-94.5916"/>
<polygon fill="black" stroke="black" points="435,-94.6078 438.5,-104.608 442,-94.6079 435,-94.6078"/>
</g>
<!-- &#45;7692825099134127446 -->
<g id="node21" class="node"><title>&#45;7692825099134127446</title>
<ellipse fill="none" stroke="black" cx="688.5" cy="-34.4469" rx="21.3963" ry="21.3963"/>
<text text-anchor="middle" x="688.5" y="-30.7469" font-family="Times,serif" font-size="14.00">inc</text>
</g>
<!-- &#45;7692825099134127446&#45;&gt;&#45;4985944494202966629 -->
<g id="edge15" class="edge"><title>&#45;7692825099134127446&#45;&gt;&#45;4985944494202966629</title>
<path fill="none" stroke="black" d="M688.5,-55.9337C688.5,-67.4415 688.5,-81.9552 688.5,-94.4365"/>
<polygon fill="black" stroke="black" points="685,-94.755 688.5,-104.755 692,-94.7551 685,-94.755"/>
</g>
<!-- 8866146705477033254 -->
<g id="node22" class="node"><title>8866146705477033254</title>
<polygon fill="none" stroke="black" points="643.5,-140.894 585.5,-140.894 585.5,-104.894 643.5,-104.894 643.5,-140.894"/>
<text text-anchor="middle" x="614.5" y="-119.194" font-family="Times,serif" font-size="14.00">inc&#45;#12</text>
</g>
<!-- 8866146705477033254&#45;&gt;&#45;498744703366429471 -->
<g id="edge30" class="edge"><title>8866146705477033254&#45;&gt;&#45;498744703366429471</title>
<path fill="none" stroke="black" d="M595.666,-141.003C583.942,-151.653 568.736,-165.466 556.07,-176.972"/>
<polygon fill="black" stroke="black" points="553.614,-174.475 548.566,-183.789 558.321,-179.656 553.614,-174.475"/>
</g>
<!-- &#45;3118011605129036509 -->
<g id="node23" class="node"><title>&#45;3118011605129036509</title>
<ellipse fill="none" stroke="black" cx="614.5" cy="-34.4469" rx="21.3963" ry="21.3963"/>
<text text-anchor="middle" x="614.5" y="-30.7469" font-family="Times,serif" font-size="14.00">inc</text>
</g>
<!-- &#45;3118011605129036509&#45;&gt;8866146705477033254 -->
<g id="edge16" class="edge"><title>&#45;3118011605129036509&#45;&gt;8866146705477033254</title>
<path fill="none" stroke="black" d="M614.5,-55.9337C614.5,-67.4415 614.5,-81.9552 614.5,-94.4365"/>
<polygon fill="black" stroke="black" points="611,-94.755 614.5,-104.755 618,-94.7551 611,-94.755"/>
</g>
<!-- &#45;1402459633780304227 -->
<g id="node24" class="node"><title>&#45;1402459633780304227</title>
<ellipse fill="none" stroke="black" cx="197.5" cy="-34.4469" rx="34.394" ry="34.394"/>
<text text-anchor="middle" x="197.5" y="-30.7469" font-family="Times,serif" font-size="14.00">double</text>
</g>
<!-- &#45;1402459633780304227&#45;&gt;6610071032423609008 -->
<g id="edge17" class="edge"><title>&#45;1402459633780304227&#45;&gt;6610071032423609008</title>
<path fill="none" stroke="black" d="M197.5,-69.1171C197.5,-77.5557 197.5,-86.5057 197.5,-94.5916"/>
<polygon fill="black" stroke="black" points="194,-94.6078 197.5,-104.608 201,-94.6079 194,-94.6078"/>
</g>
<!-- 1492004226049625077 -->
<g id="node25" class="node"><title>1492004226049625077</title>
<polygon fill="none" stroke="black" points="427,-295.69 366,-295.69 366,-259.69 427,-259.69 427,-295.69"/>
<text text-anchor="middle" x="396.5" y="-273.99" font-family="Times,serif" font-size="14.00">add&#45;#13</text>
</g>
<!-- 1492004226049625077&#45;&gt;5459913405674845445 -->
<g id="edge25" class="edge"><title>1492004226049625077&#45;&gt;5459913405674845445</title>
<path fill="none" stroke="black" d="M396.5,-296C396.5,-303.484 396.5,-312.53 396.5,-321.327"/>
<polygon fill="black" stroke="black" points="393,-321.431 396.5,-331.431 400,-321.431 393,-321.431"/>
</g>
<!-- 7791591925678556540&#45;&gt;1492004226049625077 -->
<g id="edge18" class="edge"><title>7791591925678556540&#45;&gt;1492004226049625077</title>
<path fill="none" stroke="black" d="M396.5,-223.914C396.5,-231.965 396.5,-241.116 396.5,-249.51"/>
<polygon fill="black" stroke="black" points="393,-249.598 396.5,-259.598 400,-249.598 393,-249.598"/>
</g>
<!-- &#45;8233839601751503304 -->
<g id="node27" class="node"><title>&#45;8233839601751503304</title>
<polygon fill="none" stroke="black" points="429,-455.685 364,-455.685 364,-419.685 429,-419.685 429,-455.685"/>
<text text-anchor="middle" x="396.5" y="-433.985" font-family="Times,serif" font-size="14.00">sum&#45;#14</text>
</g>
<!-- 5459913405674845445&#45;&gt;&#45;8233839601751503304 -->
<g id="edge21" class="edge"><title>5459913405674845445&#45;&gt;&#45;8233839601751503304</title>
<path fill="none" stroke="black" d="M396.5,-383.796C396.5,-391.847 396.5,-400.806 396.5,-409.028"/>
<polygon fill="black" stroke="black" points="393,-409.275 396.5,-419.275 400,-409.275 393,-409.275"/>
</g>
<!-- 8829710584837903292 -->
<g id="node29" class="node"><title>8829710584837903292</title>
<polygon fill="none" stroke="black" points="534,-295.69 473,-295.69 473,-259.69 534,-259.69 534,-295.69"/>
<text text-anchor="middle" x="503.5" y="-273.99" font-family="Times,serif" font-size="14.00">add&#45;#15</text>
</g>
<!-- 8829710584837903292&#45;&gt;5459913405674845445 -->
<g id="edge24" class="edge"><title>8829710584837903292&#45;&gt;5459913405674845445</title>
<path fill="none" stroke="black" d="M480.018,-295.807C463.988,-307.492 442.642,-323.052 425.543,-335.517"/>
<polygon fill="black" stroke="black" points="423.058,-332.997 417.039,-341.716 427.181,-338.653 423.058,-332.997"/>
</g>
<!-- 8464118818514893962 -->
<g id="node30" class="node"><title>8464118818514893962</title>
<ellipse fill="none" stroke="black" cx="35.5" cy="-34.4469" rx="34.394" ry="34.394"/>
<text text-anchor="middle" x="35.5" y="-30.7469" font-family="Times,serif" font-size="14.00">double</text>
</g>
<!-- 8464118818514893962&#45;&gt;8285413665155640955 -->
<g id="edge27" class="edge"><title>8464118818514893962&#45;&gt;8285413665155640955</title>
<path fill="none" stroke="black" d="M35.5,-69.1171C35.5,-77.5557 35.5,-86.5057 35.5,-94.5916"/>
<polygon fill="black" stroke="black" points="32.0001,-94.6078 35.5,-104.608 39.0001,-94.6079 32.0001,-94.6078"/>
</g>
<!-- &#45;498744703366429471&#45;&gt;8829710584837903292 -->
<g id="edge28" class="edge"><title>&#45;498744703366429471&#45;&gt;8829710584837903292</title>
<path fill="none" stroke="black" d="M523.551,-222.696C520.403,-231.174 516.749,-241.012 513.43,-249.951"/>
<polygon fill="black" stroke="black" points="510.069,-248.947 509.869,-259.54 516.631,-251.384 510.069,-248.947"/>
</g>
<!-- 5763205663740709060 -->
<g id="node32" class="node"><title>5763205663740709060</title>
<ellipse fill="none" stroke="black" cx="278.5" cy="-34.4469" rx="21.3963" ry="21.3963"/>
<text text-anchor="middle" x="278.5" y="-30.7469" font-family="Times,serif" font-size="14.00">inc</text>
</g>
<!-- 5763205663740709060&#45;&gt;&#45;396791374205749251 -->
<g id="edge31" class="edge"><title>5763205663740709060&#45;&gt;&#45;396791374205749251</title>
<path fill="none" stroke="black" d="M278.5,-55.9337C278.5,-67.4415 278.5,-81.9552 278.5,-94.4365"/>
<polygon fill="black" stroke="black" points="275,-94.755 278.5,-104.755 282,-94.7551 275,-94.755"/>
</g>
</g>
</svg>
