<?xml version="1.0" encoding="UTF-8" standalone="no"?>
<!DOCTYPE svg PUBLIC "-//W3C//DTD SVG 1.1//EN"
 "http://www.w3.org/Graphics/SVG/1.1/DTD/svg11.dtd">
<!-- Generated by graphviz version 2.38.0 (20140413.2041)
 -->
<!-- Title: %3 Pages: 1 -->
<svg width="736pt" height="460pt"
 viewBox="0.00 0.00 736.00 459.80" xmlns="http://www.w3.org/2000/svg" xmlns:xlink="http://www.w3.org/1999/xlink">
<g id="graph0" class="graph" transform="scale(1 1) rotate(0) translate(4 455.8)">
<title>%3</title>
<polygon fill="white" stroke="none" points="-4,4 -4,-455.8 732,-455.8 732,4 -4,4"/>
<!-- 5398490444492951555 -->
<g id="node1" class="node"><title>5398490444492951555</title>
<polygon fill="none" stroke="black" points="390,-451.8 336,-451.8 336,-415.8 390,-415.8 390,-451.8"/>
</g>
<!-- 5122617979819935737 -->
<g id="node2" class="node"><title>5122617979819935737</title>
<ellipse fill="none" stroke="black" cx="363" cy="-354.951" rx="24.6985" ry="24.6985"/>
<text text-anchor="middle" x="363" y="-350.751" font-family="Times,serif" font-size="14.00">sum</text>
</g>
<!-- 5122617979819935737&#45;&gt;5398490444492951555 -->
<g id="edge1" class="edge"><title>5122617979819935737&#45;&gt;5398490444492951555</title>
<path fill="none" stroke="black" d="M363,-379.846C363,-388.024 363,-397.233 363,-405.65"/>
<polygon fill="black" stroke="black" points="359.5,-405.751 363,-415.751 366.5,-405.751 359.5,-405.751"/>
</g>
<!-- 1754961297668520386 -->
<g id="node3" class="node"><title>1754961297668520386</title>
<polygon fill="none" stroke="black" points="169,-294.103 115,-294.103 115,-258.103 169,-258.103 169,-294.103"/>
</g>
<!-- 1754961297668520386&#45;&gt;5122617979819935737 -->
<g id="edge2" class="edge"><title>1754961297668520386&#45;&gt;5122617979819935737</title>
<path fill="none" stroke="black" d="M169.099,-286.526C209.733,-300.656 286.339,-327.294 330.115,-342.516"/>
<polygon fill="black" stroke="black" points="329.12,-345.876 339.715,-345.854 331.419,-339.264 329.12,-345.876"/>
</g>
<!-- 8986910074159236233 -->
<g id="node4" class="node"><title>8986910074159236233</title>
<polygon fill="none" stroke="black" points="298,-294.103 244,-294.103 244,-258.103 298,-258.103 298,-294.103"/>
</g>
<!-- 8986910074159236233&#45;&gt;5122617979819935737 -->
<g id="edge3" class="edge"><title>8986910074159236233&#45;&gt;5122617979819935737</title>
<path fill="none" stroke="black" d="M291.418,-294.158C304.605,-305.173 321.905,-319.624 336.194,-331.56"/>
<polygon fill="black" stroke="black" points="334.287,-334.528 344.206,-338.252 338.775,-329.155 334.287,-334.528"/>
</g>
<!-- &#45;5720100589866110029 -->
<g id="node5" class="node"><title>&#45;5720100589866110029</title>
<polygon fill="none" stroke="black" points="390,-294.103 336,-294.103 336,-258.103 390,-258.103 390,-294.103"/>
</g>
<!-- &#45;5720100589866110029&#45;&gt;5122617979819935737 -->
<g id="edge4" class="edge"><title>&#45;5720100589866110029&#45;&gt;5122617979819935737</title>
<path fill="none" stroke="black" d="M363,-294.158C363,-301.722 363,-310.906 363,-319.784"/>
<polygon fill="black" stroke="black" points="359.5,-319.949 363,-329.949 366.5,-319.949 359.5,-319.949"/>
</g>
<!-- &#45;3893210538924819467 -->
<g id="node6" class="node"><title>&#45;3893210538924819467</title>
<polygon fill="none" stroke="black" points="480,-294.103 426,-294.103 426,-258.103 480,-258.103 480,-294.103"/>
</g>
<!-- &#45;3893210538924819467&#45;&gt;5122617979819935737 -->
<g id="edge5" class="edge"><title>&#45;3893210538924819467&#45;&gt;5122617979819935737</title>
<path fill="none" stroke="black" d="M433.026,-294.158C420.212,-305.099 403.429,-319.431 389.505,-331.32"/>
<polygon fill="black" stroke="black" points="387.021,-328.838 381.689,-337.993 391.567,-334.161 387.021,-328.838"/>
</g>
<!-- &#45;280133518888039234 -->
<g id="node7" class="node"><title>&#45;280133518888039234</title>
<polygon fill="none" stroke="black" points="604,-294.103 550,-294.103 550,-258.103 604,-258.103 604,-294.103"/>
</g>
<!-- &#45;280133518888039234&#45;&gt;5122617979819935737 -->
<g id="edge6" class="edge"><title>&#45;280133518888039234&#45;&gt;5122617979819935737</title>
<path fill="none" stroke="black" d="M549.897,-286.836C510.643,-300.932 438.058,-326.998 395.824,-342.164"/>
<polygon fill="black" stroke="black" points="394.514,-338.916 386.285,-345.59 396.88,-345.504 394.514,-338.916"/>
</g>
<!-- &#45;8401904407619791831 -->
<g id="node8" class="node"><title>&#45;8401904407619791831</title>
<ellipse fill="none" stroke="black" cx="363" cy="-199.227" rx="22.7515" ry="22.7515"/>
<text text-anchor="middle" x="363" y="-195.027" font-family="Times,serif" font-size="14.00">add</text>
</g>
<!-- &#45;8401904407619791831&#45;&gt;&#45;5720100589866110029 -->
<g id="edge7" class="edge"><title>&#45;8401904407619791831&#45;&gt;&#45;5720100589866110029</title>
<path fill="none" stroke="black" d="M363,-222.287C363,-230.295 363,-239.438 363,-247.841"/>
<polygon fill="black" stroke="black" points="359.5,-247.948 363,-257.948 366.5,-247.948 359.5,-247.948"/>
</g>
<!-- 8518672656295073549 -->
<g id="node9" class="node"><title>8518672656295073549</title>
<polygon fill="none" stroke="black" points="354,-140.352 300,-140.352 300,-104.352 354,-104.352 354,-140.352"/>
</g>
<!-- 8518672656295073549&#45;&gt;&#45;8401904407619791831 -->
<g id="edge8" class="edge"><title>8518672656295073549&#45;&gt;&#45;8401904407619791831</title>
<path fill="none" stroke="black" d="M335.35,-140.718C339.4,-149.142 344.376,-159.491 348.985,-169.077"/>
<polygon fill="black" stroke="black" points="345.936,-170.814 353.424,-178.309 352.245,-167.78 345.936,-170.814"/>
</g>
<!-- 8548036284023031015 -->
<g id="node10" class="node"><title>8548036284023031015</title>
<polygon fill="none" stroke="black" points="426,-140.352 372,-140.352 372,-104.352 426,-104.352 426,-140.352"/>
</g>
<!-- 8548036284023031015&#45;&gt;&#45;8401904407619791831 -->
<g id="edge9" class="edge"><title>8548036284023031015&#45;&gt;&#45;8401904407619791831</title>
<path fill="none" stroke="black" d="M390.65,-140.718C386.6,-149.142 381.624,-159.491 377.015,-169.077"/>
<polygon fill="black" stroke="black" points="373.755,-167.78 372.576,-178.309 380.064,-170.814 373.755,-167.78"/>
</g>
<!-- 1453207895336904333 -->
<g id="node11" class="node"><title>1453207895336904333</title>
<ellipse fill="none" stroke="black" cx="405" cy="-34.1759" rx="20.8218" ry="20.8218"/>
<text text-anchor="middle" x="405" y="-29.9759" font-family="Times,serif" font-size="14.00">inc</text>
</g>
<!-- 1453207895336904333&#45;&gt;8548036284023031015 -->
<g id="edge10" class="edge"><title>1453207895336904333&#45;&gt;8548036284023031015</title>
<path fill="none" stroke="black" d="M403.608,-55.163C402.802,-66.7387 401.777,-81.4726 400.897,-94.0991"/>
<polygon fill="black" stroke="black" points="397.405,-93.8751 400.202,-104.094 404.388,-94.3614 397.405,-93.8751"/>
</g>
<!-- &#45;2404340548928217261 -->
<g id="node12" class="node"><title>&#45;2404340548928217261</title>
<ellipse fill="none" stroke="black" cx="332" cy="-34.1759" rx="34.3527" ry="34.3527"/>
<text text-anchor="middle" x="332" y="-29.9759" font-family="Times,serif" font-size="14.00">double</text>
</g>
<!-- &#45;2404340548928217261&#45;&gt;8518672656295073549 -->
<g id="edge11" class="edge"><title>&#45;2404340548928217261&#45;&gt;8518672656295073549</title>
<path fill="none" stroke="black" d="M330.053,-68.7405C329.564,-77.1527 329.047,-86.0746 328.579,-94.1351"/>
<polygon fill="black" stroke="black" points="325.085,-93.934 328,-104.12 332.073,-94.3395 325.085,-93.934"/>
</g>
<!-- 8335880891588945596 -->
<g id="node13" class="node"><title>8335880891588945596</title>
<ellipse fill="none" stroke="black" cx="629" cy="-199.227" rx="22.7515" ry="22.7515"/>
<text text-anchor="middle" x="629" y="-195.027" font-family="Times,serif" font-size="14.00">add</text>
</g>
<!-- 8335880891588945596&#45;&gt;&#45;280133518888039234 -->
<g id="edge12" class="edge"><title>8335880891588945596&#45;&gt;&#45;280133518888039234</title>
<path fill="none" stroke="black" d="M616.412,-218.352C609.884,-227.752 601.802,-239.389 594.66,-249.674"/>
<polygon fill="black" stroke="black" points="591.765,-247.706 588.936,-257.916 597.515,-251.699 591.765,-247.706"/>
</g>
<!-- 3529129236026094723 -->
<g id="node14" class="node"><title>3529129236026094723</title>
<polygon fill="none" stroke="black" points="656,-140.352 602,-140.352 602,-104.352 656,-104.352 656,-140.352"/>
</g>
<!-- 3529129236026094723&#45;&gt;8335880891588945596 -->
<g id="edge13" class="edge"><title>3529129236026094723&#45;&gt;8335880891588945596</title>
<path fill="none" stroke="black" d="M629,-140.718C629,-148.212 629,-157.229 629,-165.878"/>
<polygon fill="black" stroke="black" points="625.5,-166.117 629,-176.117 632.5,-166.117 625.5,-166.117"/>
</g>
<!-- 6321505346635826077 -->
<g id="node15" class="node"><title>6321505346635826077</title>
<polygon fill="none" stroke="black" points="728,-140.352 674,-140.352 674,-104.352 728,-104.352 728,-140.352"/>
</g>
<!-- 6321505346635826077&#45;&gt;8335880891588945596 -->
<g id="edge14" class="edge"><title>6321505346635826077&#45;&gt;8335880891588945596</title>
<path fill="none" stroke="black" d="M684.301,-140.718C674.58,-150.827 662.193,-163.708 651.608,-174.716"/>
<polygon fill="black" stroke="black" points="649.031,-172.346 644.623,-181.98 654.077,-177.198 649.031,-172.346"/>
</g>
<!-- &#45;310390678686426077 -->
<g id="node16" class="node"><title>&#45;310390678686426077</title>
<ellipse fill="none" stroke="black" cx="702" cy="-34.1759" rx="20.8218" ry="20.8218"/>
<text text-anchor="middle" x="702" y="-29.9759" font-family="Times,serif" font-size="14.00">inc</text>
</g>
<!-- &#45;310390678686426077&#45;&gt;6321505346635826077 -->
<g id="edge15" class="edge"><title>&#45;310390678686426077&#45;&gt;6321505346635826077</title>
<path fill="none" stroke="black" d="M701.768,-55.163C701.635,-66.6229 701.466,-81.1782 701.321,-93.7197"/>
<polygon fill="black" stroke="black" points="697.817,-94.0541 701.2,-104.094 704.816,-94.1354 697.817,-94.0541"/>
</g>
<!-- &#45;2203948667766390663 -->
<g id="node17" class="node"><title>&#45;2203948667766390663</title>
<ellipse fill="none" stroke="black" cx="629" cy="-34.1759" rx="34.3527" ry="34.3527"/>
<text text-anchor="middle" x="629" y="-29.9759" font-family="Times,serif" font-size="14.00">double</text>
</g>
<!-- &#45;2203948667766390663&#45;&gt;3529129236026094723 -->
<g id="edge16" class="edge"><title>&#45;2203948667766390663&#45;&gt;3529129236026094723</title>
<path fill="none" stroke="black" d="M629,-68.7405C629,-77.0581 629,-85.8742 629,-93.8631"/>
<polygon fill="black" stroke="black" points="625.5,-94.1199 629,-104.12 632.5,-94.12 625.5,-94.1199"/>
</g>
<!-- 3711294550932281915 -->
<g id="node18" class="node"><title>3711294550932281915</title>
<ellipse fill="none" stroke="black" cx="471" cy="-199.227" rx="22.7515" ry="22.7515"/>
<text text-anchor="middle" x="471" y="-195.027" font-family="Times,serif" font-size="14.00">add</text>
</g>
<!-- 3711294550932281915&#45;&gt;&#45;3893210538924819467 -->
<g id="edge17" class="edge"><title>3711294550932281915&#45;&gt;&#45;3893210538924819467</title>
<path fill="none" stroke="black" d="M465.794,-221.884C463.845,-229.991 461.606,-239.305 459.551,-247.853"/>
<polygon fill="black" stroke="black" points="456.102,-247.225 457.168,-257.766 462.908,-248.861 456.102,-247.225"/>
</g>
<!-- &#45;9099554750316025551 -->
<g id="node19" class="node"><title>&#45;9099554750316025551</title>
<polygon fill="none" stroke="black" points="498,-140.352 444,-140.352 444,-104.352 498,-104.352 498,-140.352"/>
</g>
<!-- &#45;9099554750316025551&#45;&gt;3711294550932281915 -->
<g id="edge18" class="edge"><title>&#45;9099554750316025551&#45;&gt;3711294550932281915</title>
<path fill="none" stroke="black" d="M471,-140.718C471,-148.212 471,-157.229 471,-165.878"/>
<polygon fill="black" stroke="black" points="467.5,-166.117 471,-176.117 474.5,-166.117 467.5,-166.117"/>
</g>
<!-- 7109738199118329658 -->
<g id="node20" class="node"><title>7109738199118329658</title>
<polygon fill="none" stroke="black" points="570,-140.352 516,-140.352 516,-104.352 570,-104.352 570,-140.352"/>
</g>
<!-- 7109738199118329658&#45;&gt;3711294550932281915 -->
<g id="edge19" class="edge"><title>7109738199118329658&#45;&gt;3711294550932281915</title>
<path fill="none" stroke="black" d="M526.301,-140.718C516.58,-150.827 504.193,-163.708 493.608,-174.716"/>
<polygon fill="black" stroke="black" points="491.031,-172.346 486.623,-181.98 496.077,-177.198 491.031,-172.346"/>
</g>
<!-- &#45;4270120014419483321 -->
<g id="node21" class="node"><title>&#45;4270120014419483321</title>
<ellipse fill="none" stroke="black" cx="470" cy="-34.1759" rx="20.8218" ry="20.8218"/>
<text text-anchor="middle" x="470" y="-29.9759" font-family="Times,serif" font-size="14.00">inc</text>
</g>
<!-- &#45;4270120014419483321&#45;&gt;&#45;9099554750316025551 -->
<g id="edge20" class="edge"><title>&#45;4270120014419483321&#45;&gt;&#45;9099554750316025551</title>
<path fill="none" stroke="black" d="M470.232,-55.163C470.365,-66.6229 470.534,-81.1782 470.679,-93.7197"/>
<polygon fill="black" stroke="black" points="467.184,-94.1354 470.8,-104.094 474.183,-94.0541 467.184,-94.1354"/>
</g>
<!-- 2386258259607712248 -->
<g id="node22" class="node"><title>2386258259607712248</title>
<ellipse fill="none" stroke="black" cx="543" cy="-34.1759" rx="34.3527" ry="34.3527"/>
<text text-anchor="middle" x="543" y="-29.9759" font-family="Times,serif" font-size="14.00">double</text>
</g>
<!-- 2386258259607712248&#45;&gt;7109738199118329658 -->
<g id="edge21" class="edge"><title>2386258259607712248&#45;&gt;7109738199118329658</title>
<path fill="none" stroke="black" d="M543,-68.7405C543,-77.0581 543,-85.8742 543,-93.8631"/>
<polygon fill="black" stroke="black" points="539.5,-94.1199 543,-104.12 546.5,-94.12 539.5,-94.1199"/>
</g>
<!-- &#45;4330325780707489953 -->
<g id="node23" class="node"><title>&#45;4330325780707489953</title>
<ellipse fill="none" stroke="black" cx="246" cy="-199.227" rx="22.7515" ry="22.7515"/>
<text text-anchor="middle" x="246" y="-195.027" font-family="Times,serif" font-size="14.00">add</text>
</g>
<!-- &#45;4330325780707489953&#45;&gt;8986910074159236233 -->
<g id="edge22" class="edge"><title>&#45;4330325780707489953&#45;&gt;8986910074159236233</title>
<path fill="none" stroke="black" d="M252.964,-221.084C255.777,-229.51 259.059,-239.34 262.047,-248.287"/>
<polygon fill="black" stroke="black" points="258.767,-249.516 265.254,-257.892 265.406,-247.299 258.767,-249.516"/>
</g>
<!-- &#45;3441941578611176853 -->
<g id="node24" class="node"><title>&#45;3441941578611176853</title>
<polygon fill="none" stroke="black" points="200,-140.352 146,-140.352 146,-104.352 200,-104.352 200,-140.352"/>
</g>
<!-- &#45;3441941578611176853&#45;&gt;&#45;4330325780707489953 -->
<g id="edge23" class="edge"><title>&#45;3441941578611176853&#45;&gt;&#45;4330325780707489953</title>
<path fill="none" stroke="black" d="M189.931,-140.718C199.787,-150.827 212.346,-163.708 223.078,-174.716"/>
<polygon fill="black" stroke="black" points="220.673,-177.263 230.16,-181.98 225.685,-172.377 220.673,-177.263"/>
</g>
<!-- &#45;2147420533354572379 -->
<g id="node25" class="node"><title>&#45;2147420533354572379</title>
<polygon fill="none" stroke="black" points="273,-140.352 219,-140.352 219,-104.352 273,-104.352 273,-140.352"/>
</g>
<!-- &#45;2147420533354572379&#45;&gt;&#45;4330325780707489953 -->
<g id="edge24" class="edge"><title>&#45;2147420533354572379&#45;&gt;&#45;4330325780707489953</title>
<path fill="none" stroke="black" d="M246,-140.718C246,-148.212 246,-157.229 246,-165.878"/>
<polygon fill="black" stroke="black" points="242.5,-166.117 246,-176.117 249.5,-166.117 242.5,-166.117"/>
</g>
<!-- &#45;4686763686186709087 -->
<g id="node26" class="node"><title>&#45;4686763686186709087</title>
<ellipse fill="none" stroke="black" cx="173" cy="-34.1759" rx="20.8218" ry="20.8218"/>
<text text-anchor="middle" x="173" y="-29.9759" font-family="Times,serif" font-size="14.00">inc</text>
</g>
<!-- &#45;4686763686186709087&#45;&gt;&#45;3441941578611176853 -->
<g id="edge25" class="edge"><title>&#45;4686763686186709087&#45;&gt;&#45;3441941578611176853</title>
<path fill="none" stroke="black" d="M173,-55.163C173,-66.6229 173,-81.1782 173,-93.7197"/>
<polygon fill="black" stroke="black" points="169.5,-94.0941 173,-104.094 176.5,-94.0941 169.5,-94.0941"/>
</g>
<!-- &#45;8364381633020699477 -->
<g id="node27" class="node"><title>&#45;8364381633020699477</title>
<ellipse fill="none" stroke="black" cx="246" cy="-34.1759" rx="34.3527" ry="34.3527"/>
<text text-anchor="middle" x="246" y="-29.9759" font-family="Times,serif" font-size="14.00">double</text>
</g>
<!-- &#45;8364381633020699477&#45;&gt;&#45;2147420533354572379 -->
<g id="edge26" class="edge"><title>&#45;8364381633020699477&#45;&gt;&#45;2147420533354572379</title>
<path fill="none" stroke="black" d="M246,-68.7405C246,-77.0581 246,-85.8742 246,-93.8631"/>
<polygon fill="black" stroke="black" points="242.5,-94.1199 246,-104.12 249.5,-94.12 242.5,-94.1199"/>
</g>
<!-- 204091627928328320 -->
<g id="node28" class="node"><title>204091627928328320</title>
<ellipse fill="none" stroke="black" cx="100" cy="-199.227" rx="22.7515" ry="22.7515"/>
<text text-anchor="middle" x="100" y="-195.027" font-family="Times,serif" font-size="14.00">add</text>
</g>
<!-- 204091627928328320&#45;&gt;1754961297668520386 -->
<g id="edge27" class="edge"><title>204091627928328320&#45;&gt;1754961297668520386</title>
<path fill="none" stroke="black" d="M110.816,-219.51C115.826,-228.441 121.856,-239.191 127.273,-248.849"/>
<polygon fill="black" stroke="black" points="124.281,-250.668 132.226,-257.678 130.386,-247.244 124.281,-250.668"/>
</g>
<!-- 5702352300831410690 -->
<g id="node29" class="node"><title>5702352300831410690</title>
<polygon fill="none" stroke="black" points="54,-140.352 0,-140.352 0,-104.352 54,-104.352 54,-140.352"/>
</g>
<!-- 5702352300831410690&#45;&gt;204091627928328320 -->
<g id="edge28" class="edge"><title>5702352300831410690&#45;&gt;204091627928328320</title>
<path fill="none" stroke="black" d="M43.9312,-140.718C53.787,-150.827 66.3455,-163.708 77.0776,-174.716"/>
<polygon fill="black" stroke="black" points="74.6732,-177.263 84.1601,-181.98 79.6853,-172.377 74.6732,-177.263"/>
</g>
<!-- &#45;3775535948424540525 -->
<g id="node30" class="node"><title>&#45;3775535948424540525</title>
<polygon fill="none" stroke="black" points="127,-140.352 73,-140.352 73,-104.352 127,-104.352 127,-140.352"/>
</g>
<!-- &#45;3775535948424540525&#45;&gt;204091627928328320 -->
<g id="edge29" class="edge"><title>&#45;3775535948424540525&#45;&gt;204091627928328320</title>
<path fill="none" stroke="black" d="M100,-140.718C100,-148.212 100,-157.229 100,-165.878"/>
<polygon fill="black" stroke="black" points="96.5001,-166.117 100,-176.117 103.5,-166.117 96.5001,-166.117"/>
</g>
<!-- 6145925350163327424 -->
<g id="node31" class="node"><title>6145925350163327424</title>
<ellipse fill="none" stroke="black" cx="27" cy="-34.1759" rx="20.8218" ry="20.8218"/>
<text text-anchor="middle" x="27" y="-29.9759" font-family="Times,serif" font-size="14.00">inc</text>
</g>
<!-- 6145925350163327424&#45;&gt;5702352300831410690 -->
<g id="edge30" class="edge"><title>6145925350163327424&#45;&gt;5702352300831410690</title>
<path fill="none" stroke="black" d="M27,-55.163C27,-66.6229 27,-81.1782 27,-93.7197"/>
<polygon fill="black" stroke="black" points="23.5001,-94.0941 27,-104.094 30.5001,-94.0941 23.5001,-94.0941"/>
</g>
<!-- &#45;7115347330020156343 -->
<g id="node32" class="node"><title>&#45;7115347330020156343</title>
<ellipse fill="none" stroke="black" cx="100" cy="-34.1759" rx="34.3527" ry="34.3527"/>
<text text-anchor="middle" x="100" y="-29.9759" font-family="Times,serif" font-size="14.00">double</text>
</g>
<!-- &#45;7115347330020156343&#45;&gt;&#45;3775535948424540525 -->
<g id="edge31" class="edge"><title>&#45;7115347330020156343&#45;&gt;&#45;3775535948424540525</title>
<path fill="none" stroke="black" d="M100,-68.7405C100,-77.0581 100,-85.8742 100,-93.8631"/>
<polygon fill="black" stroke="black" points="96.5001,-94.1199 100,-104.12 103.5,-94.12 96.5001,-94.1199"/>
</g>
</g>
</svg>
