<?xml version="1.0" encoding="UTF-8" standalone="no"?>
<!DOCTYPE svg PUBLIC "-//W3C//DTD SVG 1.1//EN"
 "http://www.w3.org/Graphics/SVG/1.1/DTD/svg11.dtd">
<!-- Generated by graphviz version 2.38.0 (20140413.2041)
 -->
<!-- Title: %3 Pages: 1 -->
<svg width="312pt" height="110pt"
 viewBox="0.00 0.00 311.57 109.82" xmlns="http://www.w3.org/2000/svg" xmlns:xlink="http://www.w3.org/1999/xlink">
<g id="graph0" class="graph" transform="scale(1 1) rotate(0) translate(4 105.821)">
<title>%3</title>
<polygon fill="white" stroke="none" points="-4,4 -4,-105.821 307.572,-105.821 307.572,4 -4,4"/>
<!-- &#45;893722439790061373 -->
<g id="node1" class="node"><title>&#45;893722439790061373</title>
<polygon fill="none" stroke="black" points="303.572,-68.9107 249.572,-68.9107 249.572,-32.9107 303.572,-32.9107 303.572,-68.9107"/>
</g>
<!-- 5770880075037384097 -->
<g id="node2" class="node"><title>5770880075037384097</title>
<ellipse fill="none" stroke="black" cx="190.697" cy="-50.9107" rx="22.7515" ry="22.7515"/>
<text text-anchor="middle" x="190.697" y="-46.7107" font-family="Times,serif" font-size="14.00">add</text>
</g>
<!-- 5770880075037384097&#45;&gt;&#45;893722439790061373 -->
<g id="edge1" class="edge"><title>5770880075037384097&#45;&gt;&#45;893722439790061373</title>
<path fill="none" stroke="black" d="M213.734,-50.9107C221.618,-50.9107 230.724,-50.9107 239.483,-50.9107"/>
<polygon fill="black" stroke="black" points="239.511,-54.4108 249.511,-50.9107 239.511,-47.4108 239.511,-54.4108"/>
</g>
<!-- &#45;456586881178185614 -->
<g id="node3" class="node"><title>&#45;456586881178185614</title>
<polygon fill="none" stroke="black" points="131.821,-96.9107 77.8214,-96.9107 77.8214,-60.9107 131.821,-60.9107 131.821,-96.9107"/>
</g>
<!-- &#45;456586881178185614&#45;&gt;5770880075037384097 -->
<g id="edge2" class="edge"><title>&#45;456586881178185614&#45;&gt;5770880075037384097</title>
<path fill="none" stroke="black" d="M131.9,-70.2048C140.496,-67.3355 150.133,-64.1182 159.038,-61.1456"/>
<polygon fill="black" stroke="black" points="160.308,-64.4114 168.685,-57.9249 158.092,-57.7716 160.308,-64.4114"/>
</g>
<!-- 7307795281669170797 -->
<g id="node4" class="node"><title>7307795281669170797</title>
<polygon fill="none" stroke="black" points="131.821,-41.9107 77.8214,-41.9107 77.8214,-5.9107 131.821,-5.9107 131.821,-41.9107"/>
</g>
<!-- 7307795281669170797&#45;&gt;5770880075037384097 -->
<g id="edge3" class="edge"><title>7307795281669170797&#45;&gt;5770880075037384097</title>
<path fill="none" stroke="black" d="M131.9,-32.3057C140.496,-35.0725 150.133,-38.1749 159.038,-41.0414"/>
<polygon fill="black" stroke="black" points="158.094,-44.4144 168.685,-44.147 160.239,-37.7511 158.094,-44.4144"/>
</g>
<!-- 5457620921521845768 -->
<g id="node5" class="node"><title>5457620921521845768</title>
<ellipse fill="none" stroke="black" cx="20.9107" cy="-80.9107" rx="20.8218" ry="20.8218"/>
<text text-anchor="middle" x="20.9107" y="-76.7107" font-family="Times,serif" font-size="14.00">inc</text>
</g>
<!-- 5457620921521845768&#45;&gt;&#45;456586881178185614 -->
<g id="edge4" class="edge"><title>5457620921521845768&#45;&gt;&#45;456586881178185614</title>
<path fill="none" stroke="black" d="M42.1583,-80.4163C49.8538,-80.2284 58.873,-80.0082 67.6014,-79.7951"/>
<polygon fill="black" stroke="black" points="67.7059,-83.2937 77.6175,-79.5505 67.535,-76.2958 67.7059,-83.2937"/>
</g>
<!-- &#45;1622293681637850997 -->
<g id="node6" class="node"><title>&#45;1622293681637850997</title>
<ellipse fill="none" stroke="black" cx="20.9107" cy="-20.9107" rx="20.8218" ry="20.8218"/>
<text text-anchor="middle" x="20.9107" y="-16.7107" font-family="Times,serif" font-size="14.00">inc</text>
</g>
<!-- &#45;1622293681637850997&#45;&gt;7307795281669170797 -->
<g id="edge5" class="edge"><title>&#45;1622293681637850997&#45;&gt;7307795281669170797</title>
<path fill="none" stroke="black" d="M42.1583,-21.6523C49.8538,-21.9341 58.873,-22.2645 67.6014,-22.5841"/>
<polygon fill="black" stroke="black" points="67.496,-26.0825 77.6175,-22.951 67.7523,-19.0872 67.496,-26.0825"/>
</g>
</g>
</svg>
