<?xml version="1.0" encoding="UTF-8" standalone="no"?>
<!DOCTYPE svg PUBLIC "-//W3C//DTD SVG 1.1//EN"
 "http://www.w3.org/Graphics/SVG/1.1/DTD/svg11.dtd">
<!-- Generated by graphviz version 2.38.0 (20140413.2041)
 -->
<!-- Title: %3 Pages: 1 -->
<svg width="314pt" height="112pt"
 viewBox="0.00 0.00 313.69 111.90" xmlns="http://www.w3.org/2000/svg" xmlns:xlink="http://www.w3.org/1999/xlink">
<g id="graph0" class="graph" transform="scale(1 1) rotate(0) translate(4 107.896)">
<title>%3</title>
<polygon fill="white" stroke="none" points="-4,4 -4,-107.896 309.692,-107.896 309.692,4 -4,4"/>
<!-- &#45;3347572897014886303 -->
<g id="node1" class="node"><title>&#45;3347572897014886303</title>
<polygon fill="none" stroke="black" points="305.692,-70.4481 251.692,-70.4481 251.692,-34.4481 305.692,-34.4481 305.692,-70.4481"/>
<text text-anchor="middle" x="278.692" y="-48.7481" font-family="Times,serif" font-size="14.00">add&#45;#0</text>
</g>
<!-- &#45;2850255052063941396 -->
<g id="node2" class="node"><title>&#45;2850255052063941396</title>
<ellipse fill="none" stroke="black" cx="192.294" cy="-52.4481" rx="23.2963" ry="23.2963"/>
<text text-anchor="middle" x="192.294" y="-48.7481" font-family="Times,serif" font-size="14.00">add</text>
</g>
<!-- &#45;2850255052063941396&#45;&gt;&#45;3347572897014886303 -->
<g id="edge1" class="edge"><title>&#45;2850255052063941396&#45;&gt;&#45;3347572897014886303</title>
<path fill="none" stroke="black" d="M215.911,-52.4481C223.687,-52.4481 232.603,-52.4481 241.197,-52.4481"/>
<polygon fill="black" stroke="black" points="241.422,-55.9482 251.422,-52.4481 241.422,-48.9482 241.422,-55.9482"/>
</g>
<!-- &#45;8351513739548264758 -->
<g id="node3" class="node"><title>&#45;8351513739548264758</title>
<polygon fill="none" stroke="black" points="132.896,-98.4481 78.8962,-98.4481 78.8962,-62.4481 132.896,-62.4481 132.896,-98.4481"/>
<text text-anchor="middle" x="105.896" y="-76.7481" font-family="Times,serif" font-size="14.00">inc&#45;#1</text>
</g>
<!-- &#45;8351513739548264758&#45;&gt;&#45;2850255052063941396 -->
<g id="edge2" class="edge"><title>&#45;8351513739548264758&#45;&gt;&#45;2850255052063941396</title>
<path fill="none" stroke="black" d="M133.138,-71.7422C141.716,-68.8962 151.326,-65.7079 160.225,-62.7555"/>
<polygon fill="black" stroke="black" points="161.488,-66.0241 169.878,-59.5533 159.284,-59.3802 161.488,-66.0241"/>
</g>
<!-- &#45;799087838119053254 -->
<g id="node4" class="node"><title>&#45;799087838119053254</title>
<polygon fill="none" stroke="black" points="132.896,-42.4481 78.8962,-42.4481 78.8962,-6.4481 132.896,-6.4481 132.896,-42.4481"/>
<text text-anchor="middle" x="105.896" y="-20.7481" font-family="Times,serif" font-size="14.00">inc&#45;#2</text>
</g>
<!-- &#45;799087838119053254&#45;&gt;&#45;2850255052063941396 -->
<g id="edge3" class="edge"><title>&#45;799087838119053254&#45;&gt;&#45;2850255052063941396</title>
<path fill="none" stroke="black" d="M133.138,-33.154C141.716,-36 151.326,-39.1883 160.225,-42.1407"/>
<polygon fill="black" stroke="black" points="159.284,-45.516 169.878,-45.3429 161.488,-38.872 159.284,-45.516"/>
</g>
<!-- &#45;1627079348212151549 -->
<g id="node5" class="node"><title>&#45;1627079348212151549</title>
<ellipse fill="none" stroke="black" cx="21.4481" cy="-21.4481" rx="21.3963" ry="21.3963"/>
<text text-anchor="middle" x="21.4481" y="-17.7481" font-family="Times,serif" font-size="14.00">inc</text>
</g>
<!-- &#45;1627079348212151549&#45;&gt;&#45;799087838119053254 -->
<g id="edge4" class="edge"><title>&#45;1627079348212151549&#45;&gt;&#45;799087838119053254</title>
<path fill="none" stroke="black" d="M43.2532,-22.2051C51.0022,-22.4871 60.0389,-22.8159 68.7663,-23.1335"/>
<polygon fill="black" stroke="black" points="68.653,-26.6316 78.7737,-23.4976 68.9076,-19.6362 68.653,-26.6316"/>
</g>
<!-- 6935536028328168595 -->
<g id="node6" class="node"><title>6935536028328168595</title>
<ellipse fill="none" stroke="black" cx="21.4481" cy="-82.4481" rx="21.3963" ry="21.3963"/>
<text text-anchor="middle" x="21.4481" y="-78.7481" font-family="Times,serif" font-size="14.00">inc</text>
</g>
<!-- 6935536028328168595&#45;&gt;&#45;8351513739548264758 -->
<g id="edge5" class="edge"><title>6935536028328168595&#45;&gt;&#45;8351513739548264758</title>
<path fill="none" stroke="black" d="M43.2532,-81.9434C51.0022,-81.7554 60.0389,-81.5362 68.7663,-81.3245"/>
<polygon fill="black" stroke="black" points="68.8616,-84.8233 78.7737,-81.0818 68.6917,-77.8254 68.8616,-84.8233"/>
</g>
</g>
</svg>
