<?xml version="1.0" encoding="UTF-8" standalone="no"?>
<!DOCTYPE svg PUBLIC "-//W3C//DTD SVG 1.1//EN"
 "http://www.w3.org/Graphics/SVG/1.1/DTD/svg11.dtd">
<!-- Generated by graphviz version 2.40.1 (20161225.0304)
 -->
<!-- Title: %3 Pages: 1 -->
<svg width="470pt" height="486pt"
 viewBox="0.00 0.00 470.45 485.78" xmlns="http://www.w3.org/2000/svg" xmlns:xlink="http://www.w3.org/1999/xlink">
<g id="graph0" class="graph" transform="scale(1 1) rotate(0) translate(4 481.7832)">
<title>%3</title>
<polygon fill="#ffffff" stroke="transparent" points="-4,4 -4,-481.7832 466.4469,-481.7832 466.4469,4 -4,4"/>
<!-- 4817490249130044912 -->
<g id="node1" class="node">
<title>4817490249130044912</title>
<polygon fill="none" stroke="#000000" points="54,-54.3968 0,-54.3968 0,-18.3968 54,-18.3968 54,-54.3968"/>
</g>
<!-- &#45;665100954636097754 -->
<g id="node2" class="node">
<title>&#45;665100954636097754</title>
<polygon fill="none" stroke="#000000" points="126,-54.3968 72,-54.3968 72,-18.3968 126,-18.3968 126,-54.3968"/>
</g>
<!-- 4126966504162038615 -->
<g id="node3" class="node">
<title>4126966504162038615</title>
<polygon fill="none" stroke="#000000" points="198,-54.3968 144,-54.3968 144,-18.3968 198,-18.3968 198,-54.3968"/>
</g>
<!-- 3841792670821254683 -->
<g id="node4" class="node">
<title>3841792670821254683</title>
<polygon fill="none" stroke="#000000" points="373,-477.7832 319,-477.7832 319,-441.7832 373,-441.7832 373,-477.7832"/>
</g>
<!-- 384411059217416665 -->
<g id="node5" class="node">
<title>384411059217416665</title>
<ellipse fill="none" stroke="#000000" cx="346" cy="-373.936" rx="31.6951" ry="31.6951"/>
<text text-anchor="middle" x="346" y="-370.236" font-family="Times,serif" font-size="14.00" fill="#000000">print1</text>
</g>
<!-- 384411059217416665&#45;&gt;3841792670821254683 -->
<g id="edge1" class="edge">
<title>384411059217416665&#45;&gt;3841792670821254683</title>
<path fill="none" stroke="#000000" d="M346,-405.9023C346,-414.2552 346,-423.2013 346,-431.3564"/>
<polygon fill="#000000" stroke="#000000" points="342.5001,-431.5049 346,-441.5049 349.5001,-431.505 342.5001,-431.5049"/>
</g>
<!-- 5798186715971559651 -->
<g id="node6" class="node">
<title>5798186715971559651</title>
<polygon fill="none" stroke="#000000" points="373,-306.0888 319,-306.0888 319,-270.0888 373,-270.0888 373,-306.0888"/>
</g>
<!-- 5798186715971559651&#45;&gt;384411059217416665 -->
<g id="edge2" class="edge">
<title>5798186715971559651&#45;&gt;384411059217416665</title>
<path fill="none" stroke="#000000" d="M346,-306.2948C346,-313.8044 346,-322.8452 346,-331.8377"/>
<polygon fill="#000000" stroke="#000000" points="342.5001,-331.8857 346,-341.8857 349.5001,-331.8858 342.5001,-331.8857"/>
</g>
<!-- &#45;1139820312472844916 -->
<g id="node7" class="node">
<title>&#45;1139820312472844916</title>
<polygon fill="none" stroke="#000000" points="289,-477.7832 235,-477.7832 235,-441.7832 289,-441.7832 289,-477.7832"/>
</g>
<!-- &#45;4025874817067372950 -->
<g id="node8" class="node">
<title>&#45;4025874817067372950</title>
<ellipse fill="none" stroke="#000000" cx="262" cy="-373.936" rx="31.6951" ry="31.6951"/>
<text text-anchor="middle" x="262" y="-370.236" font-family="Times,serif" font-size="14.00" fill="#000000">print2</text>
</g>
<!-- &#45;4025874817067372950&#45;&gt;&#45;1139820312472844916 -->
<g id="edge3" class="edge">
<title>&#45;4025874817067372950&#45;&gt;&#45;1139820312472844916</title>
<path fill="none" stroke="#000000" d="M262,-405.9023C262,-414.2552 262,-423.2013 262,-431.3564"/>
<polygon fill="#000000" stroke="#000000" points="258.5001,-431.5049 262,-441.5049 265.5001,-431.505 258.5001,-431.5049"/>
</g>
<!-- 7570564659782590272 -->
<g id="node9" class="node">
<title>7570564659782590272</title>
<polygon fill="none" stroke="#000000" points="289,-306.0888 235,-306.0888 235,-270.0888 289,-270.0888 289,-306.0888"/>
</g>
<!-- 7570564659782590272&#45;&gt;&#45;4025874817067372950 -->
<g id="edge4" class="edge">
<title>7570564659782590272&#45;&gt;&#45;4025874817067372950</title>
<path fill="none" stroke="#000000" d="M262,-306.2948C262,-313.8044 262,-322.8452 262,-331.8377"/>
<polygon fill="#000000" stroke="#000000" points="258.5001,-331.8857 262,-341.8857 265.5001,-331.8858 258.5001,-331.8857"/>
</g>
<!-- &#45;7875926968995283561 -->
<g id="node10" class="node">
<title>&#45;7875926968995283561</title>
<ellipse fill="none" stroke="#000000" cx="346" cy="-207.4412" rx="26.7961" ry="26.7961"/>
<text text-anchor="middle" x="346" y="-203.7412" font-family="Times,serif" font-size="14.00" fill="#000000">out1</text>
</g>
<!-- &#45;7875926968995283561&#45;&gt;5798186715971559651 -->
<g id="edge5" class="edge">
<title>&#45;7875926968995283561&#45;&gt;5798186715971559651</title>
<path fill="none" stroke="#000000" d="M346,-234.2957C346,-242.5435 346,-251.6407 346,-259.9706"/>
<polygon fill="#000000" stroke="#000000" points="342.5001,-259.9899 346,-269.9899 349.5001,-259.9899 342.5001,-259.9899"/>
</g>
<!-- &#45;4261785523909184813 -->
<g id="node11" class="node">
<title>&#45;4261785523909184813</title>
<polygon fill="none" stroke="#000000" points="366,-144.7935 312,-144.7935 312,-108.7935 366,-108.7935 366,-144.7935"/>
</g>
<!-- &#45;4261785523909184813&#45;&gt;&#45;7875926968995283561 -->
<g id="edge6" class="edge">
<title>&#45;4261785523909184813&#45;&gt;&#45;7875926968995283561</title>
<path fill="none" stroke="#000000" d="M340.5884,-145.0937C341.2436,-152.6428 342.0278,-161.6773 342.7932,-170.495"/>
<polygon fill="#000000" stroke="#000000" points="339.3224,-170.9846 343.6741,-180.6445 346.2962,-170.3792 339.3224,-170.9846"/>
</g>
<!-- &#45;958872990897675935 -->
<g id="node13" class="node">
<title>&#45;958872990897675935</title>
<ellipse fill="none" stroke="#000000" cx="262" cy="-207.4412" rx="26.7961" ry="26.7961"/>
<text text-anchor="middle" x="262" y="-203.7412" font-family="Times,serif" font-size="14.00" fill="#000000">out2</text>
</g>
<!-- &#45;4261785523909184813&#45;&gt;&#45;958872990897675935 -->
<g id="edge10" class="edge">
<title>&#45;4261785523909184813&#45;&gt;&#45;958872990897675935</title>
<path fill="none" stroke="#000000" d="M321.5275,-145.0937C311.4815,-155.6156 298.6801,-169.0234 287.5247,-180.7074"/>
<polygon fill="#000000" stroke="#000000" points="284.8513,-178.4391 280.4771,-188.0888 289.9142,-183.273 284.8513,-178.4391"/>
</g>
<!-- 8573691167711918558 -->
<g id="node12" class="node">
<title>8573691167711918558</title>
<polygon fill="none" stroke="#000000" points="446,-144.7935 392,-144.7935 392,-108.7935 446,-108.7935 446,-144.7935"/>
</g>
<!-- 8573691167711918558&#45;&gt;&#45;7875926968995283561 -->
<g id="edge7" class="edge">
<title>8573691167711918558&#45;&gt;&#45;7875926968995283561</title>
<path fill="none" stroke="#000000" d="M402.4352,-145.0937C393.1385,-155.3644 381.3528,-168.3847 370.9589,-179.8675"/>
<polygon fill="#000000" stroke="#000000" points="368.1492,-177.7561 364.0332,-187.5187 373.3389,-182.4537 368.1492,-177.7561"/>
</g>
<!-- &#45;958872990897675935&#45;&gt;7570564659782590272 -->
<g id="edge8" class="edge">
<title>&#45;958872990897675935&#45;&gt;7570564659782590272</title>
<path fill="none" stroke="#000000" d="M262,-234.2957C262,-242.5435 262,-251.6407 262,-259.9706"/>
<polygon fill="#000000" stroke="#000000" points="258.5001,-259.9899 262,-269.9899 265.5001,-259.9899 258.5001,-259.9899"/>
</g>
<!-- &#45;2423807251853563967 -->
<g id="node14" class="node">
<title>&#45;2423807251853563967</title>
<polygon fill="none" stroke="#000000" points="286,-144.7935 232,-144.7935 232,-108.7935 286,-108.7935 286,-144.7935"/>
</g>
<!-- &#45;2423807251853563967&#45;&gt;&#45;958872990897675935 -->
<g id="edge9" class="edge">
<title>&#45;2423807251853563967&#45;&gt;&#45;958872990897675935</title>
<path fill="none" stroke="#000000" d="M259.6807,-145.0937C259.9616,-152.6428 260.2976,-161.6773 260.6256,-170.495"/>
<polygon fill="#000000" stroke="#000000" points="257.1338,-170.7815 261.0032,-180.6445 264.1289,-170.5212 257.1338,-170.7815"/>
</g>
<!-- &#45;8062141094119310337 -->
<g id="node15" class="node">
<title>&#45;8062141094119310337</title>
<ellipse fill="none" stroke="#000000" cx="428" cy="-36.3968" rx="34.394" ry="34.394"/>
<text text-anchor="middle" x="428" y="-32.6968" font-family="Times,serif" font-size="14.00" fill="#000000">count1</text>
</g>
<!-- &#45;8062141094119310337&#45;&gt;8573691167711918558 -->
<g id="edge11" class="edge">
<title>&#45;8062141094119310337&#45;&gt;8573691167711918558</title>
<path fill="none" stroke="#000000" d="M424.5718,-70.8298C423.6677,-79.9106 422.7023,-89.607 421.8335,-98.3339"/>
<polygon fill="#000000" stroke="#000000" points="418.3402,-98.0939 420.8321,-108.3914 425.3057,-98.7874 418.3402,-98.0939"/>
</g>
<!-- 5905183074790013912 -->
<g id="node16" class="node">
<title>5905183074790013912</title>
<ellipse fill="none" stroke="#000000" cx="339" cy="-36.3968" rx="36.2938" ry="36.2938"/>
<text text-anchor="middle" x="339" y="-32.6968" font-family="Times,serif" font-size="14.00" fill="#000000">nwords</text>
</g>
<!-- 5905183074790013912&#45;&gt;&#45;4261785523909184813 -->
<g id="edge12" class="edge">
<title>5905183074790013912&#45;&gt;&#45;4261785523909184813</title>
<path fill="none" stroke="#000000" d="M339,-72.904C339,-81.4899 339,-90.5106 339,-98.6629"/>
<polygon fill="#000000" stroke="#000000" points="335.5001,-98.7701 339,-108.7702 342.5001,-98.7702 335.5001,-98.7701"/>
</g>
<!-- &#45;3758653946524536369 -->
<g id="node17" class="node">
<title>&#45;3758653946524536369</title>
<ellipse fill="none" stroke="#000000" cx="250" cy="-36.3968" rx="34.394" ry="34.394"/>
<text text-anchor="middle" x="250" y="-32.6968" font-family="Times,serif" font-size="14.00" fill="#000000">count2</text>
</g>
<!-- &#45;3758653946524536369&#45;&gt;&#45;2423807251853563967 -->
<g id="edge13" class="edge">
<title>&#45;3758653946524536369&#45;&gt;&#45;2423807251853563967</title>
<path fill="none" stroke="#000000" d="M253.4282,-70.8298C254.3323,-79.9106 255.2977,-89.607 256.1665,-98.3339"/>
<polygon fill="#000000" stroke="#000000" points="252.6943,-98.7874 257.1679,-108.3914 259.6598,-98.0939 252.6943,-98.7874"/>
</g>
</g>
</svg>
