<?xml version="1.0" encoding="UTF-8" standalone="no"?>
<!DOCTYPE svg PUBLIC "-//W3C//DTD SVG 1.1//EN"
 "http://www.w3.org/Graphics/SVG/1.1/DTD/svg11.dtd">
<!-- Generated by graphviz version 2.40.1 (20161225.0304)
 -->
<!-- Title: %3 Pages: 1 -->
<svg width="302pt" height="558pt"
 viewBox="0.00 0.00 302.00 557.78" xmlns="http://www.w3.org/2000/svg" xmlns:xlink="http://www.w3.org/1999/xlink">
<g id="graph0" class="graph" transform="scale(1 1) rotate(0) translate(4 553.7832)">
<title>%3</title>
<polygon fill="#ffffff" stroke="transparent" points="-4,4 -4,-553.7832 298,-553.7832 298,4 -4,4"/>
<!-- 3841792670821254683 -->
<g id="node1" class="node">
<title>3841792670821254683</title>
<polygon fill="none" stroke="#000000" points="263,-549.7832 209,-549.7832 209,-513.7832 263,-513.7832 263,-549.7832"/>
</g>
<!-- 384411059217416665 -->
<g id="node2" class="node">
<title>384411059217416665</title>
<ellipse fill="none" stroke="#000000" cx="236" cy="-445.936" rx="31.6951" ry="31.6951"/>
<text text-anchor="middle" x="236" y="-442.236" font-family="Times,serif" font-size="14.00" fill="#000000">print1</text>
</g>
<!-- 384411059217416665&#45;&gt;3841792670821254683 -->
<g id="edge1" class="edge">
<title>384411059217416665&#45;&gt;3841792670821254683</title>
<path fill="none" stroke="#000000" d="M236,-477.9023C236,-486.2552 236,-495.2013 236,-503.3564"/>
<polygon fill="#000000" stroke="#000000" points="232.5001,-503.5049 236,-513.5049 239.5001,-503.505 232.5001,-503.5049"/>
</g>
<!-- 5798186715971559651 -->
<g id="node3" class="node">
<title>5798186715971559651</title>
<polygon fill="none" stroke="#000000" points="263,-378.0888 209,-378.0888 209,-342.0888 263,-342.0888 263,-378.0888"/>
</g>
<!-- 5798186715971559651&#45;&gt;384411059217416665 -->
<g id="edge2" class="edge">
<title>5798186715971559651&#45;&gt;384411059217416665</title>
<path fill="none" stroke="#000000" d="M236,-378.2948C236,-385.8044 236,-394.8452 236,-403.8377"/>
<polygon fill="#000000" stroke="#000000" points="232.5001,-403.8857 236,-413.8857 239.5001,-403.8858 232.5001,-403.8857"/>
</g>
<!-- &#45;1139820312472844916 -->
<g id="node4" class="node">
<title>&#45;1139820312472844916</title>
<polygon fill="none" stroke="#000000" points="85,-549.7832 31,-549.7832 31,-513.7832 85,-513.7832 85,-549.7832"/>
</g>
<!-- &#45;4025874817067372950 -->
<g id="node5" class="node">
<title>&#45;4025874817067372950</title>
<ellipse fill="none" stroke="#000000" cx="58" cy="-445.936" rx="31.6951" ry="31.6951"/>
<text text-anchor="middle" x="58" y="-442.236" font-family="Times,serif" font-size="14.00" fill="#000000">print2</text>
</g>
<!-- &#45;4025874817067372950&#45;&gt;&#45;1139820312472844916 -->
<g id="edge3" class="edge">
<title>&#45;4025874817067372950&#45;&gt;&#45;1139820312472844916</title>
<path fill="none" stroke="#000000" d="M58,-477.9023C58,-486.2552 58,-495.2013 58,-503.3564"/>
<polygon fill="#000000" stroke="#000000" points="54.5001,-503.5049 58,-513.5049 61.5001,-503.505 54.5001,-503.5049"/>
</g>
<!-- 7570564659782590272 -->
<g id="node6" class="node">
<title>7570564659782590272</title>
<polygon fill="none" stroke="#000000" points="85,-378.0888 31,-378.0888 31,-342.0888 85,-342.0888 85,-378.0888"/>
</g>
<!-- 7570564659782590272&#45;&gt;&#45;4025874817067372950 -->
<g id="edge4" class="edge">
<title>7570564659782590272&#45;&gt;&#45;4025874817067372950</title>
<path fill="none" stroke="#000000" d="M58,-378.2948C58,-385.8044 58,-394.8452 58,-403.8377"/>
<polygon fill="#000000" stroke="#000000" points="54.5001,-403.8857 58,-413.8857 61.5001,-403.8858 54.5001,-403.8857"/>
</g>
<!-- &#45;7875926968995283561 -->
<g id="node7" class="node">
<title>&#45;7875926968995283561</title>
<ellipse fill="none" stroke="#000000" cx="236" cy="-279.4412" rx="26.7961" ry="26.7961"/>
<text text-anchor="middle" x="236" y="-275.7412" font-family="Times,serif" font-size="14.00" fill="#000000">out1</text>
</g>
<!-- &#45;7875926968995283561&#45;&gt;5798186715971559651 -->
<g id="edge5" class="edge">
<title>&#45;7875926968995283561&#45;&gt;5798186715971559651</title>
<path fill="none" stroke="#000000" d="M236,-306.2957C236,-314.5435 236,-323.6407 236,-331.9706"/>
<polygon fill="#000000" stroke="#000000" points="232.5001,-331.9899 236,-341.9899 239.5001,-331.9899 232.5001,-331.9899"/>
</g>
<!-- &#45;4261785523909184813 -->
<g id="node8" class="node">
<title>&#45;4261785523909184813</title>
<polygon fill="none" stroke="#000000" points="174,-216.7935 120,-216.7935 120,-180.7935 174,-180.7935 174,-216.7935"/>
</g>
<!-- &#45;4261785523909184813&#45;&gt;&#45;7875926968995283561 -->
<g id="edge6" class="edge">
<title>&#45;4261785523909184813&#45;&gt;&#45;7875926968995283561</title>
<path fill="none" stroke="#000000" d="M167.1955,-217.0937C179.457,-228.2045 195.2697,-242.5333 208.6437,-254.6522"/>
<polygon fill="#000000" stroke="#000000" points="206.4306,-257.37 216.191,-261.4912 211.131,-252.1828 206.4306,-257.37"/>
</g>
<!-- &#45;958872990897675935 -->
<g id="node11" class="node">
<title>&#45;958872990897675935</title>
<ellipse fill="none" stroke="#000000" cx="58" cy="-279.4412" rx="26.7961" ry="26.7961"/>
<text text-anchor="middle" x="58" y="-275.7412" font-family="Times,serif" font-size="14.00" fill="#000000">out2</text>
</g>
<!-- &#45;4261785523909184813&#45;&gt;&#45;958872990897675935 -->
<g id="edge11" class="edge">
<title>&#45;4261785523909184813&#45;&gt;&#45;958872990897675935</title>
<path fill="none" stroke="#000000" d="M126.8045,-217.0937C114.543,-228.2045 98.7303,-242.5333 85.3563,-254.6522"/>
<polygon fill="#000000" stroke="#000000" points="82.869,-252.1828 77.809,-261.4912 87.5694,-257.37 82.869,-252.1828"/>
</g>
<!-- 8573691167711918558 -->
<g id="node9" class="node">
<title>8573691167711918558</title>
<polygon fill="none" stroke="#000000" points="263,-216.7935 209,-216.7935 209,-180.7935 263,-180.7935 263,-216.7935"/>
</g>
<!-- 8573691167711918558&#45;&gt;&#45;7875926968995283561 -->
<g id="edge7" class="edge">
<title>8573691167711918558&#45;&gt;&#45;7875926968995283561</title>
<path fill="none" stroke="#000000" d="M236,-217.0937C236,-224.6428 236,-233.6773 236,-242.495"/>
<polygon fill="#000000" stroke="#000000" points="232.5001,-242.6444 236,-252.6445 239.5001,-242.6445 232.5001,-242.6444"/>
</g>
<!-- 4126966504162038615 -->
<g id="node10" class="node">
<title>4126966504162038615</title>
<polygon fill="none" stroke="#000000" points="294,-36 240,-36 240,0 294,0 294,-36"/>
</g>
<!-- 4126966504162038615&#45;&gt;&#45;7875926968995283561 -->
<g id="edge8" class="edge">
<title>4126966504162038615&#45;&gt;&#45;7875926968995283561</title>
<path fill="none" stroke="#000000" d="M272.1191,-36.3273C274.752,-46.7022 277.6796,-59.9716 279,-72 286.0302,-136.0431 291.6077,-155.4219 272,-216.7935 268.4633,-227.8633 262.7719,-239.1253 256.9485,-248.9908"/>
<polygon fill="#000000" stroke="#000000" points="253.9001,-247.2659 251.6213,-257.6127 259.8551,-250.9453 253.9001,-247.2659"/>
</g>
<!-- &#45;8062141094119310337 -->
<g id="node14" class="node">
<title>&#45;8062141094119310337</title>
<ellipse fill="none" stroke="#000000" cx="236" cy="-108.3968" rx="34.394" ry="34.394"/>
<text text-anchor="middle" x="236" y="-104.6968" font-family="Times,serif" font-size="14.00" fill="#000000">count1</text>
</g>
<!-- 4126966504162038615&#45;&gt;&#45;8062141094119310337 -->
<g id="edge15" class="edge">
<title>4126966504162038615&#45;&gt;&#45;8062141094119310337</title>
<path fill="none" stroke="#000000" d="M260.7267,-36.2931C257.7738,-44.9039 254.1184,-55.563 250.5324,-66.0199"/>
<polygon fill="#000000" stroke="#000000" points="247.214,-64.9071 247.2808,-75.5017 253.8355,-67.1779 247.214,-64.9071"/>
</g>
<!-- &#45;958872990897675935&#45;&gt;7570564659782590272 -->
<g id="edge9" class="edge">
<title>&#45;958872990897675935&#45;&gt;7570564659782590272</title>
<path fill="none" stroke="#000000" d="M58,-306.2957C58,-314.5435 58,-323.6407 58,-331.9706"/>
<polygon fill="#000000" stroke="#000000" points="54.5001,-331.9899 58,-341.9899 61.5001,-331.9899 54.5001,-331.9899"/>
</g>
<!-- &#45;2423807251853563967 -->
<g id="node12" class="node">
<title>&#45;2423807251853563967</title>
<polygon fill="none" stroke="#000000" points="85,-216.7935 31,-216.7935 31,-180.7935 85,-180.7935 85,-216.7935"/>
</g>
<!-- &#45;2423807251853563967&#45;&gt;&#45;958872990897675935 -->
<g id="edge10" class="edge">
<title>&#45;2423807251853563967&#45;&gt;&#45;958872990897675935</title>
<path fill="none" stroke="#000000" d="M58,-217.0937C58,-224.6428 58,-233.6773 58,-242.495"/>
<polygon fill="#000000" stroke="#000000" points="54.5001,-242.6444 58,-252.6445 61.5001,-242.6445 54.5001,-242.6444"/>
</g>
<!-- &#45;665100954636097754 -->
<g id="node13" class="node">
<title>&#45;665100954636097754</title>
<polygon fill="none" stroke="#000000" points="54,-36 0,-36 0,0 54,0 54,-36"/>
</g>
<!-- &#45;665100954636097754&#45;&gt;&#45;958872990897675935 -->
<g id="edge12" class="edge">
<title>&#45;665100954636097754&#45;&gt;&#45;958872990897675935</title>
<path fill="none" stroke="#000000" d="M21.8809,-36.3273C19.248,-46.7022 16.3204,-59.9716 15,-72 7.9698,-136.0431 2.3923,-155.4219 22,-216.7935 25.5367,-227.8633 31.2281,-239.1253 37.0515,-248.9908"/>
<polygon fill="#000000" stroke="#000000" points="34.1449,-250.9453 42.3787,-257.6127 40.0999,-247.2659 34.1449,-250.9453"/>
</g>
<!-- &#45;3758653946524536369 -->
<g id="node17" class="node">
<title>&#45;3758653946524536369</title>
<ellipse fill="none" stroke="#000000" cx="58" cy="-108.3968" rx="34.394" ry="34.394"/>
<text text-anchor="middle" x="58" y="-104.6968" font-family="Times,serif" font-size="14.00" fill="#000000">count2</text>
</g>
<!-- &#45;665100954636097754&#45;&gt;&#45;3758653946524536369 -->
<g id="edge20" class="edge">
<title>&#45;665100954636097754&#45;&gt;&#45;3758653946524536369</title>
<path fill="none" stroke="#000000" d="M33.2733,-36.2931C36.2262,-44.9039 39.8816,-55.563 43.4676,-66.0199"/>
<polygon fill="#000000" stroke="#000000" points="40.1645,-67.1779 46.7192,-75.5017 46.786,-64.9071 40.1645,-67.1779"/>
</g>
<!-- &#45;8062141094119310337&#45;&gt;8573691167711918558 -->
<g id="edge13" class="edge">
<title>&#45;8062141094119310337&#45;&gt;8573691167711918558</title>
<path fill="none" stroke="#000000" d="M236,-143.088C236,-152.1497 236,-161.808 236,-170.4936"/>
<polygon fill="#000000" stroke="#000000" points="232.5001,-170.5004 236,-180.5004 239.5001,-170.5004 232.5001,-170.5004"/>
</g>
<!-- 4817490249130044912 -->
<g id="node15" class="node">
<title>4817490249130044912</title>
<polygon fill="none" stroke="#000000" points="174,-36 120,-36 120,0 174,0 174,-36"/>
</g>
<!-- 4817490249130044912&#45;&gt;&#45;8062141094119310337 -->
<g id="edge14" class="edge">
<title>4817490249130044912&#45;&gt;&#45;8062141094119310337</title>
<path fill="none" stroke="#000000" d="M165.0105,-36.2931C176.3246,-47.7849 191.2308,-62.9249 204.4619,-76.3637"/>
<polygon fill="#000000" stroke="#000000" points="202.0969,-78.9504 211.6068,-83.6207 207.0851,-74.0393 202.0969,-78.9504"/>
</g>
<!-- 5905183074790013912 -->
<g id="node16" class="node">
<title>5905183074790013912</title>
<ellipse fill="none" stroke="#000000" cx="147" cy="-108.3968" rx="36.2938" ry="36.2938"/>
<text text-anchor="middle" x="147" y="-104.6968" font-family="Times,serif" font-size="14.00" fill="#000000">nwords</text>
</g>
<!-- 4817490249130044912&#45;&gt;5905183074790013912 -->
<g id="edge17" class="edge">
<title>4817490249130044912&#45;&gt;5905183074790013912</title>
<path fill="none" stroke="#000000" d="M147,-36.2931C147,-43.7149 147,-52.6583 147,-61.6825"/>
<polygon fill="#000000" stroke="#000000" points="143.5001,-61.8284 147,-71.8285 150.5001,-61.8285 143.5001,-61.8284"/>
</g>
<!-- 4817490249130044912&#45;&gt;&#45;3758653946524536369 -->
<g id="edge19" class="edge">
<title>4817490249130044912&#45;&gt;&#45;3758653946524536369</title>
<path fill="none" stroke="#000000" d="M128.9895,-36.2931C117.6754,-47.7849 102.7692,-62.9249 89.5381,-76.3637"/>
<polygon fill="#000000" stroke="#000000" points="86.9149,-74.0393 82.3932,-83.6207 91.9031,-78.9504 86.9149,-74.0393"/>
</g>
<!-- 5905183074790013912&#45;&gt;&#45;4261785523909184813 -->
<g id="edge16" class="edge">
<title>5905183074790013912&#45;&gt;&#45;4261785523909184813</title>
<path fill="none" stroke="#000000" d="M147,-144.904C147,-153.4899 147,-162.5106 147,-170.6629"/>
<polygon fill="#000000" stroke="#000000" points="143.5001,-170.7701 147,-180.7702 150.5001,-170.7702 143.5001,-170.7701"/>
</g>
<!-- &#45;3758653946524536369&#45;&gt;&#45;2423807251853563967 -->
<g id="edge18" class="edge">
<title>&#45;3758653946524536369&#45;&gt;&#45;2423807251853563967</title>
<path fill="none" stroke="#000000" d="M58,-143.088C58,-152.1497 58,-161.808 58,-170.4936"/>
<polygon fill="#000000" stroke="#000000" points="54.5001,-170.5004 58,-180.5004 61.5001,-170.5004 54.5001,-170.5004"/>
</g>
</g>
</svg>
