<?xml version="1.0" encoding="UTF-8" standalone="no"?>
<!DOCTYPE svg PUBLIC "-//W3C//DTD SVG 1.1//EN"
 "http://www.w3.org/Graphics/SVG/1.1/DTD/svg11.dtd">
<!-- Generated by graphviz version 2.40.1 (20161225.0304)
 -->
<!-- Title: %3 Pages: 1 -->
<svg width="182pt" height="291pt"
 viewBox="0.00 0.00 181.99 290.58" xmlns="http://www.w3.org/2000/svg" xmlns:xlink="http://www.w3.org/1999/xlink">
<g id="graph0" class="graph" transform="scale(1 1) rotate(0) translate(4 286.5813)">
<title>%3</title>
<polygon fill="#ffffff" stroke="transparent" points="-4,4 -4,-286.5813 177.9931,-286.5813 177.9931,4 -4,4"/>
<!-- 9194842205208052348 -->
<g id="node1" class="node">
<title>9194842205208052348</title>
<ellipse fill="none" stroke="#000000" cx="38.9965" cy="-250.7341" rx="31.6951" ry="31.6951"/>
<text text-anchor="middle" x="38.9965" y="-247.0341" font-family="Times,serif" font-size="14.00" fill="#000000">print1</text>
</g>
<!-- &#45;2194791630953700651 -->
<g id="node2" class="node">
<title>&#45;2194791630953700651</title>
<ellipse fill="none" stroke="#000000" cx="38.9965" cy="-143.8904" rx="38.9931" ry="38.9931"/>
<text text-anchor="middle" x="38.9965" y="-140.1904" font-family="Times,serif" font-size="14.00" fill="#000000">format1</text>
</g>
<!-- &#45;2194791630953700651&#45;&gt;9194842205208052348 -->
<g id="edge1" class="edge">
<title>&#45;2194791630953700651&#45;&gt;9194842205208052348</title>
<path fill="none" stroke="#000000" d="M38.9965,-183.0684C38.9965,-191.2761 38.9965,-199.9677 38.9965,-208.2881"/>
<polygon fill="#000000" stroke="#000000" points="35.4966,-208.5643 38.9965,-218.5643 42.4966,-208.5644 35.4966,-208.5643"/>
</g>
<!-- 5022637276554243765 -->
<g id="node3" class="node">
<title>5022637276554243765</title>
<ellipse fill="none" stroke="#000000" cx="134.9965" cy="-250.7341" rx="31.6951" ry="31.6951"/>
<text text-anchor="middle" x="134.9965" y="-247.0341" font-family="Times,serif" font-size="14.00" fill="#000000">print2</text>
</g>
<!-- 90492689105354559 -->
<g id="node4" class="node">
<title>90492689105354559</title>
<ellipse fill="none" stroke="#000000" cx="134.9965" cy="-143.8904" rx="38.9931" ry="38.9931"/>
<text text-anchor="middle" x="134.9965" y="-140.1904" font-family="Times,serif" font-size="14.00" fill="#000000">format2</text>
</g>
<!-- 90492689105354559&#45;&gt;5022637276554243765 -->
<g id="edge2" class="edge">
<title>90492689105354559&#45;&gt;5022637276554243765</title>
<path fill="none" stroke="#000000" d="M134.9965,-183.0684C134.9965,-191.2761 134.9965,-199.9677 134.9965,-208.2881"/>
<polygon fill="#000000" stroke="#000000" points="131.4966,-208.5643 134.9965,-218.5643 138.4966,-208.5644 131.4966,-208.5643"/>
</g>
<!-- 3716871435232496467 -->
<g id="node5" class="node">
<title>3716871435232496467</title>
<ellipse fill="none" stroke="#000000" cx="38.9965" cy="-34.4469" rx="34.394" ry="34.394"/>
<text text-anchor="middle" x="38.9965" y="-30.7469" font-family="Times,serif" font-size="14.00" fill="#000000">count1</text>
</g>
<!-- 3716871435232496467&#45;&gt;&#45;2194791630953700651 -->
<g id="edge3" class="edge">
<title>3716871435232496467&#45;&gt;&#45;2194791630953700651</title>
<path fill="none" stroke="#000000" d="M38.9965,-69.0755C38.9965,-77.0895 38.9965,-85.7711 38.9965,-94.2859"/>
<polygon fill="#000000" stroke="#000000" points="35.4966,-94.5334 38.9965,-104.5334 42.4966,-94.5335 35.4966,-94.5334"/>
</g>
<!-- 6949368097385664293 -->
<g id="node6" class="node">
<title>6949368097385664293</title>
<ellipse fill="none" stroke="#000000" cx="134.9965" cy="-34.4469" rx="34.394" ry="34.394"/>
<text text-anchor="middle" x="134.9965" y="-30.7469" font-family="Times,serif" font-size="14.00" fill="#000000">count2</text>
</g>
<!-- 6949368097385664293&#45;&gt;90492689105354559 -->
<g id="edge4" class="edge">
<title>6949368097385664293&#45;&gt;90492689105354559</title>
<path fill="none" stroke="#000000" d="M134.9965,-69.0755C134.9965,-77.0895 134.9965,-85.7711 134.9965,-94.2859"/>
<polygon fill="#000000" stroke="#000000" points="131.4966,-94.5334 134.9965,-104.5334 138.4966,-94.5335 131.4966,-94.5334"/>
</g>
</g>
</svg>
