<?xml version="1.0" encoding="UTF-8" standalone="no"?>
<!DOCTYPE svg PUBLIC "-//W3C//DTD SVG 1.1//EN"
 "http://www.w3.org/Graphics/SVG/1.1/DTD/svg11.dtd">
<!-- Generated by graphviz version 2.40.1 (20161225.0304)
 -->
<!-- Title: %3 Pages: 1 -->
<svg width="302pt" height="366pt"
 viewBox="0.00 0.00 302.00 366.48" xmlns="http://www.w3.org/2000/svg" xmlns:xlink="http://www.w3.org/1999/xlink">
<g id="graph0" class="graph" transform="scale(1 1) rotate(0) translate(4 362.481)">
<title>%3</title>
<polygon fill="#ffffff" stroke="transparent" points="-4,4 -4,-362.481 298,-362.481 298,4 -4,4"/>
<!-- 9194842205208052348 -->
<g id="node1" class="node">
<title>9194842205208052348</title>
<ellipse fill="none" stroke="#000000" cx="58" cy="-326.6338" rx="31.6951" ry="31.6951"/>
<text text-anchor="middle" x="58" y="-322.9338" font-family="Times,serif" font-size="14.00" fill="#000000">print1</text>
</g>
<!-- &#45;2194791630953700651 -->
<g id="node2" class="node">
<title>&#45;2194791630953700651</title>
<ellipse fill="none" stroke="#000000" cx="58" cy="-219.7901" rx="38.9931" ry="38.9931"/>
<text text-anchor="middle" x="58" y="-216.0901" font-family="Times,serif" font-size="14.00" fill="#000000">format1</text>
</g>
<!-- &#45;2194791630953700651&#45;&gt;9194842205208052348 -->
<g id="edge1" class="edge">
<title>&#45;2194791630953700651&#45;&gt;9194842205208052348</title>
<path fill="none" stroke="#000000" d="M58,-258.968C58,-267.1757 58,-275.8674 58,-284.1877"/>
<polygon fill="#000000" stroke="#000000" points="54.5001,-284.4639 58,-294.464 61.5001,-284.464 54.5001,-284.4639"/>
</g>
<!-- 5022637276554243765 -->
<g id="node3" class="node">
<title>5022637276554243765</title>
<ellipse fill="none" stroke="#000000" cx="236" cy="-326.6338" rx="31.6951" ry="31.6951"/>
<text text-anchor="middle" x="236" y="-322.9338" font-family="Times,serif" font-size="14.00" fill="#000000">print2</text>
</g>
<!-- 90492689105354559 -->
<g id="node4" class="node">
<title>90492689105354559</title>
<ellipse fill="none" stroke="#000000" cx="236" cy="-219.7901" rx="38.9931" ry="38.9931"/>
<text text-anchor="middle" x="236" y="-216.0901" font-family="Times,serif" font-size="14.00" fill="#000000">format2</text>
</g>
<!-- 90492689105354559&#45;&gt;5022637276554243765 -->
<g id="edge2" class="edge">
<title>90492689105354559&#45;&gt;5022637276554243765</title>
<path fill="none" stroke="#000000" d="M236,-258.968C236,-267.1757 236,-275.8674 236,-284.1877"/>
<polygon fill="#000000" stroke="#000000" points="232.5001,-284.4639 236,-294.464 239.5001,-284.464 232.5001,-284.4639"/>
</g>
<!-- 3716871435232496467 -->
<g id="node5" class="node">
<title>3716871435232496467</title>
<ellipse fill="none" stroke="#000000" cx="58" cy="-108.3968" rx="34.394" ry="34.394"/>
<text text-anchor="middle" x="58" y="-104.6968" font-family="Times,serif" font-size="14.00" fill="#000000">count1</text>
</g>
<!-- 3716871435232496467&#45;&gt;&#45;2194791630953700651 -->
<g id="edge3" class="edge">
<title>3716871435232496467&#45;&gt;&#45;2194791630953700651</title>
<path fill="none" stroke="#000000" d="M58,-143.0317C58,-151.6627 58,-161.085 58,-170.2797"/>
<polygon fill="#000000" stroke="#000000" points="54.5001,-170.5096 58,-180.5096 61.5001,-170.5097 54.5001,-170.5096"/>
</g>
<!-- &#45;1995415989998690348 -->
<g id="node6" class="node">
<title>&#45;1995415989998690348</title>
<polygon fill="none" stroke="#000000" points="54,-36 0,-36 0,0 54,0 54,-36"/>
<text text-anchor="middle" x="27" y="-14.3" font-family="Times,serif" font-size="14.00" fill="#000000">val1</text>
</g>
<!-- &#45;1995415989998690348&#45;&gt;&#45;2194791630953700651 -->
<g id="edge4" class="edge">
<title>&#45;1995415989998690348&#45;&gt;&#45;2194791630953700651</title>
<path fill="none" stroke="#000000" d="M21.2825,-36.3907C14.412,-61.3609 4.9843,-107.1889 15,-144.7935 18.1687,-156.6905 23.7218,-168.6636 29.8059,-179.4424"/>
<polygon fill="#000000" stroke="#000000" points="26.8846,-181.3778 35.0008,-188.1879 32.9029,-177.8029 26.8846,-181.3778"/>
</g>
<!-- &#45;1995415989998690348&#45;&gt;3716871435232496467 -->
<g id="edge10" class="edge">
<title>&#45;1995415989998690348&#45;&gt;3716871435232496467</title>
<path fill="none" stroke="#000000" d="M33.2733,-36.2931C36.2262,-44.9039 39.8816,-55.563 43.4676,-66.0199"/>
<polygon fill="#000000" stroke="#000000" points="40.1645,-67.1779 46.7192,-75.5017 46.786,-64.9071 40.1645,-67.1779"/>
</g>
<!-- 7605293337862961951 -->
<g id="node7" class="node">
<title>7605293337862961951</title>
<ellipse fill="none" stroke="#000000" cx="147" cy="-108.3968" rx="36.2938" ry="36.2938"/>
<text text-anchor="middle" x="147" y="-104.6968" font-family="Times,serif" font-size="14.00" fill="#000000">nwords</text>
</g>
<!-- 7605293337862961951&#45;&gt;&#45;2194791630953700651 -->
<g id="edge5" class="edge">
<title>7605293337862961951&#45;&gt;&#45;2194791630953700651</title>
<path fill="none" stroke="#000000" d="M124.0803,-137.0833C113.3031,-150.5722 100.2977,-166.8499 88.6855,-181.3839"/>
<polygon fill="#000000" stroke="#000000" points="85.9082,-179.2527 82.4006,-189.2501 91.3771,-183.6222 85.9082,-179.2527"/>
</g>
<!-- 7605293337862961951&#45;&gt;90492689105354559 -->
<g id="edge8" class="edge">
<title>7605293337862961951&#45;&gt;90492689105354559</title>
<path fill="none" stroke="#000000" d="M169.9197,-137.0833C180.6969,-150.5722 193.7023,-166.8499 205.3145,-181.3839"/>
<polygon fill="#000000" stroke="#000000" points="202.6229,-183.6222 211.5994,-189.2501 208.0918,-179.2527 202.6229,-183.6222"/>
</g>
<!-- 6949368097385664293 -->
<g id="node8" class="node">
<title>6949368097385664293</title>
<ellipse fill="none" stroke="#000000" cx="236" cy="-108.3968" rx="34.394" ry="34.394"/>
<text text-anchor="middle" x="236" y="-104.6968" font-family="Times,serif" font-size="14.00" fill="#000000">count2</text>
</g>
<!-- 6949368097385664293&#45;&gt;90492689105354559 -->
<g id="edge6" class="edge">
<title>6949368097385664293&#45;&gt;90492689105354559</title>
<path fill="none" stroke="#000000" d="M236,-143.0317C236,-151.6627 236,-161.085 236,-170.2797"/>
<polygon fill="#000000" stroke="#000000" points="232.5001,-170.5096 236,-180.5096 239.5001,-170.5097 232.5001,-170.5096"/>
</g>
<!-- &#45;7224875298001185714 -->
<g id="node9" class="node">
<title>&#45;7224875298001185714</title>
<polygon fill="none" stroke="#000000" points="294,-36 240,-36 240,0 294,0 294,-36"/>
<text text-anchor="middle" x="267" y="-14.3" font-family="Times,serif" font-size="14.00" fill="#000000">val2</text>
</g>
<!-- &#45;7224875298001185714&#45;&gt;90492689105354559 -->
<g id="edge7" class="edge">
<title>&#45;7224875298001185714&#45;&gt;90492689105354559</title>
<path fill="none" stroke="#000000" d="M272.7175,-36.3907C279.588,-61.3609 289.0157,-107.1889 279,-144.7935 275.8313,-156.6905 270.2782,-168.6636 264.1941,-179.4424"/>
<polygon fill="#000000" stroke="#000000" points="261.0971,-177.8029 258.9992,-188.1879 267.1154,-181.3778 261.0971,-177.8029"/>
</g>
<!-- &#45;7224875298001185714&#45;&gt;6949368097385664293 -->
<g id="edge13" class="edge">
<title>&#45;7224875298001185714&#45;&gt;6949368097385664293</title>
<path fill="none" stroke="#000000" d="M260.7267,-36.2931C257.7738,-44.9039 254.1184,-55.563 250.5324,-66.0199"/>
<polygon fill="#000000" stroke="#000000" points="247.214,-64.9071 247.2808,-75.5017 253.8355,-67.1779 247.214,-64.9071"/>
</g>
<!-- 8144402713526405249 -->
<g id="node10" class="node">
<title>8144402713526405249</title>
<polygon fill="none" stroke="#000000" points="174,-36 120,-36 120,0 174,0 174,-36"/>
<text text-anchor="middle" x="147" y="-14.3" font-family="Times,serif" font-size="14.00" fill="#000000">words</text>
</g>
<!-- 8144402713526405249&#45;&gt;3716871435232496467 -->
<g id="edge9" class="edge">
<title>8144402713526405249&#45;&gt;3716871435232496467</title>
<path fill="none" stroke="#000000" d="M128.9895,-36.2931C117.6754,-47.7849 102.7692,-62.9249 89.5381,-76.3637"/>
<polygon fill="#000000" stroke="#000000" points="86.9149,-74.0393 82.3932,-83.6207 91.9031,-78.9504 86.9149,-74.0393"/>
</g>
<!-- 8144402713526405249&#45;&gt;7605293337862961951 -->
<g id="edge11" class="edge">
<title>8144402713526405249&#45;&gt;7605293337862961951</title>
<path fill="none" stroke="#000000" d="M147,-36.2931C147,-43.7149 147,-52.6583 147,-61.6825"/>
<polygon fill="#000000" stroke="#000000" points="143.5001,-61.8284 147,-71.8285 150.5001,-61.8285 143.5001,-61.8284"/>
</g>
<!-- 8144402713526405249&#45;&gt;6949368097385664293 -->
<g id="edge12" class="edge">
<title>8144402713526405249&#45;&gt;6949368097385664293</title>
<path fill="none" stroke="#000000" d="M165.0105,-36.2931C176.3246,-47.7849 191.2308,-62.9249 204.4619,-76.3637"/>
<polygon fill="#000000" stroke="#000000" points="202.0969,-78.9504 211.6068,-83.6207 207.0851,-74.0393 202.0969,-78.9504"/>
</g>
</g>
</svg>
