<?xml version="1.0" encoding="UTF-8" standalone="no"?>
<!DOCTYPE svg PUBLIC "-//W3C//DTD SVG 1.1//EN"
 "http://www.w3.org/Graphics/SVG/1.1/DTD/svg11.dtd">
<!-- Generated by graphviz version 2.40.1 (20161225.0304)
 -->
<!-- Title: %3 Pages: 1 -->
<svg width="255pt" height="294pt"
 viewBox="0.00 0.00 254.89 294.48" xmlns="http://www.w3.org/2000/svg" xmlns:xlink="http://www.w3.org/1999/xlink">
<g id="graph0" class="graph" transform="scale(1 1) rotate(0) translate(4 290.481)">
<title>%3</title>
<polygon fill="#ffffff" stroke="transparent" points="-4,4 -4,-290.481 250.8939,-290.481 250.8939,4 -4,4"/>
<!-- 9194842205208052348 -->
<g id="node1" class="node">
<title>9194842205208052348</title>
<ellipse fill="none" stroke="#000000" cx="75.4469" cy="-254.6338" rx="31.6951" ry="31.6951"/>
<text text-anchor="middle" x="75.4469" y="-250.9338" font-family="Times,serif" font-size="14.00" fill="#000000">print1</text>
</g>
<!-- &#45;2194791630953700651 -->
<g id="node2" class="node">
<title>&#45;2194791630953700651</title>
<ellipse fill="none" stroke="#000000" cx="75.4469" cy="-147.7901" rx="38.9931" ry="38.9931"/>
<text text-anchor="middle" x="75.4469" y="-144.0901" font-family="Times,serif" font-size="14.00" fill="#000000">format1</text>
</g>
<!-- &#45;2194791630953700651&#45;&gt;9194842205208052348 -->
<g id="edge1" class="edge">
<title>&#45;2194791630953700651&#45;&gt;9194842205208052348</title>
<path fill="none" stroke="#000000" d="M75.4469,-186.968C75.4469,-195.1757 75.4469,-203.8674 75.4469,-212.1877"/>
<polygon fill="#000000" stroke="#000000" points="71.947,-212.4639 75.4469,-222.464 78.947,-212.464 71.947,-212.4639"/>
</g>
<!-- 5022637276554243765 -->
<g id="node3" class="node">
<title>5022637276554243765</title>
<ellipse fill="none" stroke="#000000" cx="191.4469" cy="-254.6338" rx="31.6951" ry="31.6951"/>
<text text-anchor="middle" x="191.4469" y="-250.9338" font-family="Times,serif" font-size="14.00" fill="#000000">print2</text>
</g>
<!-- 90492689105354559 -->
<g id="node4" class="node">
<title>90492689105354559</title>
<ellipse fill="none" stroke="#000000" cx="191.4469" cy="-147.7901" rx="38.9931" ry="38.9931"/>
<text text-anchor="middle" x="191.4469" y="-144.0901" font-family="Times,serif" font-size="14.00" fill="#000000">format2</text>
</g>
<!-- 90492689105354559&#45;&gt;5022637276554243765 -->
<g id="edge2" class="edge">
<title>90492689105354559&#45;&gt;5022637276554243765</title>
<path fill="none" stroke="#000000" d="M191.4469,-186.968C191.4469,-195.1757 191.4469,-203.8674 191.4469,-212.1877"/>
<polygon fill="#000000" stroke="#000000" points="187.947,-212.4639 191.4469,-222.464 194.947,-212.464 187.947,-212.4639"/>
</g>
<!-- 3716871435232496467 -->
<g id="node5" class="node">
<title>3716871435232496467</title>
<ellipse fill="none" stroke="#000000" cx="34.4469" cy="-36.3968" rx="34.394" ry="34.394"/>
<text text-anchor="middle" x="34.4469" y="-32.6968" font-family="Times,serif" font-size="14.00" fill="#000000">count1</text>
</g>
<!-- 3716871435232496467&#45;&gt;&#45;2194791630953700651 -->
<g id="edge3" class="edge">
<title>3716871435232496467&#45;&gt;&#45;2194791630953700651</title>
<path fill="none" stroke="#000000" d="M46.4161,-68.9158C50.182,-79.1474 54.4153,-90.6491 58.4606,-101.6397"/>
<polygon fill="#000000" stroke="#000000" points="55.2118,-102.9461 61.9506,-111.1217 61.781,-100.5282 55.2118,-102.9461"/>
</g>
<!-- 7605293337862961951 -->
<g id="node6" class="node">
<title>7605293337862961951</title>
<ellipse fill="none" stroke="#000000" cx="123.4469" cy="-36.3968" rx="36.2938" ry="36.2938"/>
<text text-anchor="middle" x="123.4469" y="-32.6968" font-family="Times,serif" font-size="14.00" fill="#000000">nwords</text>
</g>
<!-- 7605293337862961951&#45;&gt;&#45;2194791630953700651 -->
<g id="edge4" class="edge">
<title>7605293337862961951&#45;&gt;&#45;2194791630953700651</title>
<path fill="none" stroke="#000000" d="M108.9151,-70.1207C104.5188,-80.3233 99.6176,-91.6974 94.9516,-102.5258"/>
<polygon fill="#000000" stroke="#000000" points="91.6733,-101.2894 90.9302,-111.8582 98.1019,-104.0596 91.6733,-101.2894"/>
</g>
<!-- 7605293337862961951&#45;&gt;90492689105354559 -->
<g id="edge6" class="edge">
<title>7605293337862961951&#45;&gt;90492689105354559</title>
<path fill="none" stroke="#000000" d="M142.5697,-67.7225C149.783,-79.5388 158.1091,-93.1781 165.822,-105.8129"/>
<polygon fill="#000000" stroke="#000000" points="162.8447,-107.6532 171.0425,-114.3649 168.8195,-104.0059 162.8447,-107.6532"/>
</g>
<!-- 6949368097385664293 -->
<g id="node7" class="node">
<title>6949368097385664293</title>
<ellipse fill="none" stroke="#000000" cx="212.4469" cy="-36.3968" rx="34.394" ry="34.394"/>
<text text-anchor="middle" x="212.4469" y="-32.6968" font-family="Times,serif" font-size="14.00" fill="#000000">count2</text>
</g>
<!-- 6949368097385664293&#45;&gt;90492689105354559 -->
<g id="edge5" class="edge">
<title>6949368097385664293&#45;&gt;90492689105354559</title>
<path fill="none" stroke="#000000" d="M206.0321,-70.4237C204.3133,-79.5411 202.4215,-89.5764 200.586,-99.3123"/>
<polygon fill="#000000" stroke="#000000" points="197.1166,-98.8235 198.7034,-109.2988 203.9954,-100.1204 197.1166,-98.8235"/>
</g>
</g>
</svg>
