<?xml version="1.0" encoding="UTF-8" standalone="no"?>
<!DOCTYPE svg PUBLIC "-//W3C//DTD SVG 1.1//EN"
 "http://www.w3.org/Graphics/SVG/1.1/DTD/svg11.dtd">
<!-- Generated by graphviz version 2.40.1 (20161225.0304)
 -->
<!-- Title: %3 Pages: 1 -->
<svg width="417pt" height="366pt"
 viewBox="0.00 0.00 416.90 366.48" xmlns="http://www.w3.org/2000/svg" xmlns:xlink="http://www.w3.org/1999/xlink">
<g id="graph0" class="graph" transform="scale(1 1) rotate(0) translate(4 362.481)">
<title>%3</title>
<polygon fill="#ffffff" stroke="transparent" points="-4,4 -4,-362.481 412.9031,-362.481 412.9031,4 -4,4"/>
<!-- 5022637276554243765 -->
<g id="node1" class="node">
<title>5022637276554243765</title>
<ellipse fill="none" stroke="#000000" cx="48.9031" cy="-326.6338" rx="31.6951" ry="31.6951"/>
<text text-anchor="middle" x="48.9031" y="-322.9338" font-family="Times,serif" font-size="14.00" fill="#000000">print2</text>
</g>
<!-- 90492689105354559 -->
<g id="node2" class="node">
<title>90492689105354559</title>
<ellipse fill="none" stroke="#000000" cx="48.9031" cy="-219.7901" rx="38.9931" ry="38.9931"/>
<text text-anchor="middle" x="48.9031" y="-216.0901" font-family="Times,serif" font-size="14.00" fill="#000000">format2</text>
</g>
<!-- 90492689105354559&#45;&gt;5022637276554243765 -->
<g id="edge1" class="edge">
<title>90492689105354559&#45;&gt;5022637276554243765</title>
<path fill="none" stroke="#000000" d="M48.9031,-258.968C48.9031,-267.1757 48.9031,-275.8674 48.9031,-284.1877"/>
<polygon fill="#000000" stroke="#000000" points="45.4032,-284.4639 48.9031,-294.464 52.4032,-284.464 45.4032,-284.4639"/>
</g>
<!-- 7605293337862961951 -->
<g id="node3" class="node">
<title>7605293337862961951</title>
<ellipse fill="none" stroke="#000000" cx="261.9031" cy="-108.3968" rx="36.2938" ry="36.2938"/>
<text text-anchor="middle" x="261.9031" y="-104.6968" font-family="Times,serif" font-size="14.00" fill="#000000">nwords</text>
</g>
<!-- 7605293337862961951&#45;&gt;90492689105354559 -->
<g id="edge14" class="edge">
<title>7605293337862961951&#45;&gt;90492689105354559</title>
<path fill="none" stroke="#000000" d="M234.1201,-132.4786C228.3161,-136.8979 222.0785,-141.2327 215.9031,-144.7935 178.2238,-166.5197 164.5209,-162.8442 124.9031,-180.7935 114.2463,-185.6217 102.9402,-191.1775 92.397,-196.5539"/>
<polygon fill="#000000" stroke="#000000" points="90.649,-193.5172 83.3636,-201.2097 93.8559,-199.7394 90.649,-193.5172"/>
</g>
<!-- &#45;2194791630953700651 -->
<g id="node11" class="node">
<title>&#45;2194791630953700651</title>
<ellipse fill="none" stroke="#000000" cx="172.9031" cy="-219.7901" rx="38.9931" ry="38.9931"/>
<text text-anchor="middle" x="172.9031" y="-216.0901" font-family="Times,serif" font-size="14.00" fill="#000000">format1</text>
</g>
<!-- 7605293337862961951&#45;&gt;&#45;2194791630953700651 -->
<g id="edge11" class="edge">
<title>7605293337862961951&#45;&gt;&#45;2194791630953700651</title>
<path fill="none" stroke="#000000" d="M238.9833,-137.0833C228.2061,-150.5722 215.2007,-166.8499 203.5885,-181.3839"/>
<polygon fill="#000000" stroke="#000000" points="200.8113,-179.2527 197.3036,-189.2501 206.2801,-183.6222 200.8113,-179.2527"/>
</g>
<!-- 9083351654448554583 -->
<g id="node12" class="node">
<title>9083351654448554583</title>
<ellipse fill="none" stroke="#000000" cx="350.9031" cy="-219.7901" rx="38.9931" ry="38.9931"/>
<text text-anchor="middle" x="350.9031" y="-216.0901" font-family="Times,serif" font-size="14.00" fill="#000000">format3</text>
</g>
<!-- 7605293337862961951&#45;&gt;9083351654448554583 -->
<g id="edge17" class="edge">
<title>7605293337862961951&#45;&gt;9083351654448554583</title>
<path fill="none" stroke="#000000" d="M284.8228,-137.0833C295.6,-150.5722 308.6054,-166.8499 320.2176,-181.3839"/>
<polygon fill="#000000" stroke="#000000" points="317.526,-183.6222 326.5025,-189.2501 322.9948,-179.2527 317.526,-183.6222"/>
</g>
<!-- 8144402713526405249 -->
<g id="node4" class="node">
<title>8144402713526405249</title>
<polygon fill="none" stroke="#000000" points="249.9031,-36 195.9031,-36 195.9031,0 249.9031,0 249.9031,-36"/>
<text text-anchor="middle" x="222.9031" y="-14.3" font-family="Times,serif" font-size="14.00" fill="#000000">words</text>
</g>
<!-- 8144402713526405249&#45;&gt;7605293337862961951 -->
<g id="edge2" class="edge">
<title>8144402713526405249&#45;&gt;7605293337862961951</title>
<path fill="none" stroke="#000000" d="M230.7953,-36.2931C234.4421,-44.7459 238.9404,-55.1725 243.3719,-65.4441"/>
<polygon fill="#000000" stroke="#000000" points="240.2214,-66.9771 247.3965,-74.7725 246.6487,-64.2041 240.2214,-66.9771"/>
</g>
<!-- 3716871435232496467 -->
<g id="node5" class="node">
<title>3716871435232496467</title>
<ellipse fill="none" stroke="#000000" cx="172.9031" cy="-108.3968" rx="34.394" ry="34.394"/>
<text text-anchor="middle" x="172.9031" y="-104.6968" font-family="Times,serif" font-size="14.00" fill="#000000">count1</text>
</g>
<!-- 8144402713526405249&#45;&gt;3716871435232496467 -->
<g id="edge3" class="edge">
<title>8144402713526405249&#45;&gt;3716871435232496467</title>
<path fill="none" stroke="#000000" d="M212.7848,-36.2931C207.561,-45.7374 200.9743,-57.6457 194.6671,-69.0488"/>
<polygon fill="#000000" stroke="#000000" points="191.4776,-67.5841 189.7001,-78.0287 197.603,-70.9722 191.4776,-67.5841"/>
</g>
<!-- 6949368097385664293 -->
<g id="node7" class="node">
<title>6949368097385664293</title>
<ellipse fill="none" stroke="#000000" cx="48.9031" cy="-108.3968" rx="34.394" ry="34.394"/>
<text text-anchor="middle" x="48.9031" y="-104.6968" font-family="Times,serif" font-size="14.00" fill="#000000">count2</text>
</g>
<!-- 8144402713526405249&#45;&gt;6949368097385664293 -->
<g id="edge5" class="edge">
<title>8144402713526405249&#45;&gt;6949368097385664293</title>
<path fill="none" stroke="#000000" d="M195.7156,-32.1245C166.9718,-47.0575 121.3452,-70.7615 88.5845,-87.7814"/>
<polygon fill="#000000" stroke="#000000" points="86.9705,-84.6757 79.7102,-92.3918 90.1977,-90.8874 86.9705,-84.6757"/>
</g>
<!-- 1850821178809859933 -->
<g id="node9" class="node">
<title>1850821178809859933</title>
<ellipse fill="none" stroke="#000000" cx="350.9031" cy="-108.3968" rx="34.394" ry="34.394"/>
<text text-anchor="middle" x="350.9031" y="-104.6968" font-family="Times,serif" font-size="14.00" fill="#000000">count3</text>
</g>
<!-- 8144402713526405249&#45;&gt;1850821178809859933 -->
<g id="edge7" class="edge">
<title>8144402713526405249&#45;&gt;1850821178809859933</title>
<path fill="none" stroke="#000000" d="M249.9313,-34.2293C266.6725,-44.5602 288.4282,-58.4951 306.9031,-72 310.1419,-74.3676 313.4563,-76.8962 316.7414,-79.4757"/>
<polygon fill="#000000" stroke="#000000" points="314.7969,-82.4027 324.7874,-85.9299 319.177,-76.9424 314.7969,-82.4027"/>
</g>
<!-- 3716871435232496467&#45;&gt;&#45;2194791630953700651 -->
<g id="edge9" class="edge">
<title>3716871435232496467&#45;&gt;&#45;2194791630953700651</title>
<path fill="none" stroke="#000000" d="M172.9031,-143.0317C172.9031,-151.6627 172.9031,-161.085 172.9031,-170.2797"/>
<polygon fill="#000000" stroke="#000000" points="169.4032,-170.5096 172.9031,-180.5096 176.4032,-170.5097 169.4032,-170.5096"/>
</g>
<!-- &#45;1995415989998690348 -->
<g id="node6" class="node">
<title>&#45;1995415989998690348</title>
<polygon fill="none" stroke="#000000" points="155.9031,-36 101.9031,-36 101.9031,0 155.9031,0 155.9031,-36"/>
<text text-anchor="middle" x="128.9031" y="-14.3" font-family="Times,serif" font-size="14.00" fill="#000000">val1</text>
</g>
<!-- &#45;1995415989998690348&#45;&gt;3716871435232496467 -->
<g id="edge4" class="edge">
<title>&#45;1995415989998690348&#45;&gt;3716871435232496467</title>
<path fill="none" stroke="#000000" d="M137.8071,-36.2931C142.28,-45.4826 147.8885,-57.0051 153.3011,-68.1251"/>
<polygon fill="#000000" stroke="#000000" points="150.2487,-69.8514 157.7723,-77.3111 156.5427,-66.7878 150.2487,-69.8514"/>
</g>
<!-- &#45;1995415989998690348&#45;&gt;&#45;2194791630953700651 -->
<g id="edge10" class="edge">
<title>&#45;1995415989998690348&#45;&gt;&#45;2194791630953700651</title>
<path fill="none" stroke="#000000" d="M126.2226,-36.0262C123.1442,-60.9675 119.7265,-107.1822 129.9031,-144.7935 133.1186,-156.6779 138.6886,-168.6465 144.7739,-179.425"/>
<polygon fill="#000000" stroke="#000000" points="141.8518,-181.3591 149.9665,-188.1711 147.8709,-177.7856 141.8518,-181.3591"/>
</g>
<!-- 6949368097385664293&#45;&gt;90492689105354559 -->
<g id="edge12" class="edge">
<title>6949368097385664293&#45;&gt;90492689105354559</title>
<path fill="none" stroke="#000000" d="M48.9031,-143.0317C48.9031,-151.6627 48.9031,-161.085 48.9031,-170.2797"/>
<polygon fill="#000000" stroke="#000000" points="45.4032,-170.5096 48.9031,-180.5096 52.4032,-170.5097 45.4032,-170.5096"/>
</g>
<!-- &#45;7224875298001185714 -->
<g id="node8" class="node">
<title>&#45;7224875298001185714</title>
<polygon fill="none" stroke="#000000" points="57.9031,-36 3.9031,-36 3.9031,0 57.9031,0 57.9031,-36"/>
<text text-anchor="middle" x="30.9031" y="-14.3" font-family="Times,serif" font-size="14.00" fill="#000000">val2</text>
</g>
<!-- &#45;7224875298001185714&#45;&gt;90492689105354559 -->
<g id="edge13" class="edge">
<title>&#45;7224875298001185714&#45;&gt;90492689105354559</title>
<path fill="none" stroke="#000000" d="M20.0151,-36.2867C14.6101,-46.4291 8.6585,-59.4895 5.9031,-72 -1.0559,-103.5954 -2.4236,-113.5307 5.9031,-144.7935 9.0717,-156.6905 14.6249,-168.6636 20.709,-179.4424"/>
<polygon fill="#000000" stroke="#000000" points="17.7876,-181.3778 25.9038,-188.1879 23.8059,-177.8029 17.7876,-181.3778"/>
</g>
<!-- &#45;7224875298001185714&#45;&gt;6949368097385664293 -->
<g id="edge6" class="edge">
<title>&#45;7224875298001185714&#45;&gt;6949368097385664293</title>
<path fill="none" stroke="#000000" d="M34.5456,-36.2931C36.179,-44.496 38.1825,-54.5577 40.1688,-64.5327"/>
<polygon fill="#000000" stroke="#000000" points="36.7493,-65.2828 42.1349,-74.4068 43.6145,-63.9158 36.7493,-65.2828"/>
</g>
<!-- 1850821178809859933&#45;&gt;9083351654448554583 -->
<g id="edge16" class="edge">
<title>1850821178809859933&#45;&gt;9083351654448554583</title>
<path fill="none" stroke="#000000" d="M350.9031,-143.0317C350.9031,-151.6627 350.9031,-161.085 350.9031,-170.2797"/>
<polygon fill="#000000" stroke="#000000" points="347.4032,-170.5096 350.9031,-180.5096 354.4032,-170.5097 347.4032,-170.5096"/>
</g>
<!-- 5733310191445485457 -->
<g id="node10" class="node">
<title>5733310191445485457</title>
<polygon fill="none" stroke="#000000" points="408.9031,-36 354.9031,-36 354.9031,0 408.9031,0 408.9031,-36"/>
<text text-anchor="middle" x="381.9031" y="-14.3" font-family="Times,serif" font-size="14.00" fill="#000000">val3</text>
</g>
<!-- 5733310191445485457&#45;&gt;1850821178809859933 -->
<g id="edge8" class="edge">
<title>5733310191445485457&#45;&gt;1850821178809859933</title>
<path fill="none" stroke="#000000" d="M375.6297,-36.2931C372.6768,-44.9039 369.0215,-55.563 365.4355,-66.0199"/>
<polygon fill="#000000" stroke="#000000" points="362.117,-64.9071 362.1838,-75.5017 368.7385,-67.1779 362.117,-64.9071"/>
</g>
<!-- 5733310191445485457&#45;&gt;9083351654448554583 -->
<g id="edge15" class="edge">
<title>5733310191445485457&#45;&gt;9083351654448554583</title>
<path fill="none" stroke="#000000" d="M387.6206,-36.3907C394.491,-61.3609 403.9188,-107.1889 393.9031,-144.7935 390.7344,-156.6905 385.1812,-168.6636 379.0971,-179.4424"/>
<polygon fill="#000000" stroke="#000000" points="376.0002,-177.8029 373.9023,-188.1879 382.0185,-181.3778 376.0002,-177.8029"/>
</g>
<!-- 9194842205208052348 -->
<g id="node13" class="node">
<title>9194842205208052348</title>
<ellipse fill="none" stroke="#000000" cx="172.9031" cy="-326.6338" rx="31.6951" ry="31.6951"/>
<text text-anchor="middle" x="172.9031" y="-322.9338" font-family="Times,serif" font-size="14.00" fill="#000000">print1</text>
</g>
<!-- &#45;2194791630953700651&#45;&gt;9194842205208052348 -->
<g id="edge18" class="edge">
<title>&#45;2194791630953700651&#45;&gt;9194842205208052348</title>
<path fill="none" stroke="#000000" d="M172.9031,-258.968C172.9031,-267.1757 172.9031,-275.8674 172.9031,-284.1877"/>
<polygon fill="#000000" stroke="#000000" points="169.4032,-284.4639 172.9031,-294.464 176.4032,-284.464 169.4032,-284.4639"/>
</g>
<!-- 9007913784480207671 -->
<g id="node14" class="node">
<title>9007913784480207671</title>
<ellipse fill="none" stroke="#000000" cx="350.9031" cy="-326.6338" rx="31.6951" ry="31.6951"/>
<text text-anchor="middle" x="350.9031" y="-322.9338" font-family="Times,serif" font-size="14.00" fill="#000000">print3</text>
</g>
<!-- 9083351654448554583&#45;&gt;9007913784480207671 -->
<g id="edge19" class="edge">
<title>9083351654448554583&#45;&gt;9007913784480207671</title>
<path fill="none" stroke="#000000" d="M350.9031,-258.968C350.9031,-267.1757 350.9031,-275.8674 350.9031,-284.1877"/>
<polygon fill="#000000" stroke="#000000" points="347.4032,-284.4639 350.9031,-294.464 354.4032,-284.464 347.4032,-284.4639"/>
</g>
</g>
</svg>
