<?xml version="1.0" encoding="UTF-8" standalone="no"?>
<!DOCTYPE svg PUBLIC "-//W3C//DTD SVG 1.1//EN"
 "http://www.w3.org/Graphics/SVG/1.1/DTD/svg11.dtd">
<!-- Generated by graphviz version 2.40.1 (20161225.0304)
 -->
<!-- Title: %3 Pages: 1 -->
<svg width="379pt" height="221pt"
 viewBox="0.00 0.00 379.45 220.89" xmlns="http://www.w3.org/2000/svg" xmlns:xlink="http://www.w3.org/1999/xlink">
<g id="graph0" class="graph" transform="scale(1 1) rotate(0) translate(4 216.8939)">
<title>%3</title>
<polygon fill="#ffffff" stroke="transparent" points="-4,4 -4,-216.8939 375.4469,-216.8939 375.4469,4 -4,4"/>
<!-- 4817490249130044912 -->
<g id="node1" class="node">
<title>4817490249130044912</title>
<polygon fill="none" stroke="#000000" points="54,-52.4469 0,-52.4469 0,-16.4469 54,-16.4469 54,-52.4469"/>
</g>
<!-- &#45;665100954636097754 -->
<g id="node2" class="node">
<title>&#45;665100954636097754</title>
<polygon fill="none" stroke="#000000" points="126,-52.4469 72,-52.4469 72,-16.4469 126,-16.4469 126,-52.4469"/>
</g>
<!-- 4126966504162038615 -->
<g id="node3" class="node">
<title>4126966504162038615</title>
<polygon fill="none" stroke="#000000" points="198,-52.4469 144,-52.4469 144,-16.4469 198,-16.4469 198,-52.4469"/>
</g>
<!-- 3841792670821254683 -->
<g id="node4" class="node">
<title>3841792670821254683</title>
<polygon fill="none" stroke="#000000" points="277,-212.8939 223,-212.8939 223,-176.8939 277,-176.8939 277,-212.8939"/>
</g>
<!-- &#45;4498211967045950907 -->
<g id="node5" class="node">
<title>&#45;4498211967045950907</title>
<polygon fill="none" stroke="#000000" points="277,-140.8939 223,-140.8939 223,-104.8939 277,-104.8939 277,-140.8939"/>
</g>
<!-- &#45;4498211967045950907&#45;&gt;3841792670821254683 -->
<g id="edge1" class="edge">
<title>&#45;4498211967045950907&#45;&gt;3841792670821254683</title>
<path fill="none" stroke="#000000" d="M250,-141.0625C250,-148.7629 250,-157.9195 250,-166.4773"/>
<polygon fill="#000000" stroke="#000000" points="246.5001,-166.4806 250,-176.4806 253.5001,-166.4807 246.5001,-166.4806"/>
</g>
<!-- &#45;1139820312472844916 -->
<g id="node6" class="node">
<title>&#45;1139820312472844916</title>
<polygon fill="none" stroke="#000000" points="364,-212.8939 310,-212.8939 310,-176.8939 364,-176.8939 364,-212.8939"/>
</g>
<!-- &#45;6128958532119238699 -->
<g id="node7" class="node">
<title>&#45;6128958532119238699</title>
<polygon fill="none" stroke="#000000" points="364,-140.8939 310,-140.8939 310,-104.8939 364,-104.8939 364,-140.8939"/>
</g>
<!-- &#45;6128958532119238699&#45;&gt;&#45;1139820312472844916 -->
<g id="edge2" class="edge">
<title>&#45;6128958532119238699&#45;&gt;&#45;1139820312472844916</title>
<path fill="none" stroke="#000000" d="M337,-141.0625C337,-148.7629 337,-157.9195 337,-166.4773"/>
<polygon fill="#000000" stroke="#000000" points="333.5001,-166.4806 337,-176.4806 340.5001,-166.4807 333.5001,-166.4806"/>
</g>
<!-- &#45;3000361280491723773 -->
<g id="node8" class="node">
<title>&#45;3000361280491723773</title>
<ellipse fill="none" stroke="#000000" cx="337" cy="-34.4469" rx="34.394" ry="34.394"/>
<text text-anchor="middle" x="337" y="-30.7469" font-family="Times,serif" font-size="14.00" fill="#000000">count2</text>
</g>
<!-- &#45;3000361280491723773&#45;&gt;&#45;6128958532119238699 -->
<g id="edge3" class="edge">
<title>&#45;3000361280491723773&#45;&gt;&#45;6128958532119238699</title>
<path fill="none" stroke="#000000" d="M337,-68.8961C337,-77.395 337,-86.401 337,-94.5715"/>
<polygon fill="#000000" stroke="#000000" points="333.5001,-94.7183 337,-104.7184 340.5001,-94.7184 333.5001,-94.7183"/>
</g>
<!-- 1232767664115229047 -->
<g id="node9" class="node">
<title>1232767664115229047</title>
<ellipse fill="none" stroke="#000000" cx="250" cy="-34.4469" rx="34.394" ry="34.394"/>
<text text-anchor="middle" x="250" y="-30.7469" font-family="Times,serif" font-size="14.00" fill="#000000">count1</text>
</g>
<!-- 1232767664115229047&#45;&gt;&#45;4498211967045950907 -->
<g id="edge4" class="edge">
<title>1232767664115229047&#45;&gt;&#45;4498211967045950907</title>
<path fill="none" stroke="#000000" d="M250,-68.8961C250,-77.395 250,-86.401 250,-94.5715"/>
<polygon fill="#000000" stroke="#000000" points="246.5001,-94.7183 250,-104.7184 253.5001,-94.7184 246.5001,-94.7183"/>
</g>
</g>
</svg>
