<?xml version="1.0" encoding="UTF-8" standalone="no"?>
<!DOCTYPE svg PUBLIC "-//W3C//DTD SVG 1.1//EN"
 "http://www.w3.org/Graphics/SVG/1.1/DTD/svg11.dtd">
<!-- Generated by graphviz version 2.40.1 (20161225.0304)
 -->
<!-- Title: %3 Pages: 1 -->
<svg width="164pt" height="149pt"
 viewBox="0.00 0.00 163.89 148.89" xmlns="http://www.w3.org/2000/svg" xmlns:xlink="http://www.w3.org/1999/xlink">
<g id="graph0" class="graph" transform="scale(1 1) rotate(0) translate(4 144.8939)">
<title>%3</title>
<polygon fill="#ffffff" stroke="transparent" points="-4,4 -4,-144.8939 159.8939,-144.8939 159.8939,4 -4,4"/>
<!-- 1242807449933300231 -->
<g id="node1" class="node">
<title>1242807449933300231</title>
<ellipse fill="none" stroke="#000000" cx="34.4469" cy="-34.4469" rx="34.394" ry="34.394"/>
<text text-anchor="middle" x="34.4469" y="-30.7469" font-family="Times,serif" font-size="14.00" fill="#000000">count1</text>
</g>
<!-- 9194842205208052348 -->
<g id="node2" class="node">
<title>9194842205208052348</title>
<polygon fill="none" stroke="#000000" points="61.4469,-140.8939 7.4469,-140.8939 7.4469,-104.8939 61.4469,-104.8939 61.4469,-140.8939"/>
<text text-anchor="middle" x="34.4469" y="-119.1939" font-family="Times,serif" font-size="14.00" fill="#000000">print1</text>
</g>
<!-- 1242807449933300231&#45;&gt;9194842205208052348 -->
<g id="edge1" class="edge">
<title>1242807449933300231&#45;&gt;9194842205208052348</title>
<path fill="none" stroke="#000000" d="M34.4469,-68.8961C34.4469,-77.395 34.4469,-86.401 34.4469,-94.5715"/>
<polygon fill="#000000" stroke="#000000" points="30.947,-94.7183 34.4469,-104.7184 37.947,-94.7184 30.947,-94.7183"/>
</g>
<!-- 6590722590589999451 -->
<g id="node3" class="node">
<title>6590722590589999451</title>
<ellipse fill="none" stroke="#000000" cx="121.4469" cy="-34.4469" rx="34.394" ry="34.394"/>
<text text-anchor="middle" x="121.4469" y="-30.7469" font-family="Times,serif" font-size="14.00" fill="#000000">count2</text>
</g>
<!-- 5022637276554243765 -->
<g id="node4" class="node">
<title>5022637276554243765</title>
<polygon fill="none" stroke="#000000" points="148.4469,-140.8939 94.4469,-140.8939 94.4469,-104.8939 148.4469,-104.8939 148.4469,-140.8939"/>
<text text-anchor="middle" x="121.4469" y="-119.1939" font-family="Times,serif" font-size="14.00" fill="#000000">print2</text>
</g>
<!-- 6590722590589999451&#45;&gt;5022637276554243765 -->
<g id="edge2" class="edge">
<title>6590722590589999451&#45;&gt;5022637276554243765</title>
<path fill="none" stroke="#000000" d="M121.4469,-68.8961C121.4469,-77.395 121.4469,-86.401 121.4469,-94.5715"/>
<polygon fill="#000000" stroke="#000000" points="117.947,-94.7183 121.4469,-104.7184 124.947,-94.7184 117.947,-94.7183"/>
</g>
</g>
</svg>
