<?xml version="1.0" encoding="UTF-8" standalone="no"?>
<!DOCTYPE svg PUBLIC "-//W3C//DTD SVG 1.1//EN"
 "http://www.w3.org/Graphics/SVG/1.1/DTD/svg11.dtd">
<!-- Generated by graphviz version 2.40.1 (20161225.0304)
 -->
<!-- Title: %3 Pages: 1 -->
<svg width="379pt" height="482pt"
 viewBox="0.00 0.00 379.45 481.88" xmlns="http://www.w3.org/2000/svg" xmlns:xlink="http://www.w3.org/1999/xlink">
<g id="graph0" class="graph" transform="scale(1 1) rotate(0) translate(4 477.8835)">
<title>%3</title>
<polygon fill="#ffffff" stroke="transparent" points="-4,4 -4,-477.8835 375.4469,-477.8835 375.4469,4 -4,4"/>
<!-- 4817490249130044912 -->
<g id="node1" class="node">
<title>4817490249130044912</title>
<polygon fill="none" stroke="#000000" points="54,-52.4469 0,-52.4469 0,-16.4469 54,-16.4469 54,-52.4469"/>
</g>
<!-- &#45;665100954636097754 -->
<g id="node2" class="node">
<title>&#45;665100954636097754</title>
<polygon fill="none" stroke="#000000" points="126,-52.4469 72,-52.4469 72,-16.4469 126,-16.4469 126,-52.4469"/>
</g>
<!-- 4126966504162038615 -->
<g id="node3" class="node">
<title>4126966504162038615</title>
<polygon fill="none" stroke="#000000" points="198,-52.4469 144,-52.4469 144,-16.4469 198,-16.4469 198,-52.4469"/>
</g>
<!-- 3841792670821254683 -->
<g id="node4" class="node">
<title>3841792670821254683</title>
<polygon fill="none" stroke="#000000" points="277,-473.8835 223,-473.8835 223,-437.8835 277,-437.8835 277,-473.8835"/>
</g>
<!-- 384411059217416665 -->
<g id="node5" class="node">
<title>384411059217416665</title>
<ellipse fill="none" stroke="#000000" cx="250" cy="-370.0363" rx="31.6951" ry="31.6951"/>
<text text-anchor="middle" x="250" y="-366.3363" font-family="Times,serif" font-size="14.00" fill="#000000">print1</text>
</g>
<!-- 384411059217416665&#45;&gt;3841792670821254683 -->
<g id="edge1" class="edge">
<title>384411059217416665&#45;&gt;3841792670821254683</title>
<path fill="none" stroke="#000000" d="M250,-402.0027C250,-410.3555 250,-419.3017 250,-427.4567"/>
<polygon fill="#000000" stroke="#000000" points="246.5001,-427.6053 250,-437.6053 253.5001,-427.6053 246.5001,-427.6053"/>
</g>
<!-- 5798186715971559651 -->
<g id="node6" class="node">
<title>5798186715971559651</title>
<polygon fill="none" stroke="#000000" points="277,-302.1892 223,-302.1892 223,-266.1892 277,-266.1892 277,-302.1892"/>
</g>
<!-- 5798186715971559651&#45;&gt;384411059217416665 -->
<g id="edge2" class="edge">
<title>5798186715971559651&#45;&gt;384411059217416665</title>
<path fill="none" stroke="#000000" d="M250,-302.3951C250,-309.9047 250,-318.9455 250,-327.938"/>
<polygon fill="#000000" stroke="#000000" points="246.5001,-327.9861 250,-337.9861 253.5001,-327.9861 246.5001,-327.9861"/>
</g>
<!-- &#45;1139820312472844916 -->
<g id="node7" class="node">
<title>&#45;1139820312472844916</title>
<polygon fill="none" stroke="#000000" points="364,-473.8835 310,-473.8835 310,-437.8835 364,-437.8835 364,-473.8835"/>
</g>
<!-- &#45;4025874817067372950 -->
<g id="node8" class="node">
<title>&#45;4025874817067372950</title>
<ellipse fill="none" stroke="#000000" cx="337" cy="-370.0363" rx="31.6951" ry="31.6951"/>
<text text-anchor="middle" x="337" y="-366.3363" font-family="Times,serif" font-size="14.00" fill="#000000">print2</text>
</g>
<!-- &#45;4025874817067372950&#45;&gt;&#45;1139820312472844916 -->
<g id="edge3" class="edge">
<title>&#45;4025874817067372950&#45;&gt;&#45;1139820312472844916</title>
<path fill="none" stroke="#000000" d="M337,-402.0027C337,-410.3555 337,-419.3017 337,-427.4567"/>
<polygon fill="#000000" stroke="#000000" points="333.5001,-427.6053 337,-437.6053 340.5001,-427.6053 333.5001,-427.6053"/>
</g>
<!-- 7570564659782590272 -->
<g id="node9" class="node">
<title>7570564659782590272</title>
<polygon fill="none" stroke="#000000" points="364,-302.1892 310,-302.1892 310,-266.1892 364,-266.1892 364,-302.1892"/>
</g>
<!-- 7570564659782590272&#45;&gt;&#45;4025874817067372950 -->
<g id="edge4" class="edge">
<title>7570564659782590272&#45;&gt;&#45;4025874817067372950</title>
<path fill="none" stroke="#000000" d="M337,-302.3951C337,-309.9047 337,-318.9455 337,-327.938"/>
<polygon fill="#000000" stroke="#000000" points="333.5001,-327.9861 337,-337.9861 340.5001,-327.9861 333.5001,-327.9861"/>
</g>
<!-- &#45;7875926968995283561 -->
<g id="node10" class="node">
<title>&#45;7875926968995283561</title>
<ellipse fill="none" stroke="#000000" cx="250" cy="-203.5415" rx="26.7961" ry="26.7961"/>
<text text-anchor="middle" x="250" y="-199.8415" font-family="Times,serif" font-size="14.00" fill="#000000">out1</text>
</g>
<!-- &#45;7875926968995283561&#45;&gt;5798186715971559651 -->
<g id="edge5" class="edge">
<title>&#45;7875926968995283561&#45;&gt;5798186715971559651</title>
<path fill="none" stroke="#000000" d="M250,-230.396C250,-238.6438 250,-247.741 250,-256.071"/>
<polygon fill="#000000" stroke="#000000" points="246.5001,-256.0902 250,-266.0903 253.5001,-256.0903 246.5001,-256.0902"/>
</g>
<!-- 8573691167711918558 -->
<g id="node11" class="node">
<title>8573691167711918558</title>
<polygon fill="none" stroke="#000000" points="277,-140.8939 223,-140.8939 223,-104.8939 277,-104.8939 277,-140.8939"/>
</g>
<!-- 8573691167711918558&#45;&gt;&#45;7875926968995283561 -->
<g id="edge6" class="edge">
<title>8573691167711918558&#45;&gt;&#45;7875926968995283561</title>
<path fill="none" stroke="#000000" d="M250,-141.1941C250,-148.7431 250,-157.7777 250,-166.5953"/>
<polygon fill="#000000" stroke="#000000" points="246.5001,-166.7448 250,-176.7448 253.5001,-166.7448 246.5001,-166.7448"/>
</g>
<!-- &#45;958872990897675935 -->
<g id="node12" class="node">
<title>&#45;958872990897675935</title>
<ellipse fill="none" stroke="#000000" cx="337" cy="-203.5415" rx="26.7961" ry="26.7961"/>
<text text-anchor="middle" x="337" y="-199.8415" font-family="Times,serif" font-size="14.00" fill="#000000">out2</text>
</g>
<!-- &#45;958872990897675935&#45;&gt;7570564659782590272 -->
<g id="edge7" class="edge">
<title>&#45;958872990897675935&#45;&gt;7570564659782590272</title>
<path fill="none" stroke="#000000" d="M337,-230.396C337,-238.6438 337,-247.741 337,-256.071"/>
<polygon fill="#000000" stroke="#000000" points="333.5001,-256.0902 337,-266.0903 340.5001,-256.0903 333.5001,-256.0902"/>
</g>
<!-- &#45;2423807251853563967 -->
<g id="node13" class="node">
<title>&#45;2423807251853563967</title>
<polygon fill="none" stroke="#000000" points="364,-140.8939 310,-140.8939 310,-104.8939 364,-104.8939 364,-140.8939"/>
</g>
<!-- &#45;2423807251853563967&#45;&gt;&#45;958872990897675935 -->
<g id="edge8" class="edge">
<title>&#45;2423807251853563967&#45;&gt;&#45;958872990897675935</title>
<path fill="none" stroke="#000000" d="M337,-141.1941C337,-148.7431 337,-157.7777 337,-166.5953"/>
<polygon fill="#000000" stroke="#000000" points="333.5001,-166.7448 337,-176.7448 340.5001,-166.7448 333.5001,-166.7448"/>
</g>
<!-- &#45;8062141094119310337 -->
<g id="node14" class="node">
<title>&#45;8062141094119310337</title>
<ellipse fill="none" stroke="#000000" cx="250" cy="-34.4469" rx="34.394" ry="34.394"/>
<text text-anchor="middle" x="250" y="-30.7469" font-family="Times,serif" font-size="14.00" fill="#000000">count1</text>
</g>
<!-- &#45;8062141094119310337&#45;&gt;8573691167711918558 -->
<g id="edge9" class="edge">
<title>&#45;8062141094119310337&#45;&gt;8573691167711918558</title>
<path fill="none" stroke="#000000" d="M250,-68.8961C250,-77.395 250,-86.401 250,-94.5715"/>
<polygon fill="#000000" stroke="#000000" points="246.5001,-94.7183 250,-104.7184 253.5001,-94.7184 246.5001,-94.7183"/>
</g>
<!-- &#45;3758653946524536369 -->
<g id="node15" class="node">
<title>&#45;3758653946524536369</title>
<ellipse fill="none" stroke="#000000" cx="337" cy="-34.4469" rx="34.394" ry="34.394"/>
<text text-anchor="middle" x="337" y="-30.7469" font-family="Times,serif" font-size="14.00" fill="#000000">count2</text>
</g>
<!-- &#45;3758653946524536369&#45;&gt;&#45;2423807251853563967 -->
<g id="edge10" class="edge">
<title>&#45;3758653946524536369&#45;&gt;&#45;2423807251853563967</title>
<path fill="none" stroke="#000000" d="M337,-68.8961C337,-77.395 337,-86.401 337,-94.5715"/>
<polygon fill="#000000" stroke="#000000" points="333.5001,-94.7183 337,-104.7184 340.5001,-94.7184 333.5001,-94.7183"/>
</g>
</g>
</svg>
