<?xml version="1.0" encoding="UTF-8" standalone="no"?>
<!DOCTYPE svg PUBLIC "-//W3C//DTD SVG 1.1//EN"
 "http://www.w3.org/Graphics/SVG/1.1/DTD/svg11.dtd">
<!-- Generated by graphviz version 2.40.1 (20161225.0304)
 -->
<!-- Title: %3 Pages: 1 -->
<svg width="426pt" height="558pt"
 viewBox="0.00 0.00 426.00 557.78" xmlns="http://www.w3.org/2000/svg" xmlns:xlink="http://www.w3.org/1999/xlink">
<g id="graph0" class="graph" transform="scale(1 1) rotate(0) translate(4 553.7832)">
<title>%3</title>
<polygon fill="#ffffff" stroke="transparent" points="-4,4 -4,-553.7832 422,-553.7832 422,4 -4,4"/>
<!-- 4817490249130044912 -->
<g id="node1" class="node">
<title>4817490249130044912</title>
<polygon fill="none" stroke="#000000" points="182,-36 128,-36 128,0 182,0 182,-36"/>
</g>
<!-- 5905183074790013912 -->
<g id="node3" class="node">
<title>5905183074790013912</title>
<ellipse fill="none" stroke="#000000" cx="147" cy="-108.3968" rx="36.2938" ry="36.2938"/>
<text text-anchor="middle" x="147" y="-104.6968" font-family="Times,serif" font-size="14.00" fill="#000000">nwords</text>
</g>
<!-- 4817490249130044912&#45;&gt;5905183074790013912 -->
<g id="edge2" class="edge">
<title>4817490249130044912&#45;&gt;5905183074790013912</title>
<path fill="none" stroke="#000000" d="M153.3811,-36.2931C152.7243,-43.7149 151.9328,-52.6583 151.1342,-61.6825"/>
<polygon fill="#000000" stroke="#000000" points="147.6315,-61.5588 150.2362,-71.8285 154.6043,-62.176 147.6315,-61.5588"/>
</g>
<!-- &#45;8062141094119310337 -->
<g id="node8" class="node">
<title>&#45;8062141094119310337</title>
<ellipse fill="none" stroke="#000000" cx="58" cy="-108.3968" rx="34.394" ry="34.394"/>
<text text-anchor="middle" x="58" y="-104.6968" font-family="Times,serif" font-size="14.00" fill="#000000">count1</text>
</g>
<!-- 4817490249130044912&#45;&gt;&#45;8062141094119310337 -->
<g id="edge4" class="edge">
<title>4817490249130044912&#45;&gt;&#45;8062141094119310337</title>
<path fill="none" stroke="#000000" d="M135.3706,-36.2931C122.6424,-48.1549 105.7432,-63.9036 90.9859,-77.6563"/>
<polygon fill="#000000" stroke="#000000" points="88.427,-75.2568 83.4975,-84.635 93.1994,-80.3778 88.427,-75.2568"/>
</g>
<!-- &#45;3758653946524536369 -->
<g id="node10" class="node">
<title>&#45;3758653946524536369</title>
<ellipse fill="none" stroke="#000000" cx="236" cy="-108.3968" rx="34.394" ry="34.394"/>
<text text-anchor="middle" x="236" y="-104.6968" font-family="Times,serif" font-size="14.00" fill="#000000">count2</text>
</g>
<!-- 4817490249130044912&#45;&gt;&#45;3758653946524536369 -->
<g id="edge7" class="edge">
<title>4817490249130044912&#45;&gt;&#45;3758653946524536369</title>
<path fill="none" stroke="#000000" d="M171.3916,-36.2931C181.3615,-47.4197 194.3961,-61.9664 206.1444,-75.0777"/>
<polygon fill="#000000" stroke="#000000" points="203.6001,-77.4829 212.8801,-82.5948 208.8134,-72.8115 203.6001,-77.4829"/>
</g>
<!-- &#45;2641865003472795325 -->
<g id="node12" class="node">
<title>&#45;2641865003472795325</title>
<ellipse fill="none" stroke="#000000" cx="360" cy="-108.3968" rx="34.394" ry="34.394"/>
<text text-anchor="middle" x="360" y="-104.6968" font-family="Times,serif" font-size="14.00" fill="#000000">count3</text>
</g>
<!-- 4817490249130044912&#45;&gt;&#45;2641865003472795325 -->
<g id="edge10" class="edge">
<title>4817490249130044912&#45;&gt;&#45;2641865003472795325</title>
<path fill="none" stroke="#000000" d="M182.1316,-29.708C207.2799,-40.5856 245.7167,-57.2756 279,-72 292.0327,-77.7656 306.2145,-84.1129 319.0163,-89.8702"/>
<polygon fill="#000000" stroke="#000000" points="317.9398,-93.2238 328.4951,-94.1383 320.8139,-86.8411 317.9398,-93.2238"/>
</g>
<!-- &#45;4261785523909184813 -->
<g id="node2" class="node">
<title>&#45;4261785523909184813</title>
<polygon fill="none" stroke="#000000" points="183,-216.7935 129,-216.7935 129,-180.7935 183,-180.7935 183,-216.7935"/>
</g>
<!-- &#45;7875926968995283561 -->
<g id="node14" class="node">
<title>&#45;7875926968995283561</title>
<ellipse fill="none" stroke="#000000" cx="58" cy="-279.4412" rx="26.7961" ry="26.7961"/>
<text text-anchor="middle" x="58" y="-275.7412" font-family="Times,serif" font-size="14.00" fill="#000000">out1</text>
</g>
<!-- &#45;4261785523909184813&#45;&gt;&#45;7875926968995283561 -->
<g id="edge13" class="edge">
<title>&#45;4261785523909184813&#45;&gt;&#45;7875926968995283561</title>
<path fill="none" stroke="#000000" d="M133.7623,-217.0937C119.8488,-228.5436 101.7826,-243.411 86.7819,-255.7555"/>
<polygon fill="#000000" stroke="#000000" points="84.3071,-253.2594 78.8095,-262.3163 88.7551,-258.6645 84.3071,-253.2594"/>
</g>
<!-- &#45;958872990897675935 -->
<g id="node16" class="node">
<title>&#45;958872990897675935</title>
<ellipse fill="none" stroke="#000000" cx="236" cy="-279.4412" rx="26.7961" ry="26.7961"/>
<text text-anchor="middle" x="236" y="-275.7412" font-family="Times,serif" font-size="14.00" fill="#000000">out2</text>
</g>
<!-- &#45;4261785523909184813&#45;&gt;&#45;958872990897675935 -->
<g id="edge18" class="edge">
<title>&#45;4261785523909184813&#45;&gt;&#45;958872990897675935</title>
<path fill="none" stroke="#000000" d="M174.1532,-217.0937C184.6663,-227.6919 198.0837,-241.2179 209.7326,-252.9611"/>
<polygon fill="#000000" stroke="#000000" points="207.5565,-255.7373 217.0839,-260.3719 212.5262,-250.8075 207.5565,-255.7373"/>
</g>
<!-- &#45;5842382644420046369 -->
<g id="node18" class="node">
<title>&#45;5842382644420046369</title>
<ellipse fill="none" stroke="#000000" cx="360" cy="-279.4412" rx="26.7961" ry="26.7961"/>
<text text-anchor="middle" x="360" y="-275.7412" font-family="Times,serif" font-size="14.00" fill="#000000">out3</text>
</g>
<!-- &#45;4261785523909184813&#45;&gt;&#45;5842382644420046369 -->
<g id="edge22" class="edge">
<title>&#45;4261785523909184813&#45;&gt;&#45;5842382644420046369</title>
<path fill="none" stroke="#000000" d="M183.4355,-210.0919C188.9162,-212.3278 194.6364,-214.6465 200,-216.7935 243.1692,-234.0739 293.087,-253.5368 325.5304,-266.1179"/>
<polygon fill="#000000" stroke="#000000" points="324.4222,-269.442 335.0113,-269.7914 326.9513,-262.9149 324.4222,-269.442"/>
</g>
<!-- 5905183074790013912&#45;&gt;&#45;4261785523909184813 -->
<g id="edge1" class="edge">
<title>5905183074790013912&#45;&gt;&#45;4261785523909184813</title>
<path fill="none" stroke="#000000" d="M150.6088,-144.6437C151.4657,-153.2504 152.3675,-162.3081 153.1831,-170.5001"/>
<polygon fill="#000000" stroke="#000000" points="149.721,-171.056 154.1946,-180.66 156.6866,-170.3625 149.721,-171.056"/>
</g>
<!-- 4126966504162038615 -->
<g id="node4" class="node">
<title>4126966504162038615</title>
<polygon fill="none" stroke="#000000" points="54,-36 0,-36 0,0 54,0 54,-36"/>
</g>
<!-- 4126966504162038615&#45;&gt;&#45;8062141094119310337 -->
<g id="edge5" class="edge">
<title>4126966504162038615&#45;&gt;&#45;8062141094119310337</title>
<path fill="none" stroke="#000000" d="M33.2733,-36.2931C36.2262,-44.9039 39.8816,-55.563 43.4676,-66.0199"/>
<polygon fill="#000000" stroke="#000000" points="40.1645,-67.1779 46.7192,-75.5017 46.786,-64.9071 40.1645,-67.1779"/>
</g>
<!-- 4126966504162038615&#45;&gt;&#45;7875926968995283561 -->
<g id="edge15" class="edge">
<title>4126966504162038615&#45;&gt;&#45;7875926968995283561</title>
<path fill="none" stroke="#000000" d="M21.8809,-36.3273C19.248,-46.7022 16.3204,-59.9716 15,-72 7.9698,-136.0431 2.3923,-155.4219 22,-216.7935 25.5367,-227.8633 31.2281,-239.1253 37.0515,-248.9908"/>
<polygon fill="#000000" stroke="#000000" points="34.1449,-250.9453 42.3787,-257.6127 40.0999,-247.2659 34.1449,-250.9453"/>
</g>
<!-- &#45;665100954636097754 -->
<g id="node5" class="node">
<title>&#45;665100954636097754</title>
<polygon fill="none" stroke="#000000" points="289,-36 235,-36 235,0 289,0 289,-36"/>
</g>
<!-- &#45;665100954636097754&#45;&gt;&#45;3758653946524536369 -->
<g id="edge8" class="edge">
<title>&#45;665100954636097754&#45;&gt;&#45;3758653946524536369</title>
<path fill="none" stroke="#000000" d="M256.7385,-36.2931C254.3096,-44.7378 251.3141,-55.1526 248.3625,-65.4147"/>
<polygon fill="#000000" stroke="#000000" points="244.9666,-64.5596 245.5661,-75.1375 251.6939,-66.4946 244.9666,-64.5596"/>
</g>
<!-- &#45;665100954636097754&#45;&gt;&#45;958872990897675935 -->
<g id="edge19" class="edge">
<title>&#45;665100954636097754&#45;&gt;&#45;958872990897675935</title>
<path fill="none" stroke="#000000" d="M269.2439,-36.1634C272.9712,-46.487 277.1188,-59.7597 279,-72 288.787,-135.6802 291.6077,-155.4219 272,-216.7935 268.4633,-227.8633 262.7719,-239.1253 256.9485,-248.9908"/>
<polygon fill="#000000" stroke="#000000" points="253.9001,-247.2659 251.6213,-257.6127 259.8551,-250.9453 253.9001,-247.2659"/>
</g>
<!-- &#45;8971594009341674576 -->
<g id="node6" class="node">
<title>&#45;8971594009341674576</title>
<polygon fill="none" stroke="#000000" points="418,-36 364,-36 364,0 418,0 418,-36"/>
</g>
<!-- &#45;8971594009341674576&#45;&gt;&#45;2641865003472795325 -->
<g id="edge11" class="edge">
<title>&#45;8971594009341674576&#45;&gt;&#45;2641865003472795325</title>
<path fill="none" stroke="#000000" d="M384.7267,-36.2931C381.7738,-44.9039 378.1184,-55.563 374.5324,-66.0199"/>
<polygon fill="#000000" stroke="#000000" points="371.214,-64.9071 371.2808,-75.5017 377.8355,-67.1779 371.214,-64.9071"/>
</g>
<!-- &#45;8971594009341674576&#45;&gt;&#45;5842382644420046369 -->
<g id="edge21" class="edge">
<title>&#45;8971594009341674576&#45;&gt;&#45;5842382644420046369</title>
<path fill="none" stroke="#000000" d="M396.1191,-36.3273C398.752,-46.7022 401.6796,-59.9716 403,-72 410.0302,-136.0431 415.6077,-155.4219 396,-216.7935 392.4633,-227.8633 386.7719,-239.1253 380.9485,-248.9908"/>
<polygon fill="#000000" stroke="#000000" points="377.9001,-247.2659 375.6213,-257.6127 383.8551,-250.9453 377.9001,-247.2659"/>
</g>
<!-- 8573691167711918558 -->
<g id="node7" class="node">
<title>8573691167711918558</title>
<polygon fill="none" stroke="#000000" points="85,-216.7935 31,-216.7935 31,-180.7935 85,-180.7935 85,-216.7935"/>
</g>
<!-- 8573691167711918558&#45;&gt;&#45;7875926968995283561 -->
<g id="edge14" class="edge">
<title>8573691167711918558&#45;&gt;&#45;7875926968995283561</title>
<path fill="none" stroke="#000000" d="M58,-217.0937C58,-224.6428 58,-233.6773 58,-242.495"/>
<polygon fill="#000000" stroke="#000000" points="54.5001,-242.6444 58,-252.6445 61.5001,-242.6445 54.5001,-242.6444"/>
</g>
<!-- &#45;8062141094119310337&#45;&gt;8573691167711918558 -->
<g id="edge3" class="edge">
<title>&#45;8062141094119310337&#45;&gt;8573691167711918558</title>
<path fill="none" stroke="#000000" d="M58,-143.088C58,-152.1497 58,-161.808 58,-170.4936"/>
<polygon fill="#000000" stroke="#000000" points="54.5001,-170.5004 58,-180.5004 61.5001,-170.5004 54.5001,-170.5004"/>
</g>
<!-- &#45;2423807251853563967 -->
<g id="node9" class="node">
<title>&#45;2423807251853563967</title>
<polygon fill="none" stroke="#000000" points="263,-216.7935 209,-216.7935 209,-180.7935 263,-180.7935 263,-216.7935"/>
</g>
<!-- &#45;2423807251853563967&#45;&gt;&#45;958872990897675935 -->
<g id="edge17" class="edge">
<title>&#45;2423807251853563967&#45;&gt;&#45;958872990897675935</title>
<path fill="none" stroke="#000000" d="M236,-217.0937C236,-224.6428 236,-233.6773 236,-242.495"/>
<polygon fill="#000000" stroke="#000000" points="232.5001,-242.6444 236,-252.6445 239.5001,-242.6445 232.5001,-242.6444"/>
</g>
<!-- &#45;3758653946524536369&#45;&gt;&#45;2423807251853563967 -->
<g id="edge6" class="edge">
<title>&#45;3758653946524536369&#45;&gt;&#45;2423807251853563967</title>
<path fill="none" stroke="#000000" d="M236,-143.088C236,-152.1497 236,-161.808 236,-170.4936"/>
<polygon fill="#000000" stroke="#000000" points="232.5001,-170.5004 236,-180.5004 239.5001,-170.5004 232.5001,-170.5004"/>
</g>
<!-- &#45;3392924201362920052 -->
<g id="node11" class="node">
<title>&#45;3392924201362920052</title>
<polygon fill="none" stroke="#000000" points="387,-216.7935 333,-216.7935 333,-180.7935 387,-180.7935 387,-216.7935"/>
</g>
<!-- &#45;3392924201362920052&#45;&gt;&#45;5842382644420046369 -->
<g id="edge23" class="edge">
<title>&#45;3392924201362920052&#45;&gt;&#45;5842382644420046369</title>
<path fill="none" stroke="#000000" d="M360,-217.0937C360,-224.6428 360,-233.6773 360,-242.495"/>
<polygon fill="#000000" stroke="#000000" points="356.5001,-242.6444 360,-252.6445 363.5001,-242.6445 356.5001,-242.6444"/>
</g>
<!-- &#45;2641865003472795325&#45;&gt;&#45;3392924201362920052 -->
<g id="edge9" class="edge">
<title>&#45;2641865003472795325&#45;&gt;&#45;3392924201362920052</title>
<path fill="none" stroke="#000000" d="M360,-143.088C360,-152.1497 360,-161.808 360,-170.4936"/>
<polygon fill="#000000" stroke="#000000" points="356.5001,-170.5004 360,-180.5004 363.5001,-170.5004 356.5001,-170.5004"/>
</g>
<!-- 5798186715971559651 -->
<g id="node13" class="node">
<title>5798186715971559651</title>
<polygon fill="none" stroke="#000000" points="85,-378.0888 31,-378.0888 31,-342.0888 85,-342.0888 85,-378.0888"/>
</g>
<!-- 384411059217416665 -->
<g id="node20" class="node">
<title>384411059217416665</title>
<ellipse fill="none" stroke="#000000" cx="58" cy="-445.936" rx="31.6951" ry="31.6951"/>
<text text-anchor="middle" x="58" y="-442.236" font-family="Times,serif" font-size="14.00" fill="#000000">print1</text>
</g>
<!-- 5798186715971559651&#45;&gt;384411059217416665 -->
<g id="edge25" class="edge">
<title>5798186715971559651&#45;&gt;384411059217416665</title>
<path fill="none" stroke="#000000" d="M58,-378.2948C58,-385.8044 58,-394.8452 58,-403.8377"/>
<polygon fill="#000000" stroke="#000000" points="54.5001,-403.8857 58,-413.8857 61.5001,-403.8858 54.5001,-403.8857"/>
</g>
<!-- &#45;7875926968995283561&#45;&gt;5798186715971559651 -->
<g id="edge12" class="edge">
<title>&#45;7875926968995283561&#45;&gt;5798186715971559651</title>
<path fill="none" stroke="#000000" d="M58,-306.2957C58,-314.5435 58,-323.6407 58,-331.9706"/>
<polygon fill="#000000" stroke="#000000" points="54.5001,-331.9899 58,-341.9899 61.5001,-331.9899 54.5001,-331.9899"/>
</g>
<!-- 7570564659782590272 -->
<g id="node15" class="node">
<title>7570564659782590272</title>
<polygon fill="none" stroke="#000000" points="263,-378.0888 209,-378.0888 209,-342.0888 263,-342.0888 263,-378.0888"/>
</g>
<!-- &#45;4025874817067372950 -->
<g id="node22" class="node">
<title>&#45;4025874817067372950</title>
<ellipse fill="none" stroke="#000000" cx="236" cy="-445.936" rx="31.6951" ry="31.6951"/>
<text text-anchor="middle" x="236" y="-442.236" font-family="Times,serif" font-size="14.00" fill="#000000">print2</text>
</g>
<!-- 7570564659782590272&#45;&gt;&#45;4025874817067372950 -->
<g id="edge27" class="edge">
<title>7570564659782590272&#45;&gt;&#45;4025874817067372950</title>
<path fill="none" stroke="#000000" d="M236,-378.2948C236,-385.8044 236,-394.8452 236,-403.8377"/>
<polygon fill="#000000" stroke="#000000" points="232.5001,-403.8857 236,-413.8857 239.5001,-403.8858 232.5001,-403.8857"/>
</g>
<!-- &#45;958872990897675935&#45;&gt;7570564659782590272 -->
<g id="edge16" class="edge">
<title>&#45;958872990897675935&#45;&gt;7570564659782590272</title>
<path fill="none" stroke="#000000" d="M236,-306.2957C236,-314.5435 236,-323.6407 236,-331.9706"/>
<polygon fill="#000000" stroke="#000000" points="232.5001,-331.9899 236,-341.9899 239.5001,-331.9899 232.5001,-331.9899"/>
</g>
<!-- 302960199466621993 -->
<g id="node17" class="node">
<title>302960199466621993</title>
<polygon fill="none" stroke="#000000" points="387,-378.0888 333,-378.0888 333,-342.0888 387,-342.0888 387,-378.0888"/>
</g>
<!-- &#45;2925973032682655702 -->
<g id="node24" class="node">
<title>&#45;2925973032682655702</title>
<ellipse fill="none" stroke="#000000" cx="360" cy="-445.936" rx="31.6951" ry="31.6951"/>
<text text-anchor="middle" x="360" y="-442.236" font-family="Times,serif" font-size="14.00" fill="#000000">print3</text>
</g>
<!-- 302960199466621993&#45;&gt;&#45;2925973032682655702 -->
<g id="edge29" class="edge">
<title>302960199466621993&#45;&gt;&#45;2925973032682655702</title>
<path fill="none" stroke="#000000" d="M360,-378.2948C360,-385.8044 360,-394.8452 360,-403.8377"/>
<polygon fill="#000000" stroke="#000000" points="356.5001,-403.8857 360,-413.8857 363.5001,-403.8858 356.5001,-403.8857"/>
</g>
<!-- &#45;5842382644420046369&#45;&gt;302960199466621993 -->
<g id="edge20" class="edge">
<title>&#45;5842382644420046369&#45;&gt;302960199466621993</title>
<path fill="none" stroke="#000000" d="M360,-306.2957C360,-314.5435 360,-323.6407 360,-331.9706"/>
<polygon fill="#000000" stroke="#000000" points="356.5001,-331.9899 360,-341.9899 363.5001,-331.9899 356.5001,-331.9899"/>
</g>
<!-- 3841792670821254683 -->
<g id="node19" class="node">
<title>3841792670821254683</title>
<polygon fill="none" stroke="#000000" points="85,-549.7832 31,-549.7832 31,-513.7832 85,-513.7832 85,-549.7832"/>
</g>
<!-- 384411059217416665&#45;&gt;3841792670821254683 -->
<g id="edge24" class="edge">
<title>384411059217416665&#45;&gt;3841792670821254683</title>
<path fill="none" stroke="#000000" d="M58,-477.9023C58,-486.2552 58,-495.2013 58,-503.3564"/>
<polygon fill="#000000" stroke="#000000" points="54.5001,-503.5049 58,-513.5049 61.5001,-503.505 54.5001,-503.5049"/>
</g>
<!-- &#45;1139820312472844916 -->
<g id="node21" class="node">
<title>&#45;1139820312472844916</title>
<polygon fill="none" stroke="#000000" points="263,-549.7832 209,-549.7832 209,-513.7832 263,-513.7832 263,-549.7832"/>
</g>
<!-- &#45;4025874817067372950&#45;&gt;&#45;1139820312472844916 -->
<g id="edge26" class="edge">
<title>&#45;4025874817067372950&#45;&gt;&#45;1139820312472844916</title>
<path fill="none" stroke="#000000" d="M236,-477.9023C236,-486.2552 236,-495.2013 236,-503.3564"/>
<polygon fill="#000000" stroke="#000000" points="232.5001,-503.5049 236,-513.5049 239.5001,-503.505 232.5001,-503.5049"/>
</g>
<!-- &#45;7953088246067720175 -->
<g id="node23" class="node">
<title>&#45;7953088246067720175</title>
<polygon fill="none" stroke="#000000" points="387,-549.7832 333,-549.7832 333,-513.7832 387,-513.7832 387,-549.7832"/>
</g>
<!-- &#45;2925973032682655702&#45;&gt;&#45;7953088246067720175 -->
<g id="edge28" class="edge">
<title>&#45;2925973032682655702&#45;&gt;&#45;7953088246067720175</title>
<path fill="none" stroke="#000000" d="M360,-477.9023C360,-486.2552 360,-495.2013 360,-503.3564"/>
<polygon fill="#000000" stroke="#000000" points="356.5001,-503.5049 360,-513.5049 363.5001,-503.505 356.5001,-503.5049"/>
</g>
</g>
</svg>
