<?xml version="1.0" encoding="UTF-8" standalone="no"?>
<!DOCTYPE svg PUBLIC "-//W3C//DTD SVG 1.1//EN"
 "http://www.w3.org/Graphics/SVG/1.1/DTD/svg11.dtd">
<!-- Generated by graphviz version 2.36.0 (20140111.2315)
 -->
<!-- Title: %3 Pages: 1 -->
<svg width="908pt" height="98pt"
 viewBox="0.00 0.00 908.00 98.00" xmlns="http://www.w3.org/2000/svg" xmlns:xlink="http://www.w3.org/1999/xlink">
<g id="graph0" class="graph" transform="scale(1 1) rotate(0) translate(4 94)">
<title>%3</title>
<polygon fill="#ffffff" fill-opacity="0.941176" stroke="none" points="-4,4 -4,-94 904,-94 904,4 -4,4"/>
<!-- released1 -->
<g id="node1" class="node"><title>released1</title>
<ellipse fill="none" stroke="black" cx="130" cy="-20" rx="39.7935" ry="18"/>
<text text-anchor="middle" x="130" y="-16.3" font-family="Times,serif" font-size="14.00">released</text>
</g>
<!-- waiting -->
<g id="node4" class="node"><title>waiting</title>
<ellipse fill="none" stroke="black" cx="243" cy="-20" rx="37.0935" ry="18"/>
<text text-anchor="middle" x="243" y="-16.3" font-family="Times,serif" font-size="14.00">waiting</text>
</g>
<!-- released1&#45;&gt;waiting -->
<g id="edge2" class="edge"><title>released1&#45;&gt;waiting</title>
<path fill="none" stroke="black" d="M169.822,-20C178.089,-20 186.901,-20 195.424,-20"/>
<polygon fill="black" stroke="black" points="195.621,-23.5001 205.621,-20 195.621,-16.5001 195.621,-23.5001"/>
</g>
<!-- released2 -->
<g id="node2" class="node"><title>released2</title>
<ellipse fill="none" stroke="black" cx="738" cy="-72" rx="39.7935" ry="18"/>
<text text-anchor="middle" x="738" y="-68.3" font-family="Times,serif" font-size="14.00">released</text>
</g>
<!-- forgotten -->
<g id="node9" class="node"><title>forgotten</title>
<ellipse fill="none" stroke="black" cx="857" cy="-45" rx="42.7926" ry="18"/>
<text text-anchor="middle" x="857" y="-41.3" font-family="Times,serif" font-size="14.00">forgotten</text>
</g>
<!-- released2&#45;&gt;forgotten -->
<g id="edge11" class="edge"><title>released2&#45;&gt;forgotten</title>
<path fill="none" stroke="black" d="M773.787,-63.9722C784.944,-61.3976 797.485,-58.5034 809.348,-55.7658"/>
<polygon fill="black" stroke="black" points="810.152,-59.1725 819.108,-53.5134 808.578,-52.3517 810.152,-59.1725"/>
</g>
<!-- new -->
<g id="node3" class="node"><title>new</title>
<ellipse fill="none" stroke="black" cx="27" cy="-20" rx="27" ry="18"/>
<text text-anchor="middle" x="27" y="-16.3" font-family="Times,serif" font-size="14.00">new</text>
</g>
<!-- new&#45;&gt;released1 -->
<g id="edge1" class="edge"><title>new&#45;&gt;released1</title>
<path fill="none" stroke="black" d="M54.01,-20C61.9937,-20 71.0549,-20 80.0504,-20"/>
<polygon fill="black" stroke="black" points="80.1178,-23.5001 90.1178,-20 80.1178,-16.5001 80.1178,-23.5001"/>
</g>
<!-- processing -->
<g id="node5" class="node"><title>processing</title>
<ellipse fill="none" stroke="black" cx="496" cy="-43" rx="48.1917" ry="18"/>
<text text-anchor="middle" x="496" y="-39.3" font-family="Times,serif" font-size="14.00">processing</text>
</g>
<!-- waiting&#45;&gt;processing -->
<g id="edge3" class="edge"><title>waiting&#45;&gt;processing</title>
<path fill="none" stroke="black" d="M270.024,-32.3439C283.432,-38.0304 300.237,-44.1416 316,-47 357.199,-54.4709 404.602,-52.9722 440.272,-49.8747"/>
<polygon fill="black" stroke="black" points="440.846,-53.3364 450.475,-48.9178 440.192,-46.3669 440.846,-53.3364"/>
</g>
<!-- no&#45;worker -->
<g id="node6" class="node"><title>no&#45;worker</title>
<ellipse fill="none" stroke="black" cx="364" cy="-20" rx="47.3916" ry="18"/>
<text text-anchor="middle" x="364" y="-16.3" font-family="Times,serif" font-size="14.00">no&#45;worker</text>
</g>
<!-- waiting&#45;&gt;no&#45;worker -->
<g id="edge4" class="edge"><title>waiting&#45;&gt;no&#45;worker</title>
<path fill="none" stroke="black" d="M278.101,-13.8294C287.885,-13.355 298.798,-13.172 309.454,-13.2801"/>
<polygon fill="black" stroke="black" points="309.481,-16.7812 319.546,-13.4731 309.615,-9.78247 309.481,-16.7812"/>
</g>
<!-- memory -->
<g id="node7" class="node"><title>memory</title>
<ellipse fill="none" stroke="black" cx="621" cy="-70" rx="40.8928" ry="18"/>
<text text-anchor="middle" x="621" y="-66.3" font-family="Times,serif" font-size="14.00">memory</text>
</g>
<!-- processing&#45;&gt;memory -->
<g id="edge7" class="edge"><title>processing&#45;&gt;memory</title>
<path fill="none" stroke="black" d="M537.957,-51.9906C549.416,-54.506 561.95,-57.2573 573.695,-59.8355"/>
<polygon fill="black" stroke="black" points="573.248,-63.3207 583.766,-62.0463 574.749,-56.4835 573.248,-63.3207"/>
</g>
<!-- error -->
<g id="node8" class="node"><title>error</title>
<ellipse fill="none" stroke="black" cx="738" cy="-18" rx="27.8951" ry="18"/>
<text text-anchor="middle" x="738" y="-14.3" font-family="Times,serif" font-size="14.00">error</text>
</g>
<!-- processing&#45;&gt;error -->
<g id="edge8" class="edge"><title>processing&#45;&gt;error</title>
<path fill="none" stroke="black" d="M542.424,-38.2683C588.151,-33.5051 657.813,-26.2486 700.201,-21.8332"/>
<polygon fill="black" stroke="black" points="700.775,-25.2925 710.359,-20.7751 700.05,-18.3301 700.775,-25.2925"/>
</g>
<!-- no&#45;worker&#45;&gt;waiting -->
<g id="edge5" class="edge"><title>no&#45;worker&#45;&gt;waiting</title>
<path fill="none" stroke="black" d="M319.546,-26.5269C309.303,-26.8182 298.375,-26.8242 288.103,-26.545"/>
<polygon fill="black" stroke="black" points="288.225,-23.0472 278.101,-26.1706 287.963,-30.0423 288.225,-23.0472"/>
</g>
<!-- no&#45;worker&#45;&gt;processing -->
<g id="edge6" class="edge"><title>no&#45;worker&#45;&gt;processing</title>
<path fill="none" stroke="black" d="M407.207,-27.4674C418.332,-29.4356 430.476,-31.5842 442.087,-33.6384"/>
<polygon fill="black" stroke="black" points="441.657,-37.1166 452.114,-35.4124 442.876,-30.2237 441.657,-37.1166"/>
</g>
<!-- memory&#45;&gt;released2 -->
<g id="edge10" class="edge"><title>memory&#45;&gt;released2</title>
<path fill="none" stroke="black" d="M662.221,-70.6995C670.51,-70.8437 679.327,-70.997 687.89,-71.1459"/>
<polygon fill="black" stroke="black" points="688.097,-74.6499 698.156,-71.3245 688.219,-67.651 688.097,-74.6499"/>
</g>
<!-- error&#45;&gt;forgotten -->
<g id="edge9" class="edge"><title>error&#45;&gt;forgotten</title>
<path fill="none" stroke="black" d="M764.676,-23.9253C777.699,-26.9305 793.93,-30.6761 809.081,-34.1726"/>
<polygon fill="black" stroke="black" points="808.306,-37.5857 818.837,-36.424 809.88,-30.765 808.306,-37.5857"/>
</g>
</g>
</svg>
