<?xml version="1.0" encoding="UTF-8" standalone="no"?>
<!DOCTYPE svg PUBLIC "-//W3C//DTD SVG 1.1//EN"
 "http://www.w3.org/Graphics/SVG/1.1/DTD/svg11.dtd">
<!-- Generated by graphviz version 2.38.0 (20140413.2041)
 -->
<!-- Title: %3 Pages: 1 -->
<svg width="905pt" height="154pt"
 viewBox="0.00 0.00 905.45 154.00" xmlns="http://www.w3.org/2000/svg" xmlns:xlink="http://www.w3.org/1999/xlink">
<g id="graph0" class="graph" transform="scale(1 1) rotate(0) translate(4 150)">
<title>%3</title>
<polygon fill="#ffffff" fill-opacity="0.941176" stroke="none" points="-4,4 -4,-150 901.448,-150 901.448,4 -4,4"/>
<!-- released1 -->
<g id="node1" class="node"><title>released1</title>
<ellipse fill="none" stroke="black" cx="129.646" cy="-45" rx="39.7935" ry="18"/>
<text text-anchor="middle" x="129.646" y="-41.3" font-family="Times,serif" font-size="14.00">released</text>
</g>
<!-- waiting -->
<g id="node4" class="node"><title>waiting</title>
<ellipse fill="none" stroke="black" cx="242.34" cy="-45" rx="37.0935" ry="18"/>
<text text-anchor="middle" x="242.34" y="-41.3" font-family="Times,serif" font-size="14.00">waiting</text>
</g>
<!-- released1&#45;&gt;waiting -->
<g id="edge2" class="edge"><title>released1&#45;&gt;waiting</title>
<path fill="none" stroke="black" d="M169.362,-45C177.606,-45 186.393,-45 194.892,-45"/>
<polygon fill="black" stroke="black" points="195.061,-48.5001 205.061,-45 195.061,-41.5001 195.061,-48.5001"/>
</g>
<!-- released2 -->
<g id="node2" class="node"><title>released2</title>
<ellipse fill="none" stroke="black" cx="736.009" cy="-128" rx="39.7935" ry="18"/>
<text text-anchor="middle" x="736.009" y="-124.3" font-family="Times,serif" font-size="14.00">released</text>
</g>
<!-- forgotten -->
<g id="node11" class="node"><title>forgotten</title>
<ellipse fill="none" stroke="black" cx="854.551" cy="-101" rx="42.7926" ry="18"/>
<text text-anchor="middle" x="854.551" y="-97.3" font-family="Times,serif" font-size="14.00">forgotten</text>
</g>
<!-- released2&#45;&gt;forgotten -->
<g id="edge13" class="edge"><title>released2&#45;&gt;forgotten</title>
<path fill="none" stroke="black" d="M771.66,-119.972C782.558,-117.447 794.783,-114.615 806.396,-111.925"/>
<polygon fill="black" stroke="black" points="807.443,-115.275 816.395,-109.608 805.863,-108.456 807.443,-115.275"/>
</g>
<!-- new -->
<g id="node3" class="node"><title>new</title>
<ellipse fill="none" stroke="black" cx="27" cy="-45" rx="27" ry="18"/>
<text text-anchor="middle" x="27" y="-41.3" font-family="Times,serif" font-size="14.00">new</text>
</g>
<!-- new&#45;&gt;released1 -->
<g id="edge1" class="edge"><title>new&#45;&gt;released1</title>
<path fill="none" stroke="black" d="M54.1809,-45C61.9675,-45 70.7646,-45 79.5138,-45"/>
<polygon fill="black" stroke="black" points="79.6991,-48.5001 89.699,-45 79.699,-41.5001 79.6991,-48.5001"/>
</g>
<!-- queue -->
<g id="node5" class="node"><title>queue</title>
<ellipse fill="none" stroke="black" cx="362.832" cy="-126" rx="31.6951" ry="18"/>
<text text-anchor="middle" x="362.832" y="-122.3" font-family="Times,serif" font-size="14.00">queue</text>
</g>
<!-- waiting&#45;&gt;queue -->
<g id="edge3" class="edge"><title>waiting&#45;&gt;queue</title>
<path fill="none" stroke="black" d="M262.466,-60.2975C276.736,-71.4709 296.879,-86.7452 315.386,-99 320.15,-102.154 325.292,-105.344 330.36,-108.373"/>
<polygon fill="black" stroke="black" points="328.905,-111.577 339.304,-113.608 332.441,-105.536 328.905,-111.577"/>
</g>
<!-- stacks -->
<g id="node6" class="node"><title>stacks</title>
<ellipse fill="none" stroke="black" cx="362.832" cy="-72" rx="32.4942" ry="18"/>
<text text-anchor="middle" x="362.832" y="-68.3" font-family="Times,serif" font-size="14.00">stacks</text>
</g>
<!-- waiting&#45;&gt;stacks -->
<g id="edge4" class="edge"><title>waiting&#45;&gt;stacks</title>
<path fill="none" stroke="black" d="M276.346,-52.521C290.701,-55.7919 307.631,-59.6497 322.622,-63.0654"/>
<polygon fill="black" stroke="black" points="322.107,-66.5377 332.635,-65.347 323.662,-59.7127 322.107,-66.5377"/>
</g>
<!-- no&#45;worker -->
<g id="node7" class="node"><title>no&#45;worker</title>
<ellipse fill="none" stroke="black" cx="362.832" cy="-18" rx="47.3916" ry="18"/>
<text text-anchor="middle" x="362.832" y="-14.3" font-family="Times,serif" font-size="14.00">no&#45;worker</text>
</g>
<!-- waiting&#45;&gt;no&#45;worker -->
<g id="edge5" class="edge"><title>waiting&#45;&gt;no&#45;worker</title>
<path fill="none" stroke="black" d="M270.227,-33.1125C280.895,-29.9547 293.582,-26.7376 306.063,-23.968"/>
<polygon fill="black" stroke="black" points="306.935,-27.3609 315.985,-21.8526 305.475,-20.5147 306.935,-27.3609"/>
</g>
<!-- processing -->
<g id="node8" class="node"><title>processing</title>
<ellipse fill="none" stroke="black" cx="494.374" cy="-99" rx="48.1917" ry="18"/>
<text text-anchor="middle" x="494.374" y="-95.3" font-family="Times,serif" font-size="14.00">processing</text>
</g>
<!-- queue&#45;&gt;processing -->
<g id="edge7" class="edge"><title>queue&#45;&gt;processing</title>
<path fill="none" stroke="black" d="M392.904,-119.941C407.359,-116.928 425.264,-113.196 441.937,-109.721"/>
<polygon fill="black" stroke="black" points="443.042,-113.066 452.118,-107.599 441.614,-106.213 443.042,-113.066"/>
</g>
<!-- stacks&#45;&gt;processing -->
<g id="edge8" class="edge"><title>stacks&#45;&gt;processing</title>
<path fill="none" stroke="black" d="M393.552,-78.1943C407.903,-81.1855 425.539,-84.8615 441.975,-88.2871"/>
<polygon fill="black" stroke="black" points="441.509,-91.7652 452.013,-90.3793 442.938,-84.9124 441.509,-91.7652"/>
</g>
<!-- no&#45;worker&#45;&gt;waiting -->
<g id="edge6" class="edge"><title>no&#45;worker&#45;&gt;waiting</title>
<path fill="none" stroke="black" d="M330.496,-31.1749C317.814,-34.7661 302.921,-38.3454 289.069,-41.1714"/>
<polygon fill="black" stroke="black" points="288.362,-37.7432 279.213,-43.0855 289.697,-44.6148 288.362,-37.7432"/>
</g>
<!-- memory -->
<g id="node9" class="node"><title>memory</title>
<ellipse fill="none" stroke="black" cx="619.416" cy="-126" rx="40.8928" ry="18"/>
<text text-anchor="middle" x="619.416" y="-122.3" font-family="Times,serif" font-size="14.00">memory</text>
</g>
<!-- processing&#45;&gt;memory -->
<g id="edge9" class="edge"><title>processing&#45;&gt;memory</title>
<path fill="none" stroke="black" d="M536.345,-107.991C548.033,-110.555 560.838,-113.365 572.786,-115.987"/>
<polygon fill="black" stroke="black" points="572.059,-119.411 582.576,-118.135 573.559,-112.573 572.059,-119.411"/>
</g>
<!-- error -->
<g id="node10" class="node"><title>error</title>
<ellipse fill="none" stroke="black" cx="736.009" cy="-74" rx="27.8951" ry="18"/>
<text text-anchor="middle" x="736.009" y="-70.3" font-family="Times,serif" font-size="14.00">error</text>
</g>
<!-- processing&#45;&gt;error -->
<g id="edge10" class="edge"><title>processing&#45;&gt;error</title>
<path fill="none" stroke="black" d="M541.011,-94.2388C586.58,-89.4849 655.748,-82.2689 698.008,-77.8602"/>
<polygon fill="black" stroke="black" points="698.558,-81.3218 708.141,-76.803 697.832,-74.3596 698.558,-81.3218"/>
</g>
<!-- memory&#45;&gt;released2 -->
<g id="edge12" class="edge"><title>memory&#45;&gt;released2</title>
<path fill="none" stroke="black" d="M660.495,-126.7C668.754,-126.844 677.54,-126.997 686.072,-127.146"/>
<polygon fill="black" stroke="black" points="686.243,-130.649 696.303,-127.324 686.365,-123.65 686.243,-130.649"/>
</g>
<!-- error&#45;&gt;forgotten -->
<g id="edge11" class="edge"><title>error&#45;&gt;forgotten</title>
<path fill="none" stroke="black" d="M762.584,-79.9253C775.433,-82.9018 791.416,-86.6048 806.384,-90.0726"/>
<polygon fill="black" stroke="black" points="806.002,-93.5766 816.534,-92.424 807.582,-86.7573 806.002,-93.5766"/>
</g>
</g>
</svg>
