<?xml version="1.0" encoding="UTF-8" standalone="no"?>
<!DOCTYPE svg PUBLIC "-//W3C//DTD SVG 1.1//EN"
 "http://www.w3.org/Graphics/SVG/1.1/DTD/svg11.dtd">
<!-- Generated by graphviz version 2.47.3 (20210619.2315)
 -->
<!-- Pages: 1 -->
<svg width="1208pt" height="388pt"
 viewBox="0.00 0.00 1208.29 388.18" xmlns="http://www.w3.org/2000/svg" xmlns:xlink="http://www.w3.org/1999/xlink">
<g id="graph0" class="graph" transform="scale(1 1) rotate(0) translate(4 384.18)">
<polygon fill="white" stroke="transparent" points="-4,4 -4,-384.18 1204.29,-384.18 1204.29,4 -4,4"/>
<!-- &#45;786534603302079616 -->
<g id="node1" class="node">
<title>&#45;786534603302079616</title>
<polygon fill="none" stroke="black" points="99.14,-216.29 45.14,-216.29 45.14,-180.29 99.14,-180.29 99.14,-216.29"/>
<text text-anchor="middle" x="72.14" y="-194.59" font-family="Helvetica,sans-Serif" font-size="14.00">(0, 0)</text>
</g>
<!-- &#45;6370930516556130568 -->
<g id="node2" class="node">
<title>&#45;6370930516556130568</title>
<polygon fill="none" stroke="black" points="99.14,-298.23 45.14,-298.23 45.14,-262.23 99.14,-262.23 99.14,-298.23"/>
<text text-anchor="middle" x="72.14" y="-276.53" font-family="Helvetica,sans-Serif" font-size="14.00">(0, 0)</text>
</g>
<!-- &#45;786534603302079616&#45;&gt;&#45;6370930516556130568 -->
<g id="edge1" class="edge">
<title>&#45;786534603302079616&#45;&gt;&#45;6370930516556130568</title>
<path fill="none" stroke="black" d="M72.14,-216.63C72.14,-226.97 72.14,-240.32 72.14,-252.03"/>
<polygon fill="black" stroke="black" points="68.64,-252.2 72.14,-262.2 75.64,-252.2 68.64,-252.2"/>
</g>
<!-- &#45;1235769299603686430 -->
<g id="node3" class="node">
<title>&#45;1235769299603686430</title>
<ellipse fill="none" stroke="black" cx="238.14" cy="-280.23" rx="27.9" ry="27.9"/>
<text text-anchor="middle" x="238.14" y="-276.53" font-family="Helvetica,sans-Serif" font-size="14.00">add</text>
</g>
<!-- 7182739528180724682 -->
<g id="node4" class="node">
<title>7182739528180724682</title>
<polygon fill="none" stroke="black" points="265.14,-380.18 211.14,-380.18 211.14,-344.18 265.14,-344.18 265.14,-380.18"/>
<text text-anchor="middle" x="238.14" y="-358.48" font-family="Helvetica,sans-Serif" font-size="14.00">(0, 1)</text>
</g>
<!-- &#45;1235769299603686430&#45;&gt;7182739528180724682 -->
<g id="edge2" class="edge">
<title>&#45;1235769299603686430&#45;&gt;7182739528180724682</title>
<path fill="none" stroke="black" d="M238.14,-308.3C238.14,-316.49 238.14,-325.49 238.14,-333.71"/>
<polygon fill="black" stroke="black" points="234.64,-333.92 238.14,-343.92 241.64,-333.92 234.64,-333.92"/>
</g>
<!-- 7801482820772629908 -->
<g id="node5" class="node">
<title>7801482820772629908</title>
<polygon fill="none" stroke="black" points="265.14,-216.29 211.14,-216.29 211.14,-180.29 265.14,-180.29 265.14,-216.29"/>
<text text-anchor="middle" x="238.14" y="-194.59" font-family="Helvetica,sans-Serif" font-size="14.00">(0, 1)</text>
</g>
<!-- 7801482820772629908&#45;&gt;&#45;1235769299603686430 -->
<g id="edge3" class="edge">
<title>7801482820772629908&#45;&gt;&#45;1235769299603686430</title>
<path fill="none" stroke="black" d="M238.14,-216.63C238.14,-224.09 238.14,-233.12 238.14,-241.97"/>
<polygon fill="black" stroke="black" points="234.64,-242.17 238.14,-252.17 241.64,-242.17 234.64,-242.17"/>
</g>
<!-- &#45;5585040902837047445 -->
<g id="node11" class="node">
<title>&#45;5585040902837047445</title>
<ellipse fill="none" stroke="black" cx="312.14" cy="-280.23" rx="27.9" ry="27.9"/>
<text text-anchor="middle" x="312.14" y="-276.53" font-family="Helvetica,sans-Serif" font-size="14.00">add</text>
</g>
<!-- 7801482820772629908&#45;&gt;&#45;5585040902837047445 -->
<g id="edge9" class="edge">
<title>7801482820772629908&#45;&gt;&#45;5585040902837047445</title>
<path fill="none" stroke="black" d="M254.2,-216.63C263.69,-226.88 275.91,-240.09 286.68,-251.72"/>
<polygon fill="black" stroke="black" points="284.14,-254.14 293.51,-259.1 289.28,-249.38 284.14,-254.14"/>
</g>
<!-- &#45;7302753357074532081 -->
<g id="node6" class="node">
<title>&#45;7302753357074532081</title>
<polygon fill="none" stroke="black" points="339.14,-216.29 285.14,-216.29 285.14,-180.29 339.14,-180.29 339.14,-216.29"/>
<text text-anchor="middle" x="312.14" y="-194.59" font-family="Helvetica,sans-Serif" font-size="14.00">(1, 0)</text>
</g>
<!-- &#45;7302753357074532081&#45;&gt;&#45;1235769299603686430 -->
<g id="edge4" class="edge">
<title>&#45;7302753357074532081&#45;&gt;&#45;1235769299603686430</title>
<path fill="none" stroke="black" d="M296.09,-216.63C286.6,-226.88 274.38,-240.09 263.61,-251.72"/>
<polygon fill="black" stroke="black" points="261.01,-249.38 256.78,-259.1 266.14,-254.14 261.01,-249.38"/>
</g>
<!-- &#45;7302753357074532081&#45;&gt;&#45;5585040902837047445 -->
<g id="edge10" class="edge">
<title>&#45;7302753357074532081&#45;&gt;&#45;5585040902837047445</title>
<path fill="none" stroke="black" d="M312.14,-216.63C312.14,-224.09 312.14,-233.12 312.14,-241.97"/>
<polygon fill="black" stroke="black" points="308.64,-242.17 312.14,-252.17 315.64,-242.17 308.64,-242.17"/>
</g>
<!-- 4971151709241161022 -->
<g id="node7" class="node">
<title>4971151709241161022</title>
<ellipse fill="none" stroke="black" cx="482.14" cy="-280.23" rx="27.9" ry="27.9"/>
<text text-anchor="middle" x="482.14" y="-276.53" font-family="Helvetica,sans-Serif" font-size="14.00">add</text>
</g>
<!-- &#45;9154721172411196637 -->
<g id="node8" class="node">
<title>&#45;9154721172411196637</title>
<polygon fill="none" stroke="black" points="509.14,-380.18 455.14,-380.18 455.14,-344.18 509.14,-344.18 509.14,-380.18"/>
<text text-anchor="middle" x="482.14" y="-358.48" font-family="Helvetica,sans-Serif" font-size="14.00">(0, 2)</text>
</g>
<!-- 4971151709241161022&#45;&gt;&#45;9154721172411196637 -->
<g id="edge5" class="edge">
<title>4971151709241161022&#45;&gt;&#45;9154721172411196637</title>
<path fill="none" stroke="black" d="M482.14,-308.3C482.14,-316.49 482.14,-325.49 482.14,-333.71"/>
<polygon fill="black" stroke="black" points="478.64,-333.92 482.14,-343.92 485.64,-333.92 478.64,-333.92"/>
</g>
<!-- 8706932869894773842 -->
<g id="node9" class="node">
<title>8706932869894773842</title>
<polygon fill="none" stroke="black" points="509.14,-216.29 455.14,-216.29 455.14,-180.29 509.14,-180.29 509.14,-216.29"/>
<text text-anchor="middle" x="482.14" y="-194.59" font-family="Helvetica,sans-Serif" font-size="14.00">(2, 0)</text>
</g>
<!-- 8706932869894773842&#45;&gt;4971151709241161022 -->
<g id="edge6" class="edge">
<title>8706932869894773842&#45;&gt;4971151709241161022</title>
<path fill="none" stroke="black" d="M482.14,-216.63C482.14,-224.09 482.14,-233.12 482.14,-241.97"/>
<polygon fill="black" stroke="black" points="478.64,-242.17 482.14,-252.17 485.64,-242.17 478.64,-242.17"/>
</g>
<!-- &#45;5703683845534609683 -->
<g id="node19" class="node">
<title>&#45;5703683845534609683</title>
<ellipse fill="none" stroke="black" cx="556.14" cy="-280.23" rx="27.9" ry="27.9"/>
<text text-anchor="middle" x="556.14" y="-276.53" font-family="Helvetica,sans-Serif" font-size="14.00">add</text>
</g>
<!-- 8706932869894773842&#45;&gt;&#45;5703683845534609683 -->
<g id="edge16" class="edge">
<title>8706932869894773842&#45;&gt;&#45;5703683845534609683</title>
<path fill="none" stroke="black" d="M498.2,-216.63C507.69,-226.88 519.91,-240.09 530.68,-251.72"/>
<polygon fill="black" stroke="black" points="528.14,-254.14 537.51,-259.1 533.28,-249.38 528.14,-254.14"/>
</g>
<!-- 2908408791799933542 -->
<g id="node10" class="node">
<title>2908408791799933542</title>
<polygon fill="none" stroke="black" points="583.14,-216.29 529.14,-216.29 529.14,-180.29 583.14,-180.29 583.14,-216.29"/>
<text text-anchor="middle" x="556.14" y="-194.59" font-family="Helvetica,sans-Serif" font-size="14.00">(0, 2)</text>
</g>
<!-- 2908408791799933542&#45;&gt;4971151709241161022 -->
<g id="edge7" class="edge">
<title>2908408791799933542&#45;&gt;4971151709241161022</title>
<path fill="none" stroke="black" d="M540.09,-216.63C530.6,-226.88 518.38,-240.09 507.61,-251.72"/>
<polygon fill="black" stroke="black" points="505.01,-249.38 500.78,-259.1 510.14,-254.14 505.01,-249.38"/>
</g>
<!-- 2908408791799933542&#45;&gt;&#45;5703683845534609683 -->
<g id="edge17" class="edge">
<title>2908408791799933542&#45;&gt;&#45;5703683845534609683</title>
<path fill="none" stroke="black" d="M556.14,-216.63C556.14,-224.09 556.14,-233.12 556.14,-241.97"/>
<polygon fill="black" stroke="black" points="552.64,-242.17 556.14,-252.17 559.64,-242.17 552.64,-242.17"/>
</g>
<!-- &#45;8807988363296376261 -->
<g id="node12" class="node">
<title>&#45;8807988363296376261</title>
<polygon fill="none" stroke="black" points="339.14,-380.18 285.14,-380.18 285.14,-344.18 339.14,-344.18 339.14,-380.18"/>
<text text-anchor="middle" x="312.14" y="-358.48" font-family="Helvetica,sans-Serif" font-size="14.00">(1, 0)</text>
</g>
<!-- &#45;5585040902837047445&#45;&gt;&#45;8807988363296376261 -->
<g id="edge8" class="edge">
<title>&#45;5585040902837047445&#45;&gt;&#45;8807988363296376261</title>
<path fill="none" stroke="black" d="M312.14,-308.3C312.14,-316.49 312.14,-325.49 312.14,-333.71"/>
<polygon fill="black" stroke="black" points="308.64,-333.92 312.14,-343.92 315.64,-333.92 308.64,-333.92"/>
</g>
<!-- 3284048306059673116 -->
<g id="node13" class="node">
<title>3284048306059673116</title>
<polygon fill="none" stroke="black" points="749.14,-216.29 695.14,-216.29 695.14,-180.29 749.14,-180.29 749.14,-216.29"/>
<text text-anchor="middle" x="722.14" y="-194.59" font-family="Helvetica,sans-Serif" font-size="14.00">(1, 1)</text>
</g>
<!-- 4745681681440478989 -->
<g id="node14" class="node">
<title>4745681681440478989</title>
<polygon fill="none" stroke="black" points="749.14,-298.23 695.14,-298.23 695.14,-262.23 749.14,-262.23 749.14,-298.23"/>
<text text-anchor="middle" x="722.14" y="-276.53" font-family="Helvetica,sans-Serif" font-size="14.00">(1, 1)</text>
</g>
<!-- 3284048306059673116&#45;&gt;4745681681440478989 -->
<g id="edge11" class="edge">
<title>3284048306059673116&#45;&gt;4745681681440478989</title>
<path fill="none" stroke="black" d="M722.14,-216.63C722.14,-226.97 722.14,-240.32 722.14,-252.03"/>
<polygon fill="black" stroke="black" points="718.64,-252.2 722.14,-262.2 725.64,-252.2 718.64,-252.2"/>
</g>
<!-- &#45;2149848635546727879 -->
<g id="node15" class="node">
<title>&#45;2149848635546727879</title>
<ellipse fill="none" stroke="black" cx="888.14" cy="-280.23" rx="27.9" ry="27.9"/>
<text text-anchor="middle" x="888.14" y="-276.53" font-family="Helvetica,sans-Serif" font-size="14.00">add</text>
</g>
<!-- &#45;7193421636167074202 -->
<g id="node16" class="node">
<title>&#45;7193421636167074202</title>
<polygon fill="none" stroke="black" points="915.14,-380.18 861.14,-380.18 861.14,-344.18 915.14,-344.18 915.14,-380.18"/>
<text text-anchor="middle" x="888.14" y="-358.48" font-family="Helvetica,sans-Serif" font-size="14.00">(1, 2)</text>
</g>
<!-- &#45;2149848635546727879&#45;&gt;&#45;7193421636167074202 -->
<g id="edge12" class="edge">
<title>&#45;2149848635546727879&#45;&gt;&#45;7193421636167074202</title>
<path fill="none" stroke="black" d="M888.14,-308.3C888.14,-316.49 888.14,-325.49 888.14,-333.71"/>
<polygon fill="black" stroke="black" points="884.64,-333.92 888.14,-343.92 891.64,-333.92 884.64,-333.92"/>
</g>
<!-- 1314170772145096641 -->
<g id="node17" class="node">
<title>1314170772145096641</title>
<polygon fill="none" stroke="black" points="915.14,-216.29 861.14,-216.29 861.14,-180.29 915.14,-180.29 915.14,-216.29"/>
<text text-anchor="middle" x="888.14" y="-194.59" font-family="Helvetica,sans-Serif" font-size="14.00">(1, 2)</text>
</g>
<!-- 1314170772145096641&#45;&gt;&#45;2149848635546727879 -->
<g id="edge13" class="edge">
<title>1314170772145096641&#45;&gt;&#45;2149848635546727879</title>
<path fill="none" stroke="black" d="M888.14,-216.63C888.14,-224.09 888.14,-233.12 888.14,-241.97"/>
<polygon fill="black" stroke="black" points="884.64,-242.17 888.14,-252.17 891.64,-242.17 884.64,-242.17"/>
</g>
<!-- 4703863413812294627 -->
<g id="node21" class="node">
<title>4703863413812294627</title>
<ellipse fill="none" stroke="black" cx="962.14" cy="-280.23" rx="27.9" ry="27.9"/>
<text text-anchor="middle" x="962.14" y="-276.53" font-family="Helvetica,sans-Serif" font-size="14.00">add</text>
</g>
<!-- 1314170772145096641&#45;&gt;4703863413812294627 -->
<g id="edge19" class="edge">
<title>1314170772145096641&#45;&gt;4703863413812294627</title>
<path fill="none" stroke="black" d="M904.2,-216.63C913.69,-226.88 925.91,-240.09 936.68,-251.72"/>
<polygon fill="black" stroke="black" points="934.14,-254.14 943.51,-259.1 939.28,-249.38 934.14,-254.14"/>
</g>
<!-- &#45;3232170447712779349 -->
<g id="node18" class="node">
<title>&#45;3232170447712779349</title>
<polygon fill="none" stroke="black" points="989.14,-216.29 935.14,-216.29 935.14,-180.29 989.14,-180.29 989.14,-216.29"/>
<text text-anchor="middle" x="962.14" y="-194.59" font-family="Helvetica,sans-Serif" font-size="14.00">(2, 1)</text>
</g>
<!-- &#45;3232170447712779349&#45;&gt;&#45;2149848635546727879 -->
<g id="edge14" class="edge">
<title>&#45;3232170447712779349&#45;&gt;&#45;2149848635546727879</title>
<path fill="none" stroke="black" d="M946.09,-216.63C936.6,-226.88 924.38,-240.09 913.61,-251.72"/>
<polygon fill="black" stroke="black" points="911.01,-249.38 906.78,-259.1 916.14,-254.14 911.01,-249.38"/>
</g>
<!-- &#45;3232170447712779349&#45;&gt;4703863413812294627 -->
<g id="edge20" class="edge">
<title>&#45;3232170447712779349&#45;&gt;4703863413812294627</title>
<path fill="none" stroke="black" d="M962.14,-216.63C962.14,-224.09 962.14,-233.12 962.14,-241.97"/>
<polygon fill="black" stroke="black" points="958.64,-242.17 962.14,-252.17 965.64,-242.17 958.64,-242.17"/>
</g>
<!-- &#45;6846688827052253826 -->
<g id="node20" class="node">
<title>&#45;6846688827052253826</title>
<polygon fill="none" stroke="black" points="583.14,-380.18 529.14,-380.18 529.14,-344.18 583.14,-344.18 583.14,-380.18"/>
<text text-anchor="middle" x="556.14" y="-358.48" font-family="Helvetica,sans-Serif" font-size="14.00">(2, 0)</text>
</g>
<!-- &#45;5703683845534609683&#45;&gt;&#45;6846688827052253826 -->
<g id="edge15" class="edge">
<title>&#45;5703683845534609683&#45;&gt;&#45;6846688827052253826</title>
<path fill="none" stroke="black" d="M556.14,-308.3C556.14,-316.49 556.14,-325.49 556.14,-333.71"/>
<polygon fill="black" stroke="black" points="552.64,-333.92 556.14,-343.92 559.64,-333.92 552.64,-333.92"/>
</g>
<!-- 2308623834700233296 -->
<g id="node22" class="node">
<title>2308623834700233296</title>
<polygon fill="none" stroke="black" points="989.14,-380.18 935.14,-380.18 935.14,-344.18 989.14,-344.18 989.14,-380.18"/>
<text text-anchor="middle" x="962.14" y="-358.48" font-family="Helvetica,sans-Serif" font-size="14.00">(2, 1)</text>
</g>
<!-- 4703863413812294627&#45;&gt;2308623834700233296 -->
<g id="edge18" class="edge">
<title>4703863413812294627&#45;&gt;2308623834700233296</title>
<path fill="none" stroke="black" d="M962.14,-308.3C962.14,-316.49 962.14,-325.49 962.14,-333.71"/>
<polygon fill="black" stroke="black" points="958.64,-333.92 962.14,-343.92 965.64,-333.92 958.64,-333.92"/>
</g>
<!-- &#45;4046083569653268943 -->
<g id="node23" class="node">
<title>&#45;4046083569653268943</title>
<polygon fill="none" stroke="black" points="1155.14,-216.29 1101.14,-216.29 1101.14,-180.29 1155.14,-180.29 1155.14,-216.29"/>
<text text-anchor="middle" x="1128.14" y="-194.59" font-family="Helvetica,sans-Serif" font-size="14.00">(2, 2)</text>
</g>
<!-- 8816264590802231721 -->
<g id="node24" class="node">
<title>8816264590802231721</title>
<polygon fill="none" stroke="black" points="1155.14,-298.23 1101.14,-298.23 1101.14,-262.23 1155.14,-262.23 1155.14,-298.23"/>
<text text-anchor="middle" x="1128.14" y="-276.53" font-family="Helvetica,sans-Serif" font-size="14.00">(2, 2)</text>
</g>
<!-- &#45;4046083569653268943&#45;&gt;8816264590802231721 -->
<g id="edge21" class="edge">
<title>&#45;4046083569653268943&#45;&gt;8816264590802231721</title>
<path fill="none" stroke="black" d="M1128.14,-216.63C1128.14,-226.97 1128.14,-240.32 1128.14,-252.03"/>
<polygon fill="black" stroke="black" points="1124.64,-252.2 1128.14,-262.2 1131.64,-252.2 1124.64,-252.2"/>
</g>
<!-- 2018527232524201009 -->
<g id="node25" class="node">
<title>2018527232524201009</title>
<ellipse fill="none" stroke="black" cx="214.14" cy="-72.14" rx="51.99" ry="51.99"/>
<text text-anchor="middle" x="214.14" y="-68.44" font-family="Helvetica,sans-Serif" font-size="14.00">ones_like</text>
</g>
<!-- 2018527232524201009&#45;&gt;7801482820772629908 -->
<g id="edge22" class="edge">
<title>2018527232524201009&#45;&gt;7801482820772629908</title>
<path fill="none" stroke="black" d="M223.84,-123.28C226.92,-139.21 230.21,-156.23 232.85,-169.93"/>
<polygon fill="black" stroke="black" points="229.49,-170.96 234.82,-180.11 236.36,-169.63 229.49,-170.96"/>
</g>
<!-- 1859489021978725489 -->
<g id="node26" class="node">
<title>1859489021978725489</title>
<ellipse fill="none" stroke="black" cx="580.14" cy="-72.14" rx="51.99" ry="51.99"/>
<text text-anchor="middle" x="580.14" y="-68.44" font-family="Helvetica,sans-Serif" font-size="14.00">ones_like</text>
</g>
<!-- 1859489021978725489&#45;&gt;2908408791799933542 -->
<g id="edge23" class="edge">
<title>1859489021978725489&#45;&gt;2908408791799933542</title>
<path fill="none" stroke="black" d="M570.45,-123.28C567.37,-139.21 564.08,-156.23 561.43,-169.93"/>
<polygon fill="black" stroke="black" points="557.93,-169.63 559.46,-180.11 564.8,-170.96 557.93,-169.63"/>
</g>
<!-- &#45;253953970750554991 -->
<g id="node27" class="node">
<title>&#45;253953970750554991</title>
<ellipse fill="none" stroke="black" cx="336.14" cy="-72.14" rx="51.99" ry="51.99"/>
<text text-anchor="middle" x="336.14" y="-68.44" font-family="Helvetica,sans-Serif" font-size="14.00">ones_like</text>
</g>
<!-- &#45;253953970750554991&#45;&gt;&#45;7302753357074532081 -->
<g id="edge24" class="edge">
<title>&#45;253953970750554991&#45;&gt;&#45;7302753357074532081</title>
<path fill="none" stroke="black" d="M326.45,-123.28C323.37,-139.21 320.08,-156.23 317.43,-169.93"/>
<polygon fill="black" stroke="black" points="313.93,-169.63 315.46,-180.11 320.8,-170.96 313.93,-169.63"/>
</g>
<!-- &#45;1897189155689137406 -->
<g id="node28" class="node">
<title>&#45;1897189155689137406</title>
<ellipse fill="none" stroke="black" cx="864.14" cy="-72.14" rx="51.99" ry="51.99"/>
<text text-anchor="middle" x="864.14" y="-68.44" font-family="Helvetica,sans-Serif" font-size="14.00">ones_like</text>
</g>
<!-- &#45;1897189155689137406&#45;&gt;1314170772145096641 -->
<g id="edge25" class="edge">
<title>&#45;1897189155689137406&#45;&gt;1314170772145096641</title>
<path fill="none" stroke="black" d="M873.84,-123.28C876.92,-139.21 880.21,-156.23 882.85,-169.93"/>
<polygon fill="black" stroke="black" points="879.49,-170.96 884.82,-180.11 886.36,-169.63 879.49,-170.96"/>
</g>
<!-- &#45;1250398115174962352 -->
<g id="node29" class="node">
<title>&#45;1250398115174962352</title>
<ellipse fill="none" stroke="black" cx="458.14" cy="-72.14" rx="51.99" ry="51.99"/>
<text text-anchor="middle" x="458.14" y="-68.44" font-family="Helvetica,sans-Serif" font-size="14.00">ones_like</text>
</g>
<!-- &#45;1250398115174962352&#45;&gt;8706932869894773842 -->
<g id="edge26" class="edge">
<title>&#45;1250398115174962352&#45;&gt;8706932869894773842</title>
<path fill="none" stroke="black" d="M467.84,-123.28C470.92,-139.21 474.21,-156.23 476.85,-169.93"/>
<polygon fill="black" stroke="black" points="473.49,-170.96 478.82,-180.11 480.36,-169.63 473.49,-170.96"/>
</g>
<!-- 5834324095396730223 -->
<g id="node30" class="node">
<title>5834324095396730223</title>
<ellipse fill="none" stroke="black" cx="986.14" cy="-72.14" rx="51.99" ry="51.99"/>
<text text-anchor="middle" x="986.14" y="-68.44" font-family="Helvetica,sans-Serif" font-size="14.00">ones_like</text>
</g>
<!-- 5834324095396730223&#45;&gt;&#45;3232170447712779349 -->
<g id="edge27" class="edge">
<title>5834324095396730223&#45;&gt;&#45;3232170447712779349</title>
<path fill="none" stroke="black" d="M976.45,-123.28C973.37,-139.21 970.08,-156.23 967.43,-169.93"/>
<polygon fill="black" stroke="black" points="963.93,-169.63 965.46,-180.11 970.8,-170.96 963.93,-169.63"/>
</g>
<!-- 5172651325406424174 -->
<g id="node31" class="node">
<title>5172651325406424174</title>
<ellipse fill="none" stroke="black" cx="722.14" cy="-72.14" rx="72.29" ry="72.29"/>
<text text-anchor="middle" x="722.14" y="-68.44" font-family="Helvetica,sans-Serif" font-size="14.00">ones_like&#45;add</text>
</g>
<!-- 5172651325406424174&#45;&gt;3284048306059673116 -->
<g id="edge28" class="edge">
<title>5172651325406424174&#45;&gt;3284048306059673116</title>
<path fill="none" stroke="black" d="M722.14,-144.64C722.14,-153.58 722.14,-162.25 722.14,-169.89"/>
<polygon fill="black" stroke="black" points="718.64,-169.92 722.14,-179.92 725.64,-169.92 718.64,-169.92"/>
</g>
<!-- &#45;915626740740861040 -->
<g id="node32" class="node">
<title>&#45;915626740740861040</title>
<ellipse fill="none" stroke="black" cx="72.14" cy="-72.14" rx="72.29" ry="72.29"/>
<text text-anchor="middle" x="72.14" y="-68.44" font-family="Helvetica,sans-Serif" font-size="14.00">ones_like&#45;add</text>
</g>
<!-- &#45;915626740740861040&#45;&gt;&#45;786534603302079616 -->
<g id="edge29" class="edge">
<title>&#45;915626740740861040&#45;&gt;&#45;786534603302079616</title>
<path fill="none" stroke="black" d="M72.14,-144.64C72.14,-153.58 72.14,-162.25 72.14,-169.89"/>
<polygon fill="black" stroke="black" points="68.64,-169.92 72.14,-179.92 75.64,-169.92 68.64,-169.92"/>
</g>
<!-- &#45;2142368604568376578 -->
<g id="node33" class="node">
<title>&#45;2142368604568376578</title>
<ellipse fill="none" stroke="black" cx="1128.14" cy="-72.14" rx="72.29" ry="72.29"/>
<text text-anchor="middle" x="1128.14" y="-68.44" font-family="Helvetica,sans-Serif" font-size="14.00">ones_like&#45;add</text>
</g>
<!-- &#45;2142368604568376578&#45;&gt;&#45;4046083569653268943 -->
<g id="edge30" class="edge">
<title>&#45;2142368604568376578&#45;&gt;&#45;4046083569653268943</title>
<path fill="none" stroke="black" d="M1128.14,-144.64C1128.14,-153.58 1128.14,-162.25 1128.14,-169.89"/>
<polygon fill="black" stroke="black" points="1124.64,-169.92 1128.14,-179.92 1131.64,-169.92 1124.64,-169.92"/>
</g>
</g>
</svg>
