<?xml version="1.0" encoding="UTF-8" standalone="no"?>
<!DOCTYPE svg PUBLIC "-//W3C//DTD SVG 1.1//EN"
 "http://www.w3.org/Graphics/SVG/1.1/DTD/svg11.dtd">
<!-- Generated by graphviz version 2.38.0 (20140413.2041)
 -->
<!-- Title: %3 Pages: 1 -->
<svg width="1550pt" height="681pt"
 viewBox="0.00 0.00 1549.50 680.88" xmlns="http://www.w3.org/2000/svg" xmlns:xlink="http://www.w3.org/1999/xlink">
<g id="graph0" class="graph" transform="scale(1 1) rotate(0) translate(4 676.875)">
<title>%3</title>
<polygon fill="white" stroke="none" points="-4,4 -4,-676.875 1545.5,-676.875 1545.5,4 -4,4"/>
<!-- &#45;7568912189774035779 -->
<g id="node1" class="node"><title>&#45;7568912189774035779</title>
<polygon fill="none" stroke="black" points="119.5,-518.08 23.5,-518.08 23.5,-482.08 119.5,-482.08 119.5,-518.08"/>
<text text-anchor="middle" x="71.5" y="-496.38" font-family="Times,serif" font-size="14.00">(&#39;add&#45;#0&#39;, 0, 0)</text>
</g>
<!-- &#45;269699972550886834 -->
<g id="node2" class="node"><title>&#45;269699972550886834</title>
<ellipse fill="none" stroke="black" cx="71.5" cy="-401.884" rx="23.2963" ry="23.2963"/>
<text text-anchor="middle" x="71.5" y="-398.184" font-family="Times,serif" font-size="14.00">add</text>
</g>
<!-- &#45;269699972550886834&#45;&gt;&#45;7568912189774035779 -->
<g id="edge1" class="edge"><title>&#45;269699972550886834&#45;&gt;&#45;7568912189774035779</title>
<path fill="none" stroke="black" d="M71.5,-425.681C71.5,-439.406 71.5,-456.973 71.5,-471.48"/>
<polygon fill="black" stroke="black" points="68.0001,-471.863 71.5,-481.863 75.0001,-471.863 68.0001,-471.863"/>
</g>
<!-- 1832483939544313498 -->
<g id="node3" class="node"><title>1832483939544313498</title>
<polygon fill="none" stroke="black" points="123,-125.295 0,-125.295 0,-89.2953 123,-89.2953 123,-125.295"/>
<text text-anchor="middle" x="61.5" y="-103.595" font-family="Times,serif" font-size="14.00">(&#39;wrapped&#45;#1&#39;, 0, 0)</text>
</g>
<!-- 1832483939544313498&#45;&gt;&#45;269699972550886834 -->
<g id="edge2" class="edge"><title>1832483939544313498&#45;&gt;&#45;269699972550886834</title>
<path fill="none" stroke="black" d="M57.2993,-125.565C49.0478,-162.028 32.5261,-249.459 44.5,-321.687 47.2603,-338.338 53.0767,-356.188 58.6065,-370.719"/>
<polygon fill="black" stroke="black" points="55.4194,-372.177 62.348,-380.193 61.9301,-369.606 55.4194,-372.177"/>
</g>
<!-- 2968229022803582678 -->
<g id="node46" class="node"><title>2968229022803582678</title>
<ellipse fill="none" stroke="black" cx="107.5" cy="-205.491" rx="44.393" ry="44.393"/>
<text text-anchor="middle" x="107.5" y="-201.791" font-family="Times,serif" font-size="14.00">transpose</text>
</g>
<!-- 1832483939544313498&#45;&gt;2968229022803582678 -->
<g id="edge38" class="edge"><title>1832483939544313498&#45;&gt;2968229022803582678</title>
<path fill="none" stroke="black" d="M69.7239,-125.493C73.8425,-134.106 79.0573,-145.011 84.2869,-155.948"/>
<polygon fill="black" stroke="black" points="81.1877,-157.58 88.6594,-165.092 87.5029,-154.56 81.1877,-157.58"/>
</g>
<!-- &#45;2864674034747732923 -->
<g id="node4" class="node"><title>&#45;2864674034747732923</title>
<polygon fill="none" stroke="black" points="181.5,-321.687 53.5,-321.687 53.5,-285.687 181.5,-285.687 181.5,-321.687"/>
<text text-anchor="middle" x="117.5" y="-299.987" font-family="Times,serif" font-size="14.00">(&#39;transpose&#45;#2&#39;, 0, 0)</text>
</g>
<!-- &#45;2864674034747732923&#45;&gt;&#45;269699972550886834 -->
<g id="edge3" class="edge"><title>&#45;2864674034747732923&#45;&gt;&#45;269699972550886834</title>
<path fill="none" stroke="black" d="M109.276,-321.885C102.709,-335.619 93.3547,-355.181 85.5978,-371.402"/>
<polygon fill="black" stroke="black" points="82.4049,-369.966 81.2484,-380.497 88.72,-372.986 82.4049,-369.966"/>
</g>
<!-- &#45;7568912189772870730 -->
<g id="node5" class="node"><title>&#45;7568912189772870730</title>
<polygon fill="none" stroke="black" points="353.5,-518.08 257.5,-518.08 257.5,-482.08 353.5,-482.08 353.5,-518.08"/>
<text text-anchor="middle" x="305.5" y="-496.38" font-family="Times,serif" font-size="14.00">(&#39;add&#45;#0&#39;, 0, 1)</text>
</g>
<!-- 1088706989993509341 -->
<g id="node6" class="node"><title>1088706989993509341</title>
<ellipse fill="none" stroke="black" cx="305.5" cy="-401.884" rx="23.2963" ry="23.2963"/>
<text text-anchor="middle" x="305.5" y="-398.184" font-family="Times,serif" font-size="14.00">add</text>
</g>
<!-- 1088706989993509341&#45;&gt;&#45;7568912189772870730 -->
<g id="edge4" class="edge"><title>1088706989993509341&#45;&gt;&#45;7568912189772870730</title>
<path fill="none" stroke="black" d="M305.5,-425.681C305.5,-439.406 305.5,-456.973 305.5,-471.48"/>
<polygon fill="black" stroke="black" points="302,-471.863 305.5,-481.863 309,-471.863 302,-471.863"/>
</g>
<!-- 1832483939543148449 -->
<g id="node7" class="node"><title>1832483939543148449</title>
<polygon fill="none" stroke="black" points="507,-321.687 384,-321.687 384,-285.687 507,-285.687 507,-321.687"/>
<text text-anchor="middle" x="445.5" y="-299.987" font-family="Times,serif" font-size="14.00">(&#39;wrapped&#45;#1&#39;, 0, 1)</text>
</g>
<!-- 1832483939543148449&#45;&gt;1088706989993509341 -->
<g id="edge5" class="edge"><title>1832483939543148449&#45;&gt;1088706989993509341</title>
<path fill="none" stroke="black" d="M420.471,-321.885C395.846,-338.805 358.347,-364.572 332.926,-382.039"/>
<polygon fill="black" stroke="black" points="330.739,-379.295 324.479,-387.843 334.703,-385.064 330.739,-379.295"/>
</g>
<!-- &#45;9048924627777257049 -->
<g id="node49" class="node"><title>&#45;9048924627777257049</title>
<ellipse fill="none" stroke="black" cx="438.5" cy="-401.884" rx="44.393" ry="44.393"/>
<text text-anchor="middle" x="438.5" y="-398.184" font-family="Times,serif" font-size="14.00">transpose</text>
</g>
<!-- 1832483939543148449&#45;&gt;&#45;9048924627777257049 -->
<g id="edge44" class="edge"><title>1832483939543148449&#45;&gt;&#45;9048924627777257049</title>
<path fill="none" stroke="black" d="M444.249,-321.885C443.717,-329.188 443.066,-338.138 442.395,-347.358"/>
<polygon fill="black" stroke="black" points="438.899,-347.175 441.664,-357.403 445.881,-347.683 438.899,-347.175"/>
</g>
<!-- &#45;2864674034746567874 -->
<g id="node8" class="node"><title>&#45;2864674034746567874</title>
<polygon fill="none" stroke="black" points="365.5,-321.687 237.5,-321.687 237.5,-285.687 365.5,-285.687 365.5,-321.687"/>
<text text-anchor="middle" x="301.5" y="-299.987" font-family="Times,serif" font-size="14.00">(&#39;transpose&#45;#2&#39;, 0, 1)</text>
</g>
<!-- &#45;2864674034746567874&#45;&gt;1088706989993509341 -->
<g id="edge6" class="edge"><title>&#45;2864674034746567874&#45;&gt;1088706989993509341</title>
<path fill="none" stroke="black" d="M302.215,-321.885C302.748,-334.707 303.493,-352.608 304.138,-368.129"/>
<polygon fill="black" stroke="black" points="300.653,-368.556 304.565,-378.402 307.647,-368.265 300.653,-368.556"/>
</g>
<!-- &#45;7568912189776365877 -->
<g id="node9" class="node"><title>&#45;7568912189776365877</title>
<polygon fill="none" stroke="black" points="678.5,-518.08 582.5,-518.08 582.5,-482.08 678.5,-482.08 678.5,-518.08"/>
<text text-anchor="middle" x="630.5" y="-496.38" font-family="Times,serif" font-size="14.00">(&#39;add&#45;#0&#39;, 0, 2)</text>
</g>
<!-- 6429812205594246832 -->
<g id="node10" class="node"><title>6429812205594246832</title>
<ellipse fill="none" stroke="black" cx="630.5" cy="-401.884" rx="23.2963" ry="23.2963"/>
<text text-anchor="middle" x="630.5" y="-398.184" font-family="Times,serif" font-size="14.00">add</text>
</g>
<!-- 6429812205594246832&#45;&gt;&#45;7568912189776365877 -->
<g id="edge7" class="edge"><title>6429812205594246832&#45;&gt;&#45;7568912189776365877</title>
<path fill="none" stroke="black" d="M630.5,-425.681C630.5,-439.406 630.5,-456.973 630.5,-471.48"/>
<polygon fill="black" stroke="black" points="627,-471.863 630.5,-481.863 634,-471.863 627,-471.863"/>
</g>
<!-- 1832483939541983400 -->
<g id="node11" class="node"><title>1832483939541983400</title>
<polygon fill="none" stroke="black" points="834,-321.687 711,-321.687 711,-285.687 834,-285.687 834,-321.687"/>
<text text-anchor="middle" x="772.5" y="-299.987" font-family="Times,serif" font-size="14.00">(&#39;wrapped&#45;#1&#39;, 0, 2)</text>
</g>
<!-- 1832483939541983400&#45;&gt;6429812205594246832 -->
<g id="edge8" class="edge"><title>1832483939541983400&#45;&gt;6429812205594246832</title>
<path fill="none" stroke="black" d="M747.113,-321.885C722.137,-338.805 684.102,-364.572 658.318,-382.039"/>
<polygon fill="black" stroke="black" points="656.066,-379.337 649.75,-387.843 659.992,-385.132 656.066,-379.337"/>
</g>
<!-- 3467732049900900916 -->
<g id="node52" class="node"><title>3467732049900900916</title>
<ellipse fill="none" stroke="black" cx="769.5" cy="-401.884" rx="44.393" ry="44.393"/>
<text text-anchor="middle" x="769.5" y="-398.184" font-family="Times,serif" font-size="14.00">transpose</text>
</g>
<!-- 1832483939541983400&#45;&gt;3467732049900900916 -->
<g id="edge50" class="edge"><title>1832483939541983400&#45;&gt;3467732049900900916</title>
<path fill="none" stroke="black" d="M771.964,-321.885C771.736,-329.188 771.457,-338.138 771.169,-347.358"/>
<polygon fill="black" stroke="black" points="767.67,-347.299 770.856,-357.403 774.666,-347.517 767.67,-347.299"/>
</g>
<!-- &#45;2864674034750063021 -->
<g id="node12" class="node"><title>&#45;2864674034750063021</title>
<polygon fill="none" stroke="black" points="692.5,-321.687 564.5,-321.687 564.5,-285.687 692.5,-285.687 692.5,-321.687"/>
<text text-anchor="middle" x="628.5" y="-299.987" font-family="Times,serif" font-size="14.00">(&#39;transpose&#45;#2&#39;, 0, 2)</text>
</g>
<!-- &#45;2864674034750063021&#45;&gt;6429812205594246832 -->
<g id="edge9" class="edge"><title>&#45;2864674034750063021&#45;&gt;6429812205594246832</title>
<path fill="none" stroke="black" d="M628.858,-321.885C629.124,-334.707 629.496,-352.608 629.819,-368.129"/>
<polygon fill="black" stroke="black" points="626.325,-368.477 630.033,-378.402 633.324,-368.331 626.325,-368.477"/>
</g>
<!-- &#45;7568910928577036956 -->
<g id="node13" class="node"><title>&#45;7568910928577036956</title>
<polygon fill="none" stroke="black" points="372.5,-672.875 276.5,-672.875 276.5,-636.875 372.5,-636.875 372.5,-672.875"/>
<text text-anchor="middle" x="324.5" y="-651.175" font-family="Times,serif" font-size="14.00">(&#39;add&#45;#0&#39;, 1, 0)</text>
</g>
<!-- &#45;5302097737346974433 -->
<g id="node14" class="node"><title>&#45;5302097737346974433</title>
<ellipse fill="none" stroke="black" cx="324.5" cy="-577.478" rx="23.2963" ry="23.2963"/>
<text text-anchor="middle" x="324.5" y="-573.778" font-family="Times,serif" font-size="14.00">add</text>
</g>
<!-- &#45;5302097737346974433&#45;&gt;&#45;7568910928577036956 -->
<g id="edge10" class="edge"><title>&#45;5302097737346974433&#45;&gt;&#45;7568910928577036956</title>
<path fill="none" stroke="black" d="M324.5,-601.099C324.5,-609.151 324.5,-618.302 324.5,-626.696"/>
<polygon fill="black" stroke="black" points="321,-626.784 324.5,-636.784 328,-626.784 321,-626.784"/>
</g>
<!-- 1832482678347314675 -->
<g id="node15" class="node"><title>1832482678347314675</title>
<polygon fill="none" stroke="black" points="312,-125.295 189,-125.295 189,-89.2953 312,-89.2953 312,-125.295"/>
<text text-anchor="middle" x="250.5" y="-103.595" font-family="Times,serif" font-size="14.00">(&#39;wrapped&#45;#1&#39;, 1, 0)</text>
</g>
<!-- 1832482678347314675&#45;&gt;&#45;5302097737346974433 -->
<g id="edge11" class="edge"><title>1832482678347314675&#45;&gt;&#45;5302097737346974433</title>
<path fill="none" stroke="black" d="M244.362,-125.464C232.924,-159.039 209.5,-235.947 209.5,-302.687 209.5,-302.687 209.5,-302.687 209.5,-402.884 209.5,-456.936 217.048,-474.12 248.5,-518.08 260.803,-535.275 279.615,-549.787 295.445,-560.044"/>
<polygon fill="black" stroke="black" points="294.008,-563.272 304.349,-565.579 297.704,-557.327 294.008,-563.272"/>
</g>
<!-- 6076892855581121253 -->
<g id="node47" class="node"><title>6076892855581121253</title>
<ellipse fill="none" stroke="black" cx="291.5" cy="-205.491" rx="44.393" ry="44.393"/>
<text text-anchor="middle" x="291.5" y="-201.791" font-family="Times,serif" font-size="14.00">transpose</text>
</g>
<!-- 1832482678347314675&#45;&gt;6076892855581121253 -->
<g id="edge40" class="edge"><title>1832482678347314675&#45;&gt;6076892855581121253</title>
<path fill="none" stroke="black" d="M257.83,-125.493C261.393,-133.853 265.876,-144.372 270.399,-154.983"/>
<polygon fill="black" stroke="black" points="267.22,-156.452 274.361,-164.279 273.66,-153.707 267.22,-156.452"/>
</g>
<!-- &#45;2864672773550734100 -->
<g id="node16" class="node"><title>&#45;2864672773550734100</title>
<polygon fill="none" stroke="black" points="502.5,-518.08 374.5,-518.08 374.5,-482.08 502.5,-482.08 502.5,-518.08"/>
<text text-anchor="middle" x="438.5" y="-496.38" font-family="Times,serif" font-size="14.00">(&#39;transpose&#45;#2&#39;, 1, 0)</text>
</g>
<!-- &#45;2864672773550734100&#45;&gt;&#45;5302097737346974433 -->
<g id="edge12" class="edge"><title>&#45;2864672773550734100&#45;&gt;&#45;5302097737346974433</title>
<path fill="none" stroke="black" d="M412.632,-518.189C394.679,-530.062 370.783,-545.867 352.403,-558.023"/>
<polygon fill="black" stroke="black" points="350.283,-555.229 343.873,-563.665 354.144,-561.067 350.283,-555.229"/>
</g>
<!-- &#45;7568910928578202005 -->
<g id="node17" class="node"><title>&#45;7568910928578202005</title>
<polygon fill="none" stroke="black" points="971.5,-518.08 875.5,-518.08 875.5,-482.08 971.5,-482.08 971.5,-518.08"/>
<text text-anchor="middle" x="923.5" y="-496.38" font-family="Times,serif" font-size="14.00">(&#39;add&#45;#0&#39;, 1, 1)</text>
</g>
<!-- 2281173829062926608 -->
<g id="node18" class="node"><title>2281173829062926608</title>
<ellipse fill="none" stroke="black" cx="923.5" cy="-401.884" rx="23.2963" ry="23.2963"/>
<text text-anchor="middle" x="923.5" y="-398.184" font-family="Times,serif" font-size="14.00">add</text>
</g>
<!-- 2281173829062926608&#45;&gt;&#45;7568910928578202005 -->
<g id="edge13" class="edge"><title>2281173829062926608&#45;&gt;&#45;7568910928578202005</title>
<path fill="none" stroke="black" d="M923.5,-425.681C923.5,-439.406 923.5,-456.973 923.5,-471.48"/>
<polygon fill="black" stroke="black" points="920,-471.863 923.5,-481.863 927,-471.863 920,-471.863"/>
</g>
<!-- &#45;2864672773551899149 -->
<g id="node19" class="node"><title>&#45;2864672773551899149</title>
<polygon fill="none" stroke="black" points="1018.5,-321.687 890.5,-321.687 890.5,-285.687 1018.5,-285.687 1018.5,-321.687"/>
<text text-anchor="middle" x="954.5" y="-299.987" font-family="Times,serif" font-size="14.00">(&#39;transpose&#45;#2&#39;, 1, 1)</text>
</g>
<!-- &#45;2864672773551899149&#45;&gt;2281173829062926608 -->
<g id="edge14" class="edge"><title>&#45;2864672773551899149&#45;&gt;2281173829062926608</title>
<path fill="none" stroke="black" d="M948.958,-321.885C944.701,-335.096 938.705,-353.7 933.602,-369.536"/>
<polygon fill="black" stroke="black" points="930.141,-368.866 930.405,-379.458 936.803,-371.014 930.141,-368.866"/>
</g>
<!-- 1832482678348479724 -->
<g id="node20" class="node"><title>1832482678348479724</title>
<polygon fill="none" stroke="black" points="960,-125.295 837,-125.295 837,-89.2953 960,-89.2953 960,-125.295"/>
<text text-anchor="middle" x="898.5" y="-103.595" font-family="Times,serif" font-size="14.00">(&#39;wrapped&#45;#1&#39;, 1, 1)</text>
</g>
<!-- 1832482678348479724&#45;&gt;2281173829062926608 -->
<g id="edge15" class="edge"><title>1832482678348479724&#45;&gt;2281173829062926608</title>
<path fill="none" stroke="black" d="M893.467,-125.473C883.52,-162.125 863.781,-250.458 881.5,-321.687 886.105,-340.198 895.927,-359.137 904.916,-373.851"/>
<polygon fill="black" stroke="black" points="902.041,-375.853 910.351,-382.425 907.953,-372.105 902.041,-375.853"/>
</g>
<!-- 6863370313580418776 -->
<g id="node50" class="node"><title>6863370313580418776</title>
<ellipse fill="none" stroke="black" cx="944.5" cy="-205.491" rx="44.393" ry="44.393"/>
<text text-anchor="middle" x="944.5" y="-201.791" font-family="Times,serif" font-size="14.00">transpose</text>
</g>
<!-- 1832482678348479724&#45;&gt;6863370313580418776 -->
<g id="edge46" class="edge"><title>1832482678348479724&#45;&gt;6863370313580418776</title>
<path fill="none" stroke="black" d="M906.724,-125.493C910.842,-134.106 916.057,-145.011 921.287,-155.948"/>
<polygon fill="black" stroke="black" points="918.188,-157.58 925.659,-165.092 924.503,-154.56 918.188,-157.58"/>
</g>
<!-- &#45;7568910928574706858 -->
<g id="node21" class="node"><title>&#45;7568910928574706858</title>
<polygon fill="none" stroke="black" points="1189.5,-518.08 1093.5,-518.08 1093.5,-482.08 1189.5,-482.08 1189.5,-518.08"/>
<text text-anchor="middle" x="1141.5" y="-496.38" font-family="Times,serif" font-size="14.00">(&#39;add&#45;#0&#39;, 1, 2)</text>
</g>
<!-- &#45;4472990369494402883 -->
<g id="node22" class="node"><title>&#45;4472990369494402883</title>
<ellipse fill="none" stroke="black" cx="1141.5" cy="-401.884" rx="23.2963" ry="23.2963"/>
<text text-anchor="middle" x="1141.5" y="-398.184" font-family="Times,serif" font-size="14.00">add</text>
</g>
<!-- &#45;4472990369494402883&#45;&gt;&#45;7568910928574706858 -->
<g id="edge16" class="edge"><title>&#45;4472990369494402883&#45;&gt;&#45;7568910928574706858</title>
<path fill="none" stroke="black" d="M1141.5,-425.681C1141.5,-439.406 1141.5,-456.973 1141.5,-471.48"/>
<polygon fill="black" stroke="black" points="1138,-471.863 1141.5,-481.863 1145,-471.863 1138,-471.863"/>
</g>
<!-- 1832482678349644773 -->
<g id="node23" class="node"><title>1832482678349644773</title>
<polygon fill="none" stroke="black" points="1344,-321.687 1221,-321.687 1221,-285.687 1344,-285.687 1344,-321.687"/>
<text text-anchor="middle" x="1282.5" y="-299.987" font-family="Times,serif" font-size="14.00">(&#39;wrapped&#45;#1&#39;, 1, 2)</text>
</g>
<!-- 1832482678349644773&#45;&gt;&#45;4472990369494402883 -->
<g id="edge17" class="edge"><title>1832482678349644773&#45;&gt;&#45;4472990369494402883</title>
<path fill="none" stroke="black" d="M1257.29,-321.885C1232.49,-338.805 1194.72,-364.572 1169.12,-382.039"/>
<polygon fill="black" stroke="black" points="1166.9,-379.316 1160.61,-387.843 1170.85,-385.098 1166.9,-379.316"/>
</g>
<!-- &#45;4106302257920999725 -->
<g id="node53" class="node"><title>&#45;4106302257920999725</title>
<ellipse fill="none" stroke="black" cx="1280.5" cy="-401.884" rx="44.393" ry="44.393"/>
<text text-anchor="middle" x="1280.5" y="-398.184" font-family="Times,serif" font-size="14.00">transpose</text>
</g>
<!-- 1832482678349644773&#45;&gt;&#45;4106302257920999725 -->
<g id="edge52" class="edge"><title>1832482678349644773&#45;&gt;&#45;4106302257920999725</title>
<path fill="none" stroke="black" d="M1282.14,-321.885C1281.99,-329.188 1281.8,-338.138 1281.61,-347.358"/>
<polygon fill="black" stroke="black" points="1278.11,-347.332 1281.4,-357.403 1285.11,-347.478 1278.11,-347.332"/>
</g>
<!-- &#45;2864672773548404002 -->
<g id="node24" class="node"><title>&#45;2864672773548404002</title>
<polygon fill="none" stroke="black" points="1202.5,-321.687 1074.5,-321.687 1074.5,-285.687 1202.5,-285.687 1202.5,-321.687"/>
<text text-anchor="middle" x="1138.5" y="-299.987" font-family="Times,serif" font-size="14.00">(&#39;transpose&#45;#2&#39;, 1, 2)</text>
</g>
<!-- &#45;2864672773548404002&#45;&gt;&#45;4472990369494402883 -->
<g id="edge18" class="edge"><title>&#45;2864672773548404002&#45;&gt;&#45;4472990369494402883</title>
<path fill="none" stroke="black" d="M1139.04,-321.885C1139.44,-334.707 1139.99,-352.608 1140.48,-368.129"/>
<polygon fill="black" stroke="black" points="1136.99,-368.516 1140.8,-378.402 1143.99,-368.298 1136.99,-368.516"/>
</g>
<!-- &#45;7568914712168033425 -->
<g id="node25" class="node"><title>&#45;7568914712168033425</title>
<polygon fill="none" stroke="black" points="697.5,-672.875 601.5,-672.875 601.5,-636.875 697.5,-636.875 697.5,-672.875"/>
<text text-anchor="middle" x="649.5" y="-651.175" font-family="Times,serif" font-size="14.00">(&#39;add&#45;#0&#39;, 2, 0)</text>
</g>
<!-- &#45;5017106245455663700 -->
<g id="node26" class="node"><title>&#45;5017106245455663700</title>
<ellipse fill="none" stroke="black" cx="649.5" cy="-577.478" rx="23.2963" ry="23.2963"/>
<text text-anchor="middle" x="649.5" y="-573.778" font-family="Times,serif" font-size="14.00">add</text>
</g>
<!-- &#45;5017106245455663700&#45;&gt;&#45;7568914712168033425 -->
<g id="edge19" class="edge"><title>&#45;5017106245455663700&#45;&gt;&#45;7568914712168033425</title>
<path fill="none" stroke="black" d="M649.5,-601.099C649.5,-609.151 649.5,-618.302 649.5,-626.696"/>
<polygon fill="black" stroke="black" points="646,-626.784 649.5,-636.784 653,-626.784 646,-626.784"/>
</g>
<!-- 1832486461938311144 -->
<g id="node27" class="node"><title>1832486461938311144</title>
<polygon fill="none" stroke="black" points="634,-125.295 511,-125.295 511,-89.2953 634,-89.2953 634,-125.295"/>
<text text-anchor="middle" x="572.5" y="-103.595" font-family="Times,serif" font-size="14.00">(&#39;wrapped&#45;#1&#39;, 2, 0)</text>
</g>
<!-- 1832486461938311144&#45;&gt;&#45;5017106245455663700 -->
<g id="edge20" class="edge"><title>1832486461938311144&#45;&gt;&#45;5017106245455663700</title>
<path fill="none" stroke="black" d="M567.11,-125.522C557.068,-159.198 536.5,-236.273 536.5,-302.687 536.5,-302.687 536.5,-302.687 536.5,-402.884 536.5,-456.658 542.553,-474.103 573.5,-518.08 585.668,-535.37 604.479,-549.884 620.342,-560.117"/>
<polygon fill="black" stroke="black" points="618.923,-563.354 629.269,-565.636 622.604,-557.4 618.923,-563.354"/>
</g>
<!-- 659148793014177912 -->
<g id="node48" class="node"><title>659148793014177912</title>
<ellipse fill="none" stroke="black" cx="618.5" cy="-205.491" rx="44.393" ry="44.393"/>
<text text-anchor="middle" x="618.5" y="-201.791" font-family="Times,serif" font-size="14.00">transpose</text>
</g>
<!-- 1832486461938311144&#45;&gt;659148793014177912 -->
<g id="edge42" class="edge"><title>1832486461938311144&#45;&gt;659148793014177912</title>
<path fill="none" stroke="black" d="M580.724,-125.493C584.842,-134.106 590.057,-145.011 595.287,-155.948"/>
<polygon fill="black" stroke="black" points="592.188,-157.58 599.659,-165.092 598.503,-154.56 592.188,-157.58"/>
</g>
<!-- &#45;2864676557141730569 -->
<g id="node28" class="node"><title>&#45;2864676557141730569</title>
<polygon fill="none" stroke="black" points="826.5,-518.08 698.5,-518.08 698.5,-482.08 826.5,-482.08 826.5,-518.08"/>
<text text-anchor="middle" x="762.5" y="-496.38" font-family="Times,serif" font-size="14.00">(&#39;transpose&#45;#2&#39;, 2, 0)</text>
</g>
<!-- &#45;2864676557141730569&#45;&gt;&#45;5017106245455663700 -->
<g id="edge21" class="edge"><title>&#45;2864676557141730569&#45;&gt;&#45;5017106245455663700</title>
<path fill="none" stroke="black" d="M736.859,-518.189C719.063,-530.062 695.377,-545.867 677.158,-558.023"/>
<polygon fill="black" stroke="black" points="675.079,-555.203 668.703,-563.665 678.964,-561.026 675.079,-555.203"/>
</g>
<!-- &#45;7568914712166868376 -->
<g id="node29" class="node"><title>&#45;7568914712166868376</title>
<polygon fill="none" stroke="black" points="1207.5,-672.875 1111.5,-672.875 1111.5,-636.875 1207.5,-636.875 1207.5,-672.875"/>
<text text-anchor="middle" x="1159.5" y="-651.175" font-family="Times,serif" font-size="14.00">(&#39;add&#45;#0&#39;, 2, 1)</text>
</g>
<!-- &#45;1626244237506246709 -->
<g id="node30" class="node"><title>&#45;1626244237506246709</title>
<ellipse fill="none" stroke="black" cx="1159.5" cy="-577.478" rx="23.2963" ry="23.2963"/>
<text text-anchor="middle" x="1159.5" y="-573.778" font-family="Times,serif" font-size="14.00">add</text>
</g>
<!-- &#45;1626244237506246709&#45;&gt;&#45;7568914712166868376 -->
<g id="edge22" class="edge"><title>&#45;1626244237506246709&#45;&gt;&#45;7568914712166868376</title>
<path fill="none" stroke="black" d="M1159.5,-601.099C1159.5,-609.151 1159.5,-618.302 1159.5,-626.696"/>
<polygon fill="black" stroke="black" points="1156,-626.784 1159.5,-636.784 1163,-626.784 1156,-626.784"/>
</g>
<!-- &#45;2864676557140565520 -->
<g id="node31" class="node"><title>&#45;2864676557140565520</title>
<polygon fill="none" stroke="black" points="1337.5,-518.08 1209.5,-518.08 1209.5,-482.08 1337.5,-482.08 1337.5,-518.08"/>
<text text-anchor="middle" x="1273.5" y="-496.38" font-family="Times,serif" font-size="14.00">(&#39;transpose&#45;#2&#39;, 2, 1)</text>
</g>
<!-- &#45;2864676557140565520&#45;&gt;&#45;1626244237506246709 -->
<g id="edge23" class="edge"><title>&#45;2864676557140565520&#45;&gt;&#45;1626244237506246709</title>
<path fill="none" stroke="black" d="M1247.63,-518.189C1229.68,-530.062 1205.78,-545.867 1187.4,-558.023"/>
<polygon fill="black" stroke="black" points="1185.28,-555.229 1178.87,-563.665 1189.14,-561.067 1185.28,-555.229"/>
</g>
<!-- 1832486461937146095 -->
<g id="node32" class="node"><title>1832486461937146095</title>
<polygon fill="none" stroke="black" points="1169,-125.295 1046,-125.295 1046,-89.2953 1169,-89.2953 1169,-125.295"/>
<text text-anchor="middle" x="1107.5" y="-103.595" font-family="Times,serif" font-size="14.00">(&#39;wrapped&#45;#1&#39;, 2, 1)</text>
</g>
<!-- 1832486461937146095&#45;&gt;&#45;1626244237506246709 -->
<g id="edge24" class="edge"><title>1832486461937146095&#45;&gt;&#45;1626244237506246709</title>
<path fill="none" stroke="black" d="M1094.94,-125.659C1088.26,-135.646 1080.43,-148.682 1075.5,-161.295 1052.14,-221.039 1046.5,-238.538 1046.5,-302.687 1046.5,-302.687 1046.5,-302.687 1046.5,-402.884 1046.5,-456.795 1053.44,-474.012 1084.5,-518.08 1096.5,-535.106 1114.9,-549.54 1130.47,-559.798"/>
<polygon fill="black" stroke="black" points="1128.92,-562.958 1139.24,-565.344 1132.66,-557.041 1128.92,-562.958"/>
</g>
<!-- &#45;8092072985900237499 -->
<g id="node51" class="node"><title>&#45;8092072985900237499</title>
<ellipse fill="none" stroke="black" cx="1128.5" cy="-205.491" rx="44.393" ry="44.393"/>
<text text-anchor="middle" x="1128.5" y="-201.791" font-family="Times,serif" font-size="14.00">transpose</text>
</g>
<!-- 1832486461937146095&#45;&gt;&#45;8092072985900237499 -->
<g id="edge48" class="edge"><title>1832486461937146095&#45;&gt;&#45;8092072985900237499</title>
<path fill="none" stroke="black" d="M1111.25,-125.493C1112.92,-133.114 1114.97,-142.529 1117.08,-152.173"/>
<polygon fill="black" stroke="black" points="1113.72,-153.216 1119.28,-162.239 1120.56,-151.723 1113.72,-153.216"/>
</g>
<!-- &#45;7568914712165703327 -->
<g id="node33" class="node"><title>&#45;7568914712165703327</title>
<polygon fill="none" stroke="black" points="1488.5,-518.08 1392.5,-518.08 1392.5,-482.08 1488.5,-482.08 1488.5,-518.08"/>
<text text-anchor="middle" x="1440.5" y="-496.38" font-family="Times,serif" font-size="14.00">(&#39;add&#45;#0&#39;, 2, 2)</text>
</g>
<!-- &#45;365120496690679334 -->
<g id="node34" class="node"><title>&#45;365120496690679334</title>
<ellipse fill="none" stroke="black" cx="1440.5" cy="-401.884" rx="23.2963" ry="23.2963"/>
<text text-anchor="middle" x="1440.5" y="-398.184" font-family="Times,serif" font-size="14.00">add</text>
</g>
<!-- &#45;365120496690679334&#45;&gt;&#45;7568914712165703327 -->
<g id="edge25" class="edge"><title>&#45;365120496690679334&#45;&gt;&#45;7568914712165703327</title>
<path fill="none" stroke="black" d="M1440.5,-425.681C1440.5,-439.406 1440.5,-456.973 1440.5,-471.48"/>
<polygon fill="black" stroke="black" points="1437,-471.863 1440.5,-481.863 1444,-471.863 1437,-471.863"/>
</g>
<!-- &#45;2864676557139400471 -->
<g id="node35" class="node"><title>&#45;2864676557139400471</title>
<polygon fill="none" stroke="black" points="1541.5,-321.687 1413.5,-321.687 1413.5,-285.687 1541.5,-285.687 1541.5,-321.687"/>
<text text-anchor="middle" x="1477.5" y="-299.987" font-family="Times,serif" font-size="14.00">(&#39;transpose&#45;#2&#39;, 2, 2)</text>
</g>
<!-- &#45;2864676557139400471&#45;&gt;&#45;365120496690679334 -->
<g id="edge26" class="edge"><title>&#45;2864676557139400471&#45;&gt;&#45;365120496690679334</title>
<path fill="none" stroke="black" d="M1470.89,-321.885C1465.72,-335.311 1458.41,-354.308 1452.26,-370.308"/>
<polygon fill="black" stroke="black" points="1448.93,-369.216 1448.61,-379.806 1455.46,-371.729 1448.93,-369.216"/>
</g>
<!-- 1832486461940641242 -->
<g id="node36" class="node"><title>1832486461940641242</title>
<polygon fill="none" stroke="black" points="1483,-125.295 1360,-125.295 1360,-89.2953 1483,-89.2953 1483,-125.295"/>
<text text-anchor="middle" x="1421.5" y="-103.595" font-family="Times,serif" font-size="14.00">(&#39;wrapped&#45;#1&#39;, 2, 2)</text>
</g>
<!-- 1832486461940641242&#45;&gt;&#45;365120496690679334 -->
<g id="edge27" class="edge"><title>1832486461940641242&#45;&gt;&#45;365120496690679334</title>
<path fill="none" stroke="black" d="M1416.81,-125.394C1407.52,-161.893 1388.96,-249.951 1404.5,-321.687 1408.33,-339.366 1416.46,-357.837 1424.02,-372.489"/>
<polygon fill="black" stroke="black" points="1421.05,-374.358 1428.86,-381.52 1427.22,-371.052 1421.05,-374.358"/>
</g>
<!-- 6429879677358970466 -->
<g id="node54" class="node"><title>6429879677358970466</title>
<ellipse fill="none" stroke="black" cx="1467.5" cy="-205.491" rx="44.393" ry="44.393"/>
<text text-anchor="middle" x="1467.5" y="-201.791" font-family="Times,serif" font-size="14.00">transpose</text>
</g>
<!-- 1832486461940641242&#45;&gt;6429879677358970466 -->
<g id="edge54" class="edge"><title>1832486461940641242&#45;&gt;6429879677358970466</title>
<path fill="none" stroke="black" d="M1429.72,-125.493C1433.84,-134.106 1439.06,-145.011 1444.29,-155.948"/>
<polygon fill="black" stroke="black" points="1441.19,-157.58 1448.66,-165.092 1447.5,-154.56 1441.19,-157.58"/>
</g>
<!-- &#45;8070292692300870999 -->
<g id="node37" class="node"><title>&#45;8070292692300870999</title>
<ellipse fill="none" stroke="black" cx="61.5" cy="-26.6476" rx="26.7961" ry="26.7961"/>
<text text-anchor="middle" x="61.5" y="-22.9476" font-family="Times,serif" font-size="14.00">ones</text>
</g>
<!-- &#45;8070292692300870999&#45;&gt;1832483939544313498 -->
<g id="edge28" class="edge"><title>&#45;8070292692300870999&#45;&gt;1832483939544313498</title>
<path fill="none" stroke="black" d="M61.5,-53.3998C61.5,-61.4986 61.5,-70.4727 61.5,-78.6944"/>
<polygon fill="black" stroke="black" points="58.0001,-78.9322 61.5,-88.9323 65.0001,-78.9323 58.0001,-78.9322"/>
</g>
<!-- &#45;9090691081674131174 -->
<g id="node38" class="node"><title>&#45;9090691081674131174</title>
<ellipse fill="none" stroke="black" cx="445.5" cy="-205.491" rx="26.7961" ry="26.7961"/>
<text text-anchor="middle" x="445.5" y="-201.791" font-family="Times,serif" font-size="14.00">ones</text>
</g>
<!-- &#45;9090691081674131174&#45;&gt;1832483939543148449 -->
<g id="edge29" class="edge"><title>&#45;9090691081674131174&#45;&gt;1832483939543148449</title>
<path fill="none" stroke="black" d="M445.5,-232.27C445.5,-245.62 445.5,-261.917 445.5,-275.47"/>
<polygon fill="black" stroke="black" points="442,-275.642 445.5,-285.642 449,-275.642 442,-275.642"/>
</g>
<!-- 8030296630591782667 -->
<g id="node39" class="node"><title>8030296630591782667</title>
<ellipse fill="none" stroke="black" cx="772.5" cy="-205.491" rx="26.7961" ry="26.7961"/>
<text text-anchor="middle" x="772.5" y="-201.791" font-family="Times,serif" font-size="14.00">ones</text>
</g>
<!-- 8030296630591782667&#45;&gt;1832483939541983400 -->
<g id="edge30" class="edge"><title>8030296630591782667&#45;&gt;1832483939541983400</title>
<path fill="none" stroke="black" d="M772.5,-232.27C772.5,-245.62 772.5,-261.917 772.5,-275.47"/>
<polygon fill="black" stroke="black" points="769,-275.642 772.5,-285.642 776,-275.642 769,-275.642"/>
</g>
<!-- &#45;8905230860801093928 -->
<g id="node40" class="node"><title>&#45;8905230860801093928</title>
<ellipse fill="none" stroke="black" cx="250.5" cy="-26.6476" rx="26.7961" ry="26.7961"/>
<text text-anchor="middle" x="250.5" y="-22.9476" font-family="Times,serif" font-size="14.00">ones</text>
</g>
<!-- &#45;8905230860801093928&#45;&gt;1832482678347314675 -->
<g id="edge31" class="edge"><title>&#45;8905230860801093928&#45;&gt;1832482678347314675</title>
<path fill="none" stroke="black" d="M250.5,-53.3998C250.5,-61.4986 250.5,-70.4727 250.5,-78.6944"/>
<polygon fill="black" stroke="black" points="247,-78.9322 250.5,-88.9323 254,-78.9323 247,-78.9322"/>
</g>
<!-- &#45;8692111377862321753 -->
<g id="node41" class="node"><title>&#45;8692111377862321753</title>
<ellipse fill="none" stroke="black" cx="898.5" cy="-26.6476" rx="26.7961" ry="26.7961"/>
<text text-anchor="middle" x="898.5" y="-22.9476" font-family="Times,serif" font-size="14.00">ones</text>
</g>
<!-- &#45;8692111377862321753&#45;&gt;1832482678348479724 -->
<g id="edge32" class="edge"><title>&#45;8692111377862321753&#45;&gt;1832482678348479724</title>
<path fill="none" stroke="black" d="M898.5,-53.3998C898.5,-61.4986 898.5,-70.4727 898.5,-78.6944"/>
<polygon fill="black" stroke="black" points="895,-78.9322 898.5,-88.9323 902,-78.9323 895,-78.9322"/>
</g>
<!-- &#45;7322287080745992778 -->
<g id="node42" class="node"><title>&#45;7322287080745992778</title>
<ellipse fill="none" stroke="black" cx="1282.5" cy="-205.491" rx="26.7961" ry="26.7961"/>
<text text-anchor="middle" x="1282.5" y="-201.791" font-family="Times,serif" font-size="14.00">ones</text>
</g>
<!-- &#45;7322287080745992778&#45;&gt;1832482678349644773 -->
<g id="edge33" class="edge"><title>&#45;7322287080745992778&#45;&gt;1832482678349644773</title>
<path fill="none" stroke="black" d="M1282.5,-232.27C1282.5,-245.62 1282.5,-261.917 1282.5,-275.47"/>
<polygon fill="black" stroke="black" points="1279,-275.642 1282.5,-285.642 1286,-275.642 1279,-275.642"/>
</g>
<!-- 5912433153670749771 -->
<g id="node43" class="node"><title>5912433153670749771</title>
<ellipse fill="none" stroke="black" cx="572.5" cy="-26.6476" rx="26.7961" ry="26.7961"/>
<text text-anchor="middle" x="572.5" y="-22.9476" font-family="Times,serif" font-size="14.00">ones</text>
</g>
<!-- 5912433153670749771&#45;&gt;1832486461938311144 -->
<g id="edge34" class="edge"><title>5912433153670749771&#45;&gt;1832486461938311144</title>
<path fill="none" stroke="black" d="M572.5,-53.3998C572.5,-61.4986 572.5,-70.4727 572.5,-78.6944"/>
<polygon fill="black" stroke="black" points="569,-78.9322 572.5,-88.9323 576,-78.9323 569,-78.9322"/>
</g>
<!-- &#45;4133305945815896020 -->
<g id="node44" class="node"><title>&#45;4133305945815896020</title>
<ellipse fill="none" stroke="black" cx="1107.5" cy="-26.6476" rx="26.7961" ry="26.7961"/>
<text text-anchor="middle" x="1107.5" y="-22.9476" font-family="Times,serif" font-size="14.00">ones</text>
</g>
<!-- &#45;4133305945815896020&#45;&gt;1832486461937146095 -->
<g id="edge35" class="edge"><title>&#45;4133305945815896020&#45;&gt;1832486461937146095</title>
<path fill="none" stroke="black" d="M1107.5,-53.3998C1107.5,-61.4986 1107.5,-70.4727 1107.5,-78.6944"/>
<polygon fill="black" stroke="black" points="1104,-78.9322 1107.5,-88.9323 1111,-78.9323 1104,-78.9322"/>
</g>
<!-- &#45;1424506233946400279 -->
<g id="node45" class="node"><title>&#45;1424506233946400279</title>
<ellipse fill="none" stroke="black" cx="1421.5" cy="-26.6476" rx="26.7961" ry="26.7961"/>
<text text-anchor="middle" x="1421.5" y="-22.9476" font-family="Times,serif" font-size="14.00">ones</text>
</g>
<!-- &#45;1424506233946400279&#45;&gt;1832486461940641242 -->
<g id="edge36" class="edge"><title>&#45;1424506233946400279&#45;&gt;1832486461940641242</title>
<path fill="none" stroke="black" d="M1421.5,-53.3998C1421.5,-61.4986 1421.5,-70.4727 1421.5,-78.6944"/>
<polygon fill="black" stroke="black" points="1418,-78.9322 1421.5,-88.9323 1425,-78.9323 1418,-78.9322"/>
</g>
<!-- 2968229022803582678&#45;&gt;&#45;2864674034747732923 -->
<g id="edge37" class="edge"><title>2968229022803582678&#45;&gt;&#45;2864674034747732923</title>
<path fill="none" stroke="black" d="M111.974,-249.525C112.874,-258.192 113.798,-267.08 114.627,-275.048"/>
<polygon fill="black" stroke="black" points="111.171,-275.651 115.686,-285.236 118.133,-274.927 111.171,-275.651"/>
</g>
<!-- 6076892855581121253&#45;&gt;&#45;2864674034746567874 -->
<g id="edge39" class="edge"><title>6076892855581121253&#45;&gt;&#45;2864674034746567874</title>
<path fill="none" stroke="black" d="M295.974,-249.525C296.874,-258.192 297.798,-267.08 298.627,-275.048"/>
<polygon fill="black" stroke="black" points="295.171,-275.651 299.686,-285.236 302.133,-274.927 295.171,-275.651"/>
</g>
<!-- 659148793014177912&#45;&gt;&#45;2864674034750063021 -->
<g id="edge41" class="edge"><title>659148793014177912&#45;&gt;&#45;2864674034750063021</title>
<path fill="none" stroke="black" d="M622.974,-249.525C623.874,-258.192 624.798,-267.08 625.627,-275.048"/>
<polygon fill="black" stroke="black" points="622.171,-275.651 626.686,-285.236 629.133,-274.927 622.171,-275.651"/>
</g>
<!-- &#45;9048924627777257049&#45;&gt;&#45;2864672773550734100 -->
<g id="edge43" class="edge"><title>&#45;9048924627777257049&#45;&gt;&#45;2864672773550734100</title>
<path fill="none" stroke="black" d="M438.5,-446.198C438.5,-454.837 438.5,-463.685 438.5,-471.611"/>
<polygon fill="black" stroke="black" points="435,-471.741 438.5,-481.741 442,-471.741 435,-471.741"/>
</g>
<!-- 6863370313580418776&#45;&gt;&#45;2864672773551899149 -->
<g id="edge45" class="edge"><title>6863370313580418776&#45;&gt;&#45;2864672773551899149</title>
<path fill="none" stroke="black" d="M948.974,-249.525C949.874,-258.192 950.798,-267.08 951.627,-275.048"/>
<polygon fill="black" stroke="black" points="948.171,-275.651 952.686,-285.236 955.133,-274.927 948.171,-275.651"/>
</g>
<!-- &#45;8092072985900237499&#45;&gt;&#45;2864672773548404002 -->
<g id="edge47" class="edge"><title>&#45;8092072985900237499&#45;&gt;&#45;2864672773548404002</title>
<path fill="none" stroke="black" d="M1132.97,-249.525C1133.87,-258.192 1134.8,-267.08 1135.63,-275.048"/>
<polygon fill="black" stroke="black" points="1132.17,-275.651 1136.69,-285.236 1139.13,-274.927 1132.17,-275.651"/>
</g>
<!-- 3467732049900900916&#45;&gt;&#45;2864676557141730569 -->
<g id="edge49" class="edge"><title>3467732049900900916&#45;&gt;&#45;2864676557141730569</title>
<path fill="none" stroke="black" d="M766.348,-446.198C765.719,-454.837 765.076,-463.685 764.499,-471.611"/>
<polygon fill="black" stroke="black" points="760.997,-471.513 763.762,-481.741 767.978,-472.021 760.997,-471.513"/>
</g>
<!-- &#45;4106302257920999725&#45;&gt;&#45;2864676557140565520 -->
<g id="edge51" class="edge"><title>&#45;4106302257920999725&#45;&gt;&#45;2864676557140565520</title>
<path fill="none" stroke="black" d="M1277.35,-446.198C1276.72,-454.837 1276.08,-463.685 1275.5,-471.611"/>
<polygon fill="black" stroke="black" points="1272,-471.513 1274.76,-481.741 1278.98,-472.021 1272,-471.513"/>
</g>
<!-- 6429879677358970466&#45;&gt;&#45;2864676557139400471 -->
<g id="edge53" class="edge"><title>6429879677358970466&#45;&gt;&#45;2864676557139400471</title>
<path fill="none" stroke="black" d="M1471.97,-249.525C1472.87,-258.192 1473.8,-267.08 1474.63,-275.048"/>
<polygon fill="black" stroke="black" points="1471.17,-275.651 1475.69,-285.236 1478.13,-274.927 1471.17,-275.651"/>
</g>
</g>
</svg>
