<?xml version="1.0" encoding="UTF-8" standalone="no"?>
<!DOCTYPE svg PUBLIC "-//W3C//DTD SVG 1.1//EN"
 "http://www.w3.org/Graphics/SVG/1.1/DTD/svg11.dtd">
<!-- Generated by graphviz version 2.36.0 (20140111.2315)
 -->
<!-- Title: %3 Pages: 1 -->
<svg width="296pt" height="44pt"
 viewBox="0.00 0.00 296.00 44.00" xmlns="http://www.w3.org/2000/svg" xmlns:xlink="http://www.w3.org/1999/xlink">
<g id="graph0" class="graph" transform="scale(1 1) rotate(0) translate(4 40)">
<title>%3</title>
<polygon fill="#ffffff" fill-opacity="0.941176" stroke="none" points="-4,4 -4,-40 292,-40 292,4 -4,4"/>
<!-- waiting -->
<g id="node1" class="node"><title>waiting</title>
<ellipse fill="none" stroke="black" cx="37" cy="-18" rx="37.0935" ry="18"/>
<text text-anchor="middle" x="37" y="-14.3" font-family="Times,serif" font-size="14.00">waiting</text>
</g>
<!-- flight -->
<g id="node2" class="node"><title>flight</title>
<ellipse fill="none" stroke="black" cx="140" cy="-18" rx="29.795" ry="18"/>
<text text-anchor="middle" x="140" y="-14.3" font-family="Times,serif" font-size="14.00">flight</text>
</g>
<!-- waiting&#45;&gt;flight -->
<g id="edge1" class="edge"><title>waiting&#45;&gt;flight</title>
<path fill="none" stroke="black" d="M74.178,-18C82.5482,-18 91.4907,-18 99.9767,-18"/>
<polygon fill="black" stroke="black" points="100.032,-21.5001 110.032,-18 100.032,-14.5001 100.032,-21.5001"/>
</g>
<!-- memory -->
<g id="node3" class="node"><title>memory</title>
<ellipse fill="none" stroke="black" cx="247" cy="-18" rx="40.8928" ry="18"/>
<text text-anchor="middle" x="247" y="-14.3" font-family="Times,serif" font-size="14.00">memory</text>
</g>
<!-- flight&#45;&gt;memory -->
<g id="edge2" class="edge"><title>flight&#45;&gt;memory</title>
<path fill="none" stroke="black" d="M169.97,-18C177.91,-18 186.756,-18 195.527,-18"/>
<polygon fill="black" stroke="black" points="195.729,-21.5001 205.729,-18 195.729,-14.5001 195.729,-21.5001"/>
</g>
</g>
</svg>
