<?xml version="1.0" encoding="UTF-8" standalone="no"?>
<!DOCTYPE svg PUBLIC "-//W3C//DTD SVG 1.1//EN"
 "http://www.w3.org/Graphics/SVG/1.1/DTD/svg11.dtd">
<!-- Generated by graphviz version 2.38.0 (20140413.2041)
 -->
<!-- Title: %3 Pages: 1 -->
<svg width="572pt" height="107pt"
 viewBox="0.00 0.00 571.86 107.00" xmlns="http://www.w3.org/2000/svg" xmlns:xlink="http://www.w3.org/1999/xlink">
<g id="graph0" class="graph" transform="scale(1 1) rotate(0) translate(4 103)">
<title>%3</title>
<polygon fill="#ffffff" fill-opacity="0.941176" stroke="none" points="-4,4 -4,-103 567.863,-103 567.863,4 -4,4"/>
<!-- waiting -->
<g id="node1" class="node"><title>waiting</title>
<ellipse fill="none" stroke="black" cx="37.0467" cy="-45" rx="37.0935" ry="18"/>
<text text-anchor="middle" x="37.0467" y="-41.3" font-family="Times,serif" font-size="14.00">waiting</text>
</g>
<!-- ready -->
<g id="node2" class="node"><title>ready</title>
<ellipse fill="none" stroke="black" cx="140.641" cy="-45" rx="30.5947" ry="18"/>
<text text-anchor="middle" x="140.641" y="-41.3" font-family="Times,serif" font-size="14.00">ready</text>
</g>
<!-- waiting&#45;&gt;ready -->
<g id="edge1" class="edge"><title>waiting&#45;&gt;ready</title>
<path fill="none" stroke="black" d="M74.151,-45C82.5037,-45 91.4363,-45 99.9337,-45"/>
<polygon fill="black" stroke="black" points="100.014,-48.5001 110.014,-45 100.014,-41.5001 100.014,-48.5001"/>
</g>
<!-- executing -->
<g id="node3" class="node"><title>executing</title>
<ellipse fill="none" stroke="black" cx="252.034" cy="-45" rx="44.6926" ry="18"/>
<text text-anchor="middle" x="252.034" y="-41.3" font-family="Times,serif" font-size="14.00">executing</text>
</g>
<!-- ready&#45;&gt;executing -->
<g id="edge2" class="edge"><title>ready&#45;&gt;executing</title>
<path fill="none" stroke="black" d="M171.244,-45C179.158,-45 187.966,-45 196.759,-45"/>
<polygon fill="black" stroke="black" points="197.021,-48.5001 207.021,-45 197.021,-41.5001 197.021,-48.5001"/>
</g>
<!-- long&#45;running -->
<g id="node4" class="node"><title>long&#45;running</title>
<ellipse fill="none" stroke="black" cx="389.425" cy="-45" rx="56.59" ry="18"/>
<text text-anchor="middle" x="389.425" y="-41.3" font-family="Times,serif" font-size="14.00">long&#45;running</text>
</g>
<!-- executing&#45;&gt;long&#45;running -->
<g id="edge3" class="edge"><title>executing&#45;&gt;long&#45;running</title>
<path fill="none" stroke="black" d="M296.992,-45C305.205,-45 313.953,-45 322.657,-45"/>
<polygon fill="black" stroke="black" points="322.822,-48.5001 332.822,-45 322.822,-41.5001 322.822,-48.5001"/>
</g>
<!-- memory -->
<g id="node5" class="node"><title>memory</title>
<ellipse fill="none" stroke="black" cx="522.916" cy="-81" rx="40.8928" ry="18"/>
<text text-anchor="middle" x="522.916" y="-77.3" font-family="Times,serif" font-size="14.00">memory</text>
</g>
<!-- executing&#45;&gt;memory -->
<g id="edge4" class="edge"><title>executing&#45;&gt;memory</title>
<path fill="none" stroke="black" d="M283.97,-57.7049C298.553,-63.1083 316.345,-68.8743 332.88,-72 379.21,-80.7579 433.001,-82.5251 471.329,-82.387"/>
<polygon fill="black" stroke="black" points="471.74,-85.8839 481.711,-82.3018 471.682,-78.8841 471.74,-85.8839"/>
</g>
<!-- error -->
<g id="node6" class="node"><title>error</title>
<ellipse fill="none" stroke="black" cx="522.916" cy="-18" rx="27.8951" ry="18"/>
<text text-anchor="middle" x="522.916" y="-14.3" font-family="Times,serif" font-size="14.00">error</text>
</g>
<!-- executing&#45;&gt;error -->
<g id="edge5" class="edge"><title>executing&#45;&gt;error</title>
<path fill="none" stroke="black" d="M283.527,-32.0792C298.166,-26.5573 316.131,-20.7553 332.88,-18 385.125,-9.40567 446.597,-11.6437 484.917,-14.4742"/>
<polygon fill="black" stroke="black" points="484.839,-17.9789 495.084,-15.2797 485.392,-11.0008 484.839,-17.9789"/>
</g>
<!-- long&#45;running&#45;&gt;memory -->
<g id="edge6" class="edge"><title>long&#45;running&#45;&gt;memory</title>
<path fill="none" stroke="black" d="M432.754,-56.5888C447.149,-60.5301 463.268,-64.9432 477.801,-68.9219"/>
<polygon fill="black" stroke="black" points="476.998,-72.3308 487.567,-71.5958 478.846,-65.5793 476.998,-72.3308"/>
</g>
<!-- long&#45;running&#45;&gt;error -->
<g id="edge7" class="edge"><title>long&#45;running&#45;&gt;error</title>
<path fill="none" stroke="black" d="M437.525,-35.3286C453.571,-32.0337 471.233,-28.4071 486.234,-25.3269"/>
<polygon fill="black" stroke="black" points="487.05,-28.7325 496.141,-23.2926 485.642,-21.8756 487.05,-28.7325"/>
</g>
</g>
</svg>
